<svg width="29" height="25" viewBox="0 0 29 25" fill="none" xmlns="http://www.w3.org/2000/svg">
<path d="M3.625 1.78571C3.625 0.797991 2.81504 0 1.8125 0C0.809961 0 0 0.797991 0 1.78571V20.5357C0 23.0022 2.02773 25 4.53125 25H27.1875C28.19 25 29 24.202 29 23.2143C29 22.2266 28.19 21.4286 27.1875 21.4286H4.53125C4.03281 21.4286 3.625 21.0268 3.625 20.5357V1.78571ZM26.6551 6.6183C27.3631 5.92076 27.3631 4.78795 26.6551 4.0904C25.9471 3.39286 24.7973 3.39286 24.0893 4.0904L18.125 9.9721L14.8738 6.76897C14.1658 6.07143 13.016 6.07143 12.308 6.76897L5.96426 13.019C5.25625 13.7165 5.25625 14.8493 5.96426 15.5469C6.67227 16.2444 7.82207 16.2444 8.53008 15.5469L13.5938 10.5636L16.8449 13.7667C17.5529 14.4643 18.7027 14.4643 19.4107 13.7667L26.6607 6.62388L26.6551 6.6183Z" fill="#862633"/>
</svg>
