<svg width="25" height="24" viewBox="0 0 25 24" fill="none" xmlns="http://www.w3.org/2000/svg">
<path d="M23.785 5.58478L23.7273 5.52696C23.1843 4.98402 22.2995 4.98283 21.7533 5.52858L19.6283 7.6759C19.5164 7.78822 19.3373 7.79273 19.2205 7.68526L16.2413 4.93474C15.9519 4.66732 15.5754 4.52039 15.181 4.52039H10.7492C10.6446 4.52039 10.5445 4.56027 10.4688 4.63192L6.71253 8.19846C6.16226 8.74915 6.12441 9.63682 6.62871 10.1773C6.89815 10.4663 7.26202 10.6254 7.65313 10.6254H7.66005C8.04793 10.6234 8.42074 10.4586 8.67838 10.1769L11.3312 7.36939H12.2808L6.08983 14.2885H2.27136C1.36617 14.2885 0.621789 14.9653 0.576606 15.8294C0.552585 16.2808 0.710497 16.7097 1.02106 17.037C1.32711 17.3597 1.75733 17.5445 2.2022 17.5445H7.90021C8.01252 17.5445 8.12 17.4981 8.19732 17.4155L11.1167 14.2991L13.5718 16.8664L12.8306 21.6031C12.6438 22.3878 13.0203 23.1871 13.7256 23.5025C13.943 23.6002 14.1737 23.6491 14.4033 23.6491C14.6503 23.6491 14.8961 23.5925 15.1224 23.4805C15.5596 23.264 15.8738 22.868 15.9881 22.3755L17.2543 15.5839C17.2787 15.452 17.2368 15.3161 17.1416 15.2213L13.7623 11.8464L16.4469 9.16594L18.3182 11.0369C18.8409 11.5595 19.7517 11.5595 20.2739 11.0369L23.7851 7.52611C24.0444 7.26685 24.1873 6.92171 24.1873 6.5554C24.1872 6.18876 24.0443 5.84403 23.785 5.58478Z" fill="#0074C4"/>
<path d="M19.2965 5.74124C20.6433 5.74124 21.7386 4.646 21.7386 3.29921C21.7386 1.95242 20.6433 0.857178 19.2965 0.857178C17.9498 0.857178 16.8545 1.95242 16.8545 3.29921C16.8545 4.646 17.9498 5.74124 19.2965 5.74124Z" fill="#16A34A"/>
</svg>
