<svg width="17" height="17" viewBox="0 0 17 17" fill="none" xmlns="http://www.w3.org/2000/svg">
<path d="M16.7104 3.40351L16.6688 3.36188C16.2779 2.971 15.6409 2.97014 15.2477 3.36305L13.7178 4.90899C13.6372 4.98985 13.5083 4.99311 13.4242 4.91573L11.2794 2.93552C11.071 2.74299 10.8 2.63721 10.516 2.63721H7.32537C7.25005 2.63721 7.17799 2.66592 7.12348 2.7175L4.41922 5.28521C4.02306 5.68167 3.99581 6.32074 4.35888 6.70987C4.55286 6.91792 4.81482 7.03247 5.0964 7.03247H5.10138C5.38063 7.03101 5.64904 6.91234 5.83452 6.70957L7.7444 4.68832H8.42802L3.97091 9.66968H1.22184C0.570155 9.66968 0.0342481 10.157 0.00171861 10.779C-0.0155751 11.104 0.0981121 11.4128 0.321703 11.6484C0.54204 11.8808 0.851767 12.0138 1.17205 12.0138H5.27428C5.35514 12.0138 5.43252 11.9804 5.48818 11.9209L7.58998 9.67728L9.35746 11.5256L8.82388 14.9357C8.68938 15.5007 8.96044 16.0762 9.46823 16.3032C9.6247 16.3736 9.79084 16.4087 9.95611 16.4087C10.134 16.4087 10.3109 16.368 10.4739 16.2874C10.7886 16.1315 11.0148 15.8464 11.0971 15.4919L12.0087 10.6023C12.0263 10.5073 11.9961 10.4095 11.9275 10.3412L9.49462 7.91153L11.4274 5.98174L12.7747 7.32872C13.1509 7.70497 13.8067 7.70497 14.1826 7.32872L16.7105 4.80115C16.8971 4.6145 17 4.36602 17 4.1023C16.9999 3.83834 16.8971 3.59016 16.7104 3.40351Z" fill="#862633"/>
<path d="M13.4788 3.51624C14.4484 3.51624 15.2369 2.72773 15.2369 1.75812C15.2369 0.788508 14.4484 0 13.4788 0C12.5092 0 11.7207 0.788508 11.7207 1.75812C11.7207 2.72773 12.5092 3.51624 13.4788 3.51624Z" fill="#862633"/>
</svg>
