<svg width="18" height="17" viewBox="0 0 18 17" fill="none" xmlns="http://www.w3.org/2000/svg">
<g clip-path="url(#clip0_1087_3785)">
<mask id="mask0_1087_3785" style="mask-type:luminance" maskUnits="userSpaceOnUse" x="0" y="0" width="19" height="17">
<rect x="0.580803" y="0.580688" width="17.4194" height="15.4839" fill="white"/>
</mask>
<g mask="url(#mask0_1087_3785)">
<path fill-rule="evenodd" clip-rule="evenodd" d="M17.2744 3.16123H14.1292V2.08596C14.1292 1.72843 13.8056 1.4408 13.4034 1.4408H5.17761C4.77539 1.4408 4.4518 1.72843 4.4518 2.08596V3.16123H1.30664C0.90442 3.16123 0.580832 3.44886 0.580832 3.80639V5.31176C0.580832 6.27144 1.26128 7.258 2.45281 8.01875C3.40543 8.62897 4.56369 9.01606 5.77942 9.13972C6.72902 10.5403 7.8389 11.1182 7.8389 11.1182V13.0537H6.38728C5.31974 13.0537 4.4518 13.6102 4.4518 14.5591V14.8817C4.4518 15.0591 4.61511 15.2042 4.8147 15.2042H13.7663C13.9659 15.2042 14.1292 15.0591 14.1292 14.8817V14.5591C14.1292 13.6102 13.2613 13.0537 12.1937 13.0537H10.7421V11.1182C10.7421 11.1182 11.852 10.5403 12.8016 9.13972C14.0203 9.01606 15.1786 8.62897 16.1282 8.01875C17.3167 7.258 18.0002 6.27144 18.0002 5.31176V3.80639C18.0002 3.44886 17.6766 3.16123 17.2744 3.16123ZM3.5838 6.62371C2.84589 6.15059 2.51626 5.62371 2.51626 5.31188V4.88177H4.45779C4.48803 5.75811 4.63319 6.52693 4.84488 7.19897C4.38823 7.05919 3.96182 6.86564 3.5838 6.62371ZM16.0646 5.31188C16.0646 5.74467 15.5293 6.28231 14.9971 6.62371C14.6191 6.86564 14.1896 7.05919 13.733 7.19897C13.9447 6.52693 14.0898 5.75811 14.1201 4.88177H16.0646V5.31188Z" fill="#8B1D3F"/>
</g>
</g>
<defs>
<clipPath id="clip0_1087_3785">
<rect width="17.4194" height="15.4839" fill="white" transform="translate(0.580803 0.580688)"/>
</clipPath>
</defs>
</svg>
