<svg width="19" height="21" viewBox="0 0 19 21" fill="none" xmlns="http://www.w3.org/2000/svg">
<path fill-rule="evenodd" clip-rule="evenodd" d="M17.6364 14.499C17.8537 14.7652 17.9775 15.0658 18.0078 15.4007C18.0362 15.7164 17.9779 16.0173 17.8329 16.3035C17.6882 16.5889 17.479 16.8161 17.2054 16.9851C16.9192 17.1617 16.6007 17.25 16.2497 17.25H12.758C12.758 18.2855 12.3918 19.1694 11.6596 19.9016C10.9274 20.6339 10.0435 21 9.00794 21C7.97241 21 7.08852 20.6339 6.35628 19.9016C5.62405 19.1694 5.25794 18.2855 5.25794 17.25H1.7709C1.41965 17.25 1.10081 17.1623 0.814383 16.9868C0.53937 16.8184 0.329087 16.5916 0.183534 16.3065C0.0372059 16.0199 -0.0216237 15.7183 0.00704493 15.4017C0.0373863 15.0666 0.161587 14.7656 0.379648 14.4987C0.431881 14.4348 0.508252 14.3422 0.60876 14.2207C0.940313 13.8201 1.17341 13.5205 1.30806 13.3218C1.51546 13.0158 1.68072 12.6976 1.80384 12.3671C2.11125 11.542 2.26543 10.3157 2.26637 8.68828C2.26637 6.8508 2.69925 5.36604 3.56502 4.23399C4.19399 3.41158 5.07032 2.769 6.19402 2.30626C6.20347 2.30238 6.21431 2.2941 6.22654 2.28141C6.22841 2.27948 6.23002 2.27772 6.23139 2.27614C6.41546 1.65564 6.73508 1.13811 7.19024 0.723557C7.71987 0.241186 8.32577 0 9.00794 0C9.68976 0 10.2956 0.240987 10.8254 0.722961C11.2808 1.1372 11.6011 1.65425 11.7865 2.2741C11.7883 2.27637 11.7905 2.27891 11.7933 2.28172C11.8057 2.29473 11.8162 2.30298 11.8247 2.30647C12.9467 2.76842 13.8227 3.41131 14.4526 4.23514C15.3188 5.3681 15.7519 6.85248 15.7519 8.68828C15.7519 10.316 15.9054 11.5424 16.2125 12.3674C16.3355 12.6978 16.5006 13.016 16.708 13.322C16.8426 13.5207 17.0757 13.8203 17.4073 14.2209C17.5077 14.3422 17.5842 14.4351 17.6364 14.499ZM6.75794 17.25C6.75794 17.8713 6.97761 18.4017 7.41694 18.841C7.85629 19.2803 8.38662 19.5 9.00794 19.5C9.62926 19.5 10.1596 19.2803 10.5989 18.841C11.0383 18.4017 11.258 17.8713 11.258 17.25H6.75794ZM12.008 15.75H1.7709C1.64602 15.75 1.56221 15.7082 1.51949 15.6245C1.48805 15.5629 1.4953 15.504 1.54123 15.4478C1.59144 15.3863 1.66581 15.2961 1.76431 15.1771C2.12641 14.7396 2.38823 14.4016 2.54976 14.1633C2.82451 13.7579 3.04441 13.3337 3.20945 12.8908C3.57969 11.8971 3.76533 10.4962 3.76637 8.68828C3.76637 7.18936 4.09642 6.00834 4.75651 5.14523C5.22151 4.53722 5.89069 4.05339 6.76404 3.69374C6.96758 3.61011 7.1483 3.48644 7.3062 3.32273C7.47993 3.14261 7.59974 2.94028 7.66563 2.71574C7.77006 2.35645 7.94828 2.06205 8.20028 1.83254C8.44369 1.61085 8.71291 1.5 9.00794 1.5C9.30297 1.5 9.57234 1.61085 9.81605 1.83255C10.0684 2.06207 10.2476 2.35749 10.3538 2.71881C10.4193 2.93977 10.5382 3.14007 10.7104 3.31972C10.8692 3.48537 11.0503 3.60998 11.2537 3.69353C12.126 4.05266 12.7951 4.53688 13.2609 5.14619C13.9215 6.01026 14.2519 7.19095 14.2519 8.68828C14.2519 10.4961 14.4368 11.8969 14.8068 12.8907C14.9716 13.3337 15.1914 13.7579 15.4662 14.1634C15.6277 14.4017 15.8895 14.7397 16.2517 15.1773C16.35 15.296 16.4243 15.3861 16.4745 15.4476C16.5197 15.5033 16.5267 15.5627 16.4949 15.6254C16.4528 15.7085 16.3711 15.75 16.2497 15.75H12.008Z" fill="#862633"/>
</svg>
