<svg width="16" height="14" viewBox="0 0 16 14" fill="none" xmlns="http://www.w3.org/2000/svg">
<path fill-rule="evenodd" clip-rule="evenodd" d="M1.77911 1.38751C2.16604 1.00048 2.62542 0.693469 3.13101 0.484005C3.63661 0.274542 4.17851 0.166732 4.72578 0.166732C5.27305 0.166732 5.81495 0.274542 6.32055 0.484005C6.82614 0.693469 7.28552 1.00048 7.67245 1.38751C7.82411 1.53973 8.0205 1.72917 8.26161 1.95584C8.50161 1.72917 8.698 1.53945 8.85078 1.38668C9.62621 0.599314 10.6827 0.152238 11.7877 0.143798C12.8928 0.135359 13.9559 0.566248 14.7433 1.34168C15.5306 2.1171 15.9777 3.17355 15.9862 4.27861C15.9946 5.38366 15.5637 6.44681 14.7883 7.23418L8.85078 13.1725C8.69451 13.3287 8.48258 13.4165 8.26161 13.4165C8.04064 13.4165 7.82872 13.3287 7.67245 13.1725L1.73328 7.23334C0.971645 6.44784 0.549536 5.39429 0.558112 4.3002C0.566687 3.20612 1.00526 2.15931 1.77911 1.38584V1.38751Z" fill="#862633"/>
</svg>
