<svg width="24" height="27" viewBox="0 0 24 27" fill="none" xmlns="http://www.w3.org/2000/svg">
<path d="M6.61419 9.64687C11.3853 9.32526 11.4206 7.4875 11.4666 4.93937C11.4737 4.64956 11.7069 4.41984 11.9967 4.41984C12.2865 4.41984 12.5233 4.6531 12.5268 4.93937C12.5728 7.48396 12.6046 9.32526 17.3757 9.64687C20.6978 9.86952 21.9843 8.86935 22.4366 8.31802C24.5324 1.51123 23.7125 0.620619 23.3979 0.284874C23.299 0.175315 23.1576 0.115234 23.0092 0.115234H0.980731C0.832296 0.115234 0.694464 0.175315 0.591973 0.284874C0.277432 0.620619 -0.542493 1.51123 1.55327 8.31802C2.00564 8.87289 3.29561 9.87306 6.61419 9.64687ZM17.6514 7.02452C18.0543 7.02452 18.3794 7.34966 18.3794 7.75256C18.3794 8.15545 18.0543 8.4806 17.6514 8.4806C17.2485 8.4806 16.9233 8.15545 16.9233 7.75256C16.9233 7.34966 17.2485 7.02452 17.6514 7.02452ZM6.34205 7.02452C6.74495 7.02452 7.07009 7.34966 7.07009 7.75256C7.07009 8.15545 6.74495 8.4806 6.34205 8.4806C5.93916 8.4806 5.61402 8.15545 5.61402 7.75256C5.61402 7.34966 5.93916 7.02452 6.34205 7.02452Z" fill="#0074C4"/>
<path d="M19.3412 18.0016C19.7335 17.4149 20.8715 14.5806 21.8787 11.5553C20.921 12.0218 19.4755 12.3646 17.2985 12.2197C14.0788 12.0041 12.6369 11.057 11.9901 9.6716C11.3434 11.057 9.90146 12.0041 6.68184 12.2197C6.33549 12.2445 6.00328 12.2551 5.69227 12.2551C4.05242 12.2551 2.90382 11.9511 2.10156 11.5588C3.11233 14.5806 4.2468 17.4149 4.63909 18.0016C5.02078 18.5742 4.45531 22.4688 3.6884 25.745C3.65306 25.904 3.6884 26.0701 3.79089 26.1938C3.88985 26.321 4.04535 26.3953 4.20792 26.3953H19.783C19.9455 26.3953 20.0975 26.321 20.2 26.1938C20.299 26.0666 20.3378 25.9005 20.299 25.745C19.525 22.4688 18.9595 18.5742 19.3412 18.0016ZM7.28618 14.6689C7.371 14.3897 7.66787 14.2307 7.94707 14.319C9.68234 14.8527 10.1736 14.5275 10.2831 14.4144C10.5376 14.1494 10.3609 13.5733 10.3609 13.5662C10.2655 13.2906 10.4139 12.9866 10.6896 12.8912C10.9652 12.7958 11.2692 12.9442 11.3646 13.2199C11.5166 13.6581 11.6191 14.5593 11.0465 15.1496C10.7072 15.503 10.2125 15.6761 9.55864 15.6761C9.02852 15.6761 8.38884 15.5595 7.63959 15.3298C7.35686 15.245 7.19782 14.9481 7.28618 14.6689ZM11.1844 22.4794C10.7638 22.8682 10.1559 22.9813 9.59045 22.9813C8.87302 22.9813 8.22273 22.801 8.10257 22.7657C7.82337 22.6844 7.6608 22.3875 7.74208 22.1083C7.82337 21.8291 8.12024 21.6665 8.39944 21.7478C8.90129 21.8927 10.064 22.073 10.4634 21.7019C10.6189 21.557 10.6578 21.2813 10.5729 20.8855C10.5129 20.5992 10.6966 20.3165 10.9829 20.2564C11.2692 20.1963 11.5519 20.3801 11.6085 20.6664C11.8205 21.6489 11.4954 22.1931 11.1844 22.4794ZM10.6613 19.3799C10.2584 19.6485 9.79897 19.744 9.36073 19.744C8.44185 19.744 7.61132 19.3446 7.55831 19.3199C7.29678 19.1926 7.18722 18.8746 7.31445 18.6095C7.44168 18.348 7.75976 18.2384 8.02128 18.3656C8.3853 18.5423 9.46676 18.9099 10.0711 18.4999C10.6154 18.1324 10.6719 17.1782 10.6189 16.4431C10.5977 16.1497 10.8203 15.8988 11.1101 15.8776C11.4035 15.8528 11.6544 16.079 11.6756 16.3688C11.7816 17.8426 11.4388 18.8569 10.6613 19.3799ZM12.8984 13.2199C12.9938 12.9442 13.2943 12.7958 13.5735 12.8912C13.8491 12.9866 13.9976 13.287 13.9021 13.5627C13.8527 13.7147 13.7608 14.1918 13.9799 14.4144C14.0894 14.5275 14.5807 14.8491 16.3124 14.319C16.5916 14.2342 16.8885 14.3897 16.9733 14.6689C17.0581 14.9481 16.9026 15.245 16.6234 15.3298C15.8707 15.5595 15.2345 15.6761 14.7044 15.6761C14.0506 15.6761 13.5558 15.4994 13.2165 15.1496C12.644 14.5629 12.7465 13.6617 12.8984 13.2199ZM16.1569 22.7621C16.0368 22.7975 15.3865 22.9777 14.669 22.9777C14.1036 22.9777 13.4957 22.8646 13.0751 22.4759C12.7677 22.1896 12.439 21.6453 12.644 20.6664C12.704 20.3801 12.9832 20.1963 13.273 20.2564C13.5593 20.3165 13.7431 20.5957 13.683 20.8855C13.6017 21.2813 13.6371 21.557 13.7926 21.7019C14.1955 22.073 15.3582 21.8927 15.8565 21.7478C16.1357 21.6665 16.4326 21.8256 16.5139 22.1083C16.5952 22.3875 16.4361 22.6809 16.1569 22.7621ZM16.7012 19.3163C16.6517 19.3411 15.8176 19.7404 14.8988 19.7404C14.457 19.7404 13.9976 19.6485 13.5982 19.3764C12.8242 18.8534 12.4814 17.8426 12.5804 16.3653C12.6016 16.072 12.856 15.8493 13.1458 15.8741C13.4392 15.8953 13.6583 16.1462 13.6371 16.4395C13.5876 17.1746 13.6406 18.1324 14.1884 18.4999C14.7963 18.9099 15.8989 18.5282 16.2347 18.3656C16.4962 18.2384 16.8143 18.348 16.945 18.6095C17.0723 18.871 16.9627 19.1891 16.7012 19.3163Z" fill="#0074C4"/>
</svg>
