<svg width="16" height="20" viewBox="0 0 16 20" fill="none" xmlns="http://www.w3.org/2000/svg">
<path d="M14.0708 0H1.92862C1.19949 0 0.608398 0.591087 0.608398 1.32022V18.6798C0.608398 19.4089 1.19949 20 1.92862 20H14.0708C14.7999 20 15.391 19.4089 15.391 18.6798V1.32022C15.391 0.591087 14.7999 0 14.0708 0ZM2.70422 14.9396V13.0615C2.70422 12.9114 2.82583 12.7898 2.97588 12.7898H4.85396C5.00401 12.7898 5.12562 12.9114 5.12562 13.0615V14.9396C5.12562 15.0896 5.00401 15.2112 4.85396 15.2112H2.97588C2.82583 15.2112 2.70422 15.0896 2.70422 14.9396ZM2.70422 11.157V9.27887C2.70422 9.12883 2.82583 9.00722 2.97588 9.00722H4.85396C5.00401 9.00722 5.12562 9.12883 5.12562 9.27887V11.157C5.12562 11.307 5.00401 11.4286 4.85396 11.4286H2.97588C2.82583 11.4286 2.70422 11.307 2.70422 11.157ZM11.4297 18.3043H4.56966C4.0894 18.3043 3.70009 17.915 3.70009 17.4348C3.70009 16.9545 4.0894 16.5652 4.56966 16.5652H11.4297C11.91 16.5652 12.2993 16.9545 12.2993 17.4348C12.2993 17.915 11.91 18.3043 11.4297 18.3043ZM7.06066 12.7898H8.93875C9.08879 12.7898 9.2104 12.9114 9.2104 13.0614V14.9395C9.2104 15.0896 9.08879 15.2112 8.93875 15.2112H7.06066C6.91061 15.2112 6.78901 15.0896 6.78901 14.9395V13.0614C6.78901 12.9114 6.91061 12.7898 7.06066 12.7898ZM6.78901 11.157V9.27887C6.78901 9.12883 6.91061 9.00722 7.06066 9.00722H8.93875C9.08879 9.00722 9.2104 9.12883 9.2104 9.27887V11.157C9.2104 11.307 9.08879 11.4286 8.93875 11.4286H7.06066C6.91061 11.4286 6.78901 11.307 6.78901 11.157ZM13.0235 15.2112H11.1454C10.9954 15.2112 10.8738 15.0896 10.8738 14.9396V13.0615C10.8738 12.9114 10.9954 12.7898 11.1454 12.7898H13.0235C13.1736 12.7898 13.2952 12.9114 13.2952 13.0615V14.9396C13.2952 15.0896 13.1736 15.2112 13.0235 15.2112ZM13.0235 11.4286H11.1454C10.9954 11.4286 10.8738 11.307 10.8738 11.157V9.27887C10.8738 9.12883 10.9954 9.00722 11.1454 9.00722H13.0235C13.1736 9.00722 13.2952 9.12883 13.2952 9.27887V11.157C13.2952 11.307 13.1736 11.4286 13.0235 11.4286ZM13.391 6.50596C13.391 7.01896 12.9751 7.43478 12.4622 7.43478H3.53727C3.02427 7.43478 2.6084 7.01891 2.6084 6.50596V2.71143C2.6084 2.19848 3.02427 1.78261 3.53727 1.78261H12.4622C12.9751 1.78261 13.391 2.19848 13.391 2.71143V6.50596Z" fill="#FF7D0E"/>
</svg>
