<svg width="17" height="17" viewBox="0 0 17 17" fill="none" xmlns="http://www.w3.org/2000/svg">
<path d="M17 3.64291C17 2.97228 16.7629 2.39987 16.2887 1.92565C15.8145 1.45144 15.242 1.21434 14.5714 1.21434H13.9643V0.624276C13.9643 0.297558 13.7131 0.0171332 13.3864 0.000816211C13.2132 -0.00752775 13.0639 0.0481044 12.9383 0.167713C12.8128 0.287321 12.75 0.433817 12.75 0.6072V1.21434H4.25V0.624276C4.25 0.297558 3.9988 0.0171332 3.67207 0.000816211C3.49889 -0.0075279 3.34954 0.0481043 3.22402 0.167712C3.0985 0.287321 3.03573 0.433817 3.03571 0.6072V1.21434H2.42857C1.75794 1.21434 1.18552 1.45144 0.711312 1.92565C0.237104 2.39987 0 2.97228 0 3.64291V4.09827C-4.82512e-08 4.14019 0.0148189 4.17596 0.0444569 4.2056C0.0740949 4.23523 0.109871 4.25006 0.151786 4.25006H16.8482C16.8901 4.25006 16.9259 4.23523 16.9556 4.2056C16.9852 4.17596 17 4.14019 17 4.09827V3.64291ZM0 14.5715C-4.82512e-08 15.2421 0.237104 15.8145 0.711312 16.2888C1.18552 16.763 1.75794 17.0001 2.42857 17.0001H14.5714C15.242 17.0001 15.8145 16.763 16.2887 16.2888C16.7629 15.8145 17 15.2421 17 14.5715V5.57819C17 5.54674 16.9889 5.51992 16.9666 5.49769C16.9445 5.47546 16.9176 5.46434 16.8862 5.46434H0.113839C0.082403 5.46434 0.0555712 5.47546 0.0333427 5.49769C0.0111142 5.51992 0 5.54674 0 5.57819V14.5715ZM13.0536 6.67863C13.3051 6.67863 13.5197 6.76755 13.6975 6.94537C13.8754 7.12319 13.9643 7.33786 13.9643 7.58934C13.9643 7.84083 13.8754 8.05549 13.6975 8.23334C13.5197 8.41111 13.3051 8.50008 13.0536 8.50008C12.8021 8.50008 12.5874 8.41111 12.4096 8.23334C12.2317 8.05549 12.1429 7.84083 12.1429 7.58934C12.1429 7.33786 12.2317 7.1232 12.4096 6.94537C12.5874 6.76755 12.8021 6.67863 13.0536 6.67863ZM13.0536 9.71437C13.3051 9.71437 13.5197 9.80325 13.6975 9.9811C13.8754 10.1589 13.9643 10.3736 13.9643 10.6251C13.9643 10.8765 13.8754 11.0912 13.6975 11.2691C13.5197 11.4468 13.3051 11.5358 13.0536 11.5358C12.8021 11.5358 12.5874 11.4468 12.4096 11.2691C12.2317 11.0912 12.1429 10.8765 12.1429 10.6251C12.1429 10.3736 12.2317 10.1589 12.4096 9.9811C12.5874 9.80325 12.8021 9.71437 13.0536 9.71437ZM10.0179 6.67863C10.2694 6.67863 10.484 6.76755 10.6618 6.94537C10.8397 7.12319 10.9286 7.33786 10.9286 7.58934C10.9286 7.84083 10.8397 8.05549 10.6618 8.23334C10.484 8.41111 10.2694 8.50008 10.0179 8.50008C9.76634 8.50008 9.55173 8.41111 9.37388 8.23334C9.19603 8.05549 9.10714 7.84083 9.10714 7.58934C9.10714 7.33786 9.19603 7.1232 9.37388 6.94537C9.55173 6.76755 9.76634 6.67863 10.0179 6.67863ZM10.0179 9.71437C10.2694 9.71437 10.484 9.80325 10.6618 9.9811C10.8397 10.1589 10.9286 10.3736 10.9286 10.6251C10.9286 10.8765 10.8397 11.0912 10.6618 11.2691C10.484 11.4468 10.2694 11.5358 10.0179 11.5358C9.76634 11.5358 9.55173 11.4468 9.37388 11.2691C9.19603 11.0912 9.10714 10.8765 9.10714 10.6251C9.10714 10.3736 9.19603 10.1589 9.37388 9.9811C9.55173 9.80325 9.76634 9.71437 10.0179 9.71437ZM10.0179 12.7501C10.2694 12.7501 10.484 12.839 10.6618 13.0168C10.8397 13.1946 10.9286 13.4093 10.9286 13.6608C10.9286 13.9122 10.8397 14.1269 10.6618 14.3048C10.484 14.4825 10.2694 14.5715 10.0179 14.5715C9.76634 14.5715 9.55173 14.4825 9.37388 14.3048C9.19603 14.1269 9.10714 13.9122 9.10714 13.6608C9.10714 13.4093 9.19603 13.1946 9.37388 13.0168C9.55173 12.839 9.76634 12.7501 10.0179 12.7501ZM6.98214 9.71437C7.23363 9.71437 7.44828 9.80325 7.62611 9.9811C7.80394 10.1589 7.89286 10.3736 7.89286 10.6251C7.89286 10.8765 7.80394 11.0912 7.62611 11.2691C7.44828 11.4468 7.23363 11.5358 6.98214 11.5358C6.73066 11.5358 6.516 11.4468 6.33817 11.2691C6.16034 11.0912 6.07143 10.8765 6.07143 10.6251C6.07143 10.3736 6.16035 10.1589 6.33817 9.9811C6.516 9.80325 6.73066 9.71437 6.98214 9.71437ZM6.98214 12.7501C7.23363 12.7501 7.44828 12.839 7.62611 13.0168C7.80394 13.1946 7.89286 13.4093 7.89286 13.6608C7.89286 13.9122 7.80394 14.1269 7.62611 14.3048C7.44828 14.4825 7.23363 14.5715 6.98214 14.5715C6.73066 14.5715 6.516 14.4825 6.33817 14.3048C6.16034 14.1269 6.07143 13.9122 6.07143 13.6608C6.07143 13.4093 6.16035 13.1946 6.33817 13.0168C6.516 12.839 6.73066 12.7501 6.98214 12.7501ZM3.94643 9.71437C4.19792 9.71437 4.41258 9.80325 4.5904 9.9811C4.76822 10.1589 4.85714 10.3736 4.85714 10.6251C4.85714 10.8765 4.76822 11.0912 4.5904 11.2691C4.41258 11.4468 4.19792 11.5358 3.94643 11.5358C3.69494 11.5358 3.48028 11.4468 3.30245 11.2691C3.12462 11.0912 3.03571 10.8765 3.03571 10.6251C3.03571 10.3736 3.12463 10.1589 3.30245 9.9811C3.48029 9.80325 3.69494 9.71437 3.94643 9.71437ZM3.94643 12.7501C4.19792 12.7501 4.41258 12.839 4.5904 13.0168C4.76822 13.1946 4.85714 13.4093 4.85714 13.6608C4.85714 13.9122 4.76822 14.1269 4.5904 14.3048C4.41258 14.4825 4.19792 14.5715 3.94643 14.5715C3.69494 14.5715 3.48028 14.4825 3.30245 14.3048C3.12462 14.1269 3.03571 13.9122 3.03571 13.6608C3.03571 13.4093 3.12463 13.1946 3.30245 13.0168C3.48029 12.839 3.69494 12.7501 3.94643 12.7501Z" fill="#862633"/>
</svg>
