<svg width="27" height="27" viewBox="0 0 27 27" fill="none" xmlns="http://www.w3.org/2000/svg">
<path d="M1 24.8409C1 25.4773 1.51136 25.9886 2.14773 25.9886H16.9091C17.5455 25.9886 18.0568 25.4773 18.0568 24.8409V23.7273H1V24.8409ZM9.52273 10.0795C5.26136 10.0795 1 12.3636 1 16.9091H18.0455C18.0455 12.3636 13.7841 10.0795 9.52273 10.0795ZM3.97727 14.6364C5.23864 12.875 7.92045 12.3523 9.52273 12.3523C11.125 12.3523 13.8068 12.875 15.0682 14.6364H3.97727ZM1 19.1818H18.0455V21.4545H1V19.1818ZM20.3182 5.54545V1H18.0455V5.54545H12.3636L12.625 7.81818H23.4886L21.8977 23.7273H20.3182V26H22.2727C23.2273 26 24.0114 25.2614 24.125 24.3295L26 5.54545H20.3182Z" fill="#F97316" stroke="#FFEDD5" stroke-width="0.4"/>
</svg>
