<svg width="21" height="17" viewBox="0 0 21 17" fill="none" xmlns="http://www.w3.org/2000/svg">
<path fill-rule="evenodd" clip-rule="evenodd" d="M18.75 3H15.9844C15.8438 3 15.6694 2.90906 15.5334 2.76562L14.3175 0.846562C14.3079 0.831334 14.2977 0.816484 14.287 0.802011C14.2763 0.787538 14.265 0.773482 14.2533 0.759844C13.8333 0.27 13.2656 0 12.6562 0H8.34375C7.73438 0 7.16672 0.27 6.74672 0.759844C6.73496 0.773482 6.72372 0.787538 6.713 0.802011C6.70228 0.816484 6.69211 0.831334 6.6825 0.846562L5.46656 2.76844C5.3625 2.88187 5.21625 3.00281 5.0625 3.00281V2.62781C5.0625 2.42071 4.98928 2.24393 4.84283 2.09748C4.69638 1.95104 4.51961 1.87781 4.3125 1.87781H3.1875C2.98039 1.87781 2.80362 1.95104 2.65717 2.09748C2.51072 2.24393 2.4375 2.42071 2.4375 2.62781V3.00281H2.25C1.62895 3.00346 1.09885 3.22336 0.659695 3.66251C0.220544 4.10166 0.000645984 4.63176 0 5.25281V14.25C0.000645656 14.8711 0.220544 15.4012 0.659695 15.8403C1.09885 16.2795 1.62895 16.4994 2.25 16.5H18.75C19.3711 16.4994 19.9012 16.2795 20.3403 15.8403C20.7795 15.4012 20.9994 14.8711 21 14.25V5.25C20.9994 4.62895 20.7795 4.09885 20.3403 3.65969C19.9012 3.22054 19.3711 3.00065 18.75 3Z" fill="black"/>
<path fill-rule="evenodd" clip-rule="evenodd" d="M13.3519 12.4828C12.7283 12.9928 12.0189 13.3124 11.2237 13.4416C10.4285 13.5708 9.65442 13.4922 8.9014 13.2059C8.14839 12.9196 7.51763 12.4641 7.00912 11.8392C6.50062 11.2144 6.1827 10.5042 6.05537 9.70877C5.89052 9.7647 5.72613 9.7634 5.56219 9.70487C5.39825 9.64634 5.27021 9.54323 5.17806 9.39554C5.08592 9.24786 5.0496 9.08752 5.06909 8.91454C5.08859 8.74156 5.15969 8.59333 5.2824 8.46986L6.2199 7.53236C6.36632 7.38603 6.54304 7.31287 6.75005 7.31287C6.95706 7.31287 7.13378 7.38603 7.28021 7.53236L8.21771 8.46986C8.32488 8.57711 8.39325 8.70509 8.42281 8.8538C8.45237 9.00251 8.43815 9.1469 8.38013 9.28698C8.32212 9.42707 8.23009 9.53924 8.10405 9.62351C7.97801 9.70778 7.83917 9.74995 7.68755 9.75002C7.67188 9.74983 7.65622 9.74919 7.64058 9.7481C7.62495 9.747 7.60935 9.74545 7.5938 9.74346C7.86674 10.8066 8.52474 11.509 9.5678 11.8507C10.6109 12.1924 11.5569 12.0154 12.406 11.3199C12.5665 11.1879 12.7501 11.1323 12.9568 11.153C13.1636 11.1736 13.3325 11.2645 13.4637 11.4256C13.595 11.5866 13.6498 11.7705 13.6282 11.9771C13.6066 12.1838 13.515 12.3523 13.3533 12.4828H13.3519Z" fill="white"/>
<path fill-rule="evenodd" clip-rule="evenodd" d="M15.7176 9.52967L14.7801 10.4672C14.6337 10.6135 14.457 10.6867 14.25 10.6867C14.043 10.6867 13.8662 10.6135 13.7198 10.4672L12.7823 9.52967C12.67 9.41699 12.6005 9.2822 12.5739 9.12531C12.5474 8.96842 12.5686 8.81828 12.6376 8.67489C12.7066 8.5315 12.8107 8.42125 12.9499 8.34412C13.0891 8.26699 13.2377 8.23717 13.3959 8.25467C13.1232 7.18921 12.464 6.48625 11.4182 6.1458C10.3725 5.80535 9.42575 5.98549 8.5781 6.68624C8.41935 6.8267 8.23431 6.88871 8.02299 6.87228C7.81166 6.85586 7.63843 6.76599 7.50329 6.60269C7.36816 6.43939 7.31229 6.25241 7.33569 6.04174C7.3591 5.83107 7.45464 5.6609 7.62231 5.53124C8.24509 5.01626 8.95507 4.69254 9.75226 4.56006C10.5494 4.42758 11.326 4.50428 12.0818 4.79015C12.8377 5.07602 13.4706 5.53239 13.9806 6.15925C14.4906 6.78611 14.8087 7.49865 14.9348 8.29686C15.0998 8.23807 15.2651 8.23717 15.4307 8.29418C15.5963 8.35118 15.726 8.45362 15.8199 8.60151C15.9137 8.74939 15.9511 8.91039 15.9322 9.0845C15.9132 9.25862 15.842 9.40779 15.7186 9.53202L15.7176 9.52967Z" fill="white"/>
</svg>
