<svg width="18" height="18" viewBox="0 0 18 18" fill="none" xmlns="http://www.w3.org/2000/svg">
<g clip-path="url(#clip0_1087_3839)">
<mask id="mask0_1087_3839" style="mask-type:luminance" maskUnits="userSpaceOnUse" x="0" y="0" width="19" height="18">
<rect x="0.580803" y="0.161255" width="17.4194" height="17.4194" fill="white"/>
</mask>
<g mask="url(#mask0_1087_3839)">
<path fill-rule="evenodd" clip-rule="evenodd" d="M9.29046 0.433716C4.63044 0.433716 0.852961 4.2112 0.852961 8.87122C0.852961 13.5312 4.63044 17.3087 9.29046 17.3087C13.9505 17.3087 17.728 13.5312 17.728 8.87122C17.728 4.2112 13.9505 0.433716 9.29046 0.433716ZM9.29056 15.1312C5.83085 15.1312 3.03048 12.3315 3.03048 8.87108C3.03048 5.41137 5.83017 2.611 9.29056 2.611C12.7503 2.611 15.5506 5.41069 15.5506 8.87108C15.5506 12.3308 12.751 15.1312 9.29056 15.1312ZM9.29057 4.51618C6.88554 4.51618 4.93573 6.46599 4.93573 8.87102C4.93573 11.276 6.88554 13.2259 9.29057 13.2259C11.6956 13.2259 13.6454 11.276 13.6454 8.87102C13.6454 6.46599 11.6956 4.51618 9.29057 4.51618ZM9.29053 11.0483C8.08989 11.0483 7.11311 10.0716 7.11311 8.87091C7.11311 7.67027 8.08989 6.69349 9.29053 6.69349C10.4912 6.69349 11.468 7.67027 11.468 8.87091C11.468 10.0716 10.4912 11.0483 9.29053 11.0483Z" fill="#8B1D3F"/>
</g>
</g>
<defs>
<clipPath id="clip0_1087_3839">
<rect width="17.4194" height="17.4194" fill="white" transform="translate(0.580803 0.161255)"/>
</clipPath>
</defs>
</svg>
