<svg width="18" height="18" viewBox="0 0 18 18" fill="none" xmlns="http://www.w3.org/2000/svg">
<path d="M8.99984 0.666626C7.90549 0.666626 6.82185 0.882174 5.81081 1.30096C4.79976 1.71975 3.8811 2.33358 3.10728 3.1074C1.54448 4.67021 0.666504 6.78982 0.666504 8.99996C0.666504 11.2101 1.54448 13.3297 3.10728 14.8925C3.8811 15.6663 4.79976 16.2802 5.81081 16.699C6.82185 17.1177 7.90549 17.3333 8.99984 17.3333C11.21 17.3333 13.3296 16.4553 14.8924 14.8925C16.4552 13.3297 17.3332 11.2101 17.3332 8.99996C17.3332 7.90561 17.1176 6.82198 16.6988 5.81093C16.28 4.79988 15.6662 3.88122 14.8924 3.1074C14.1186 2.33358 13.1999 1.71975 12.1889 1.30096C11.1778 0.882174 10.0942 0.666626 8.99984 0.666626ZM12.4998 12.5L8.1665 9.83329V4.83329H9.4165V9.16662L13.1665 11.4166L12.4998 12.5Z" fill="#862633"/>
</svg>
