<svg width="17" height="16" viewBox="0 0 17 16" fill="none" xmlns="http://www.w3.org/2000/svg">
<path d="M3.33082 12.4001C1.89489 12.4001 0.730835 11.236 0.730835 9.80008V3.00013C0.730835 1.5642 1.89489 0.400146 3.33082 0.400146H14.1307C15.5667 0.400146 16.7307 1.5642 16.7307 3.00013V9.80008C16.7307 11.236 15.5667 12.4001 14.1307 12.4001H9.54076L5.52974 15.4006C5.08748 15.7314 4.4608 15.641 4.13002 15.1987C4.0007 15.0258 3.93081 14.8157 3.93081 14.6L3.93018 12.4001H3.33082ZM9.14158 11.2001H14.1307C14.9039 11.2001 15.5307 10.5733 15.5307 9.80008V3.00013C15.5307 2.22693 14.9039 1.60014 14.1307 1.60014H3.33082C2.55762 1.60014 1.93083 2.22693 1.93083 3.00013V9.80008C1.93083 10.5733 2.55762 11.2001 3.33082 11.2001H5.12983L5.13 11.7999L5.13069 14.2005L9.14158 11.2001Z" fill="#9CA3AF"/>
</svg>
