<svg width="17" height="17" viewBox="0 0 17 17" fill="none" xmlns="http://www.w3.org/2000/svg">
<path d="M16.15 1.7H13.6V0.85C13.6 0.624566 13.5104 0.408365 13.351 0.248959C13.1916 0.0895533 12.9754 0 12.75 0H4.25C4.02457 0 3.80837 0.0895533 3.64896 0.248959C3.48955 0.408365 3.4 0.624566 3.4 0.85V1.7H0.85C0.624566 1.7 0.408365 1.78955 0.248959 1.94896C0.0895533 2.10837 0 2.32457 0 2.55V5.1C0 8.7635 1.52915 10.9735 4.09615 11.0602C4.47194 11.706 4.98503 12.2614 5.59914 12.6871C6.21325 13.1127 6.91337 13.3983 7.65 13.5235V15.3H5.95V17H11.05V15.3H9.35V13.5235C10.0865 13.3978 10.7864 13.112 11.4004 12.6864C12.0144 12.2608 12.5276 11.7057 12.9039 11.0602C15.4708 10.9735 17 8.7635 17 5.1V2.55C17 2.32457 16.9104 2.10837 16.751 1.94896C16.5916 1.78955 16.3754 1.7 16.15 1.7ZM1.7 5.1V3.4H3.4V9.2055C1.8836 8.5663 1.7 6.20415 1.7 5.1ZM13.6 9.2055V3.4H15.3V5.1C15.3 6.20415 15.1164 8.5663 13.6 9.2055Z" fill="#862633"/>
</svg>
