<svg width="31" height="26" viewBox="0 0 31 26" fill="none" xmlns="http://www.w3.org/2000/svg">
<path d="M6.02079 6.66665C6.02079 5.69971 6.40491 4.77238 7.08863 4.08865C7.77236 3.40493 8.69969 3.02081 9.66663 3.02081C10.6336 3.02081 11.5609 3.40493 12.2446 4.08865C12.9283 4.77238 13.3125 5.69971 13.3125 6.66665C13.3125 7.63358 12.9283 8.56091 12.2446 9.24464C11.5609 9.92837 10.6336 10.3125 9.66663 10.3125C8.69969 10.3125 7.77236 9.92837 7.08863 9.24464C6.40491 8.56091 6.02079 7.63358 6.02079 6.66665ZM9.66663 0.833313C8.11953 0.833313 6.6358 1.44789 5.54184 2.54186C4.44787 3.63582 3.83329 5.11955 3.83329 6.66665C3.83329 8.21374 4.44787 9.69747 5.54184 10.7914C6.6358 11.8854 8.11953 12.5 9.66663 12.5C11.2137 12.5 12.6975 11.8854 13.7914 10.7914C14.8854 9.69747 15.5 8.21374 15.5 6.66665C15.5 5.11955 14.8854 3.63582 13.7914 2.54186C12.6975 1.44789 11.2137 0.833313 9.66663 0.833313ZM20.6041 8.12498C20.6041 7.54482 20.8346 6.98842 21.2448 6.57818C21.6551 6.16795 22.2115 5.93748 22.7916 5.93748C23.3718 5.93748 23.9282 6.16795 24.3384 6.57818C24.7487 6.98842 24.9791 7.54482 24.9791 8.12498C24.9791 8.70514 24.7487 9.26154 24.3384 9.67178C23.9282 10.082 23.3718 10.3125 22.7916 10.3125C22.2115 10.3125 21.6551 10.082 21.2448 9.67178C20.8346 9.26154 20.6041 8.70514 20.6041 8.12498ZM22.7916 3.74998C21.6313 3.74998 20.5185 4.21092 19.698 5.03139C18.8776 5.85186 18.4166 6.96466 18.4166 8.12498C18.4166 9.2853 18.8776 10.3981 19.698 11.2186C20.5185 12.039 21.6313 12.5 22.7916 12.5C23.9519 12.5 25.0647 12.039 25.8852 11.2186C26.7057 10.3981 27.1666 9.2853 27.1666 8.12498C27.1666 6.96466 26.7057 5.85186 25.8852 5.03139C25.0647 4.21092 23.9519 3.74998 22.7916 3.74998ZM18.7783 22.7637C19.8035 23.1794 21.1175 23.4375 22.7931 23.4375C26.121 23.4375 28.0227 22.421 29.0595 21.1654C29.5627 20.5558 29.8179 19.9404 29.9491 19.4694C30.0242 19.1965 30.0697 18.9163 30.0848 18.6337V18.5944C30.0844 17.7517 29.7494 16.9437 29.1536 16.3478C28.5577 15.7519 27.7497 15.417 26.907 15.4166H18.6791C18.6383 15.4166 18.5984 15.4176 18.5595 15.4196C19.1341 16.0175 19.5512 16.7685 19.7495 17.6041H26.907C27.4495 17.6041 27.89 18.0402 27.8973 18.5798L27.8929 18.6264C27.887 18.6828 27.8691 18.7703 27.8389 18.8889C27.7488 19.2133 27.5896 19.5142 27.3723 19.7712C26.8618 20.3925 25.6631 21.25 22.7931 21.25C21.3639 21.25 20.3489 21.0371 19.6285 20.7469C19.471 21.3302 19.2114 22.0346 18.7783 22.7637ZM4.19788 15.4166C3.32763 15.4166 2.49304 15.7623 1.87768 16.3777C1.26233 16.9931 0.916626 17.8277 0.916626 18.6979V19.1033C0.918154 19.2047 0.924968 19.306 0.937043 19.4066C1.05826 20.4916 1.44823 21.5292 2.07163 22.4254C3.26454 24.1287 5.54246 25.625 9.66663 25.625C13.7908 25.625 16.0687 24.1302 17.2616 22.4239C17.885 21.5277 18.275 20.4901 18.3962 19.4052C18.4065 19.3048 18.4133 19.2041 18.4166 19.1033V18.6979C18.4166 17.8277 18.0709 16.9931 17.4556 16.3777C16.8402 15.7623 16.0056 15.4166 15.1354 15.4166H4.19788ZM3.10413 19.0727V18.6979C3.10413 18.4078 3.21936 18.1296 3.42448 17.9245C3.6296 17.7194 3.9078 17.6041 4.19788 17.6041H15.1354C15.4255 17.6041 15.7037 17.7194 15.9088 17.9245C16.1139 18.1296 16.2291 18.4078 16.2291 18.6979V19.0727L16.2189 19.1894C16.135 19.9009 15.8776 20.581 15.4693 21.1698C14.7504 22.1979 13.1987 23.4375 9.66663 23.4375C6.13454 23.4375 4.58288 22.1979 3.86246 21.1698C3.45472 20.5808 3.19782 19.9008 3.11433 19.1894L3.10413 19.0727Z" fill="#862633"/>
</svg>
