<svg width="35" height="37" viewBox="0 0 35 37" fill="none" xmlns="http://www.w3.org/2000/svg">
<path d="M16.9622 2.02389C17.2175 2.02389 17.4853 1.81683 17.4853 1.5615V0.462389C17.4853 0.207134 17.2175 0 16.9622 0C16.707 0 16.4392 0.207059 16.4392 0.462389V1.5615C16.4392 1.81675 16.707 2.02389 16.9622 2.02389Z" fill="#862633"/>
<path d="M20.6961 3.48335C20.8144 3.48335 20.9327 3.43814 21.023 3.34788L21.8003 2.5706C21.9808 2.38992 21.9808 2.09715 21.8003 1.91677C21.6196 1.73624 21.3271 1.73624 21.1464 1.91677L20.3692 2.69405C20.1886 2.87458 20.1886 3.16734 20.3692 3.34788C20.4595 3.43814 20.5777 3.48335 20.6961 3.48335Z" fill="#862633"/>
<path d="M13.0043 3.47961C13.0947 3.56995 13.2129 3.61509 13.3313 3.61509C13.4496 3.61509 13.5678 3.56995 13.6582 3.47961C13.8389 3.29923 13.8389 3.00646 13.6582 2.82578L12.8809 2.04866C12.7004 1.86798 12.4077 1.86798 12.2272 2.04866C12.0465 2.22904 12.0465 2.52181 12.2272 2.70234L13.0043 3.47961Z" fill="#862633"/>
<path d="M10.8213 8.47448C10.7419 8.07239 10.7015 7.65402 10.7015 7.23101C10.7015 6.76249 10.7529 6.29592 10.8541 5.84421C10.91 5.59523 10.7534 5.34783 10.5041 5.29193C10.2569 5.23694 10.0077 5.39251 9.95171 5.64194C9.83566 6.15992 9.7767 6.69464 9.7767 7.23101C9.7767 7.71409 9.82296 8.19277 9.91434 8.65397C9.95783 8.87418 10.1511 9.02669 10.3674 9.02669C10.397 9.02669 10.4272 9.02377 10.4576 9.01765C10.7081 8.96833 10.871 8.72495 10.8213 8.47448Z" fill="#862633"/>
<path d="M23.2898 9.82881C23.0615 9.715 22.7836 9.80841 22.67 10.0371C21.5949 12.2004 19.4277 13.5447 17.0138 13.5454C14.5999 13.5447 12.4327 12.2004 11.3577 10.0371C11.2439 9.80833 10.9659 9.71493 10.7379 9.82881C10.5092 9.94239 10.4159 10.1967 10.5295 10.4256C11.7614 12.9046 14.2441 14.4242 17.0102 14.4242C17.0107 14.4242 17.0113 14.4242 17.0117 14.4242C17.013 14.4242 17.0146 14.4242 17.016 14.4242C17.0166 14.4242 17.017 14.4242 17.0175 14.4242C19.7836 14.4242 22.2665 12.9046 23.4982 10.4256C23.6117 10.1967 23.5185 9.94239 23.2898 9.82881Z" fill="#862633"/>
<path d="M24.1107 8.65469C24.2037 8.18872 24.2508 7.70981 24.2508 7.23099C24.2508 6.6935 24.1913 6.15683 24.0743 5.63609C24.0182 5.38681 23.7706 5.22989 23.5217 5.28653C23.2727 5.34242 23.1161 5.58983 23.1721 5.83896C23.2743 6.29328 23.3261 6.76165 23.3261 7.23099C23.3261 7.64899 23.2848 8.06722 23.2037 8.47371C23.1538 8.72419 23.3163 8.96756 23.5667 9.01763C23.5972 9.02375 23.6276 9.02667 23.6577 9.02667C23.8736 9.02674 24.0666 8.87445 24.1107 8.65469Z" fill="#862633"/>
<path d="M21.4808 16.0682H12.4773C12.2 16.0682 11.881 16.3959 11.881 16.6751V16.8432V35.7553C11.881 36.0327 12.2001 36.2435 12.4773 36.2435H21.4807C21.758 36.2435 21.9686 36.0327 21.9686 35.7553V16.8432V16.6751C21.9687 16.3959 21.7581 16.0682 21.4808 16.0682Z" fill="#862633"/>
<path d="M13.4758 6.81935L15.1255 8.04728C15.2478 8.13613 15.2989 8.30822 15.2523 8.45199L14.6221 10.3988C14.5178 10.7201 14.8855 10.9911 15.1589 10.7925L16.8087 9.59548C16.931 9.50663 17.0965 9.50753 17.2187 9.59638L18.8685 10.7956C19.1418 10.9942 19.5096 10.7271 19.4052 10.4058L18.7751 8.46648C18.7284 8.32271 18.7796 8.16535 18.9017 8.07658L20.5516 6.81928C20.8251 6.62066 20.6844 6.12988 20.3466 6.12988H18.3073C18.1563 6.12988 18.0223 6.09102 17.9756 5.94725L17.3454 4.0371C17.2411 3.71556 16.7865 3.73028 16.6819 4.05167L16.0519 5.93993C16.005 6.0837 15.871 6.12988 15.72 6.12988H13.6806C13.3428 6.12995 13.2024 6.62074 13.4758 6.81935Z" fill="#862633"/>
<path d="M10.0877 26.3614C10.0877 26.0828 9.86186 25.857 9.58329 25.857H0.504384C0.225814 25.857 0 26.0828 0 26.3614V35.8139C0 36.0925 0.225814 36.3183 0.504384 36.3183H9.58329C9.86186 36.3183 10.0877 36.0925 10.0877 35.8139V26.3614Z" fill="#862633"/>
<path d="M4.04702 20.2823C4.12466 20.3388 4.15709 20.4386 4.12742 20.5298L3.90953 21.2002C3.8434 21.4041 4.07661 21.5735 4.25004 21.4476L4.82041 21.0333C4.89805 20.9769 5.00296 20.9769 5.08045 21.0333L5.65081 21.4476C5.82417 21.5736 6.05738 21.4041 5.99133 21.2002L5.77343 20.5298C5.74384 20.4386 5.7762 20.3388 5.85369 20.2823L6.4242 19.8495C6.59756 19.7238 6.50841 19.4307 6.29418 19.4307H5.58909C5.49337 19.4307 5.40826 19.3875 5.37882 19.2965L5.16092 18.6353C5.09479 18.4314 4.80629 18.4359 4.74016 18.6399L4.52226 19.2941C4.49267 19.3853 4.40756 19.4307 4.31169 19.4307H3.6069C3.39267 19.4307 3.30345 19.7238 3.47688 19.8495L4.04702 20.2823Z" fill="#862633"/>
<path d="M4.95043 24.2133C7.20192 24.2133 9.03354 22.3816 9.03354 20.1303C9.03354 17.8789 7.20192 16.0472 4.95043 16.0472C2.69908 16.0472 0.86731 17.879 0.86731 20.1304C0.86731 22.3817 2.69908 24.2133 4.95043 24.2133ZM4.95043 16.9719C6.69477 16.9719 8.10884 18.386 8.10884 20.1304C8.10884 21.8747 6.69477 23.2886 4.95043 23.2886C3.20623 23.2886 1.79201 21.8747 1.79201 20.1304C1.79201 18.386 3.20623 16.9719 4.95043 16.9719Z" fill="#862633"/>
<path d="M34.0739 26.3614C34.0739 26.0828 33.8481 25.857 33.5695 25.857H24.4906C24.2121 25.857 23.9862 26.0828 23.9862 26.3614V35.8139C23.9862 36.0925 24.2121 36.3183 24.4906 36.3183H33.5695C33.8481 36.3183 34.0739 36.0925 34.0739 35.8139V26.3614Z" fill="#862633"/>
<path d="M28.1042 20.2823C28.1818 20.3388 28.2142 20.4386 28.1846 20.5298L27.9668 21.2002C27.9006 21.4041 28.1339 21.5735 28.3074 21.4476L28.8776 21.0333C28.9552 20.9769 29.0601 20.9769 29.1376 21.0333L29.708 21.4476C29.8813 21.5736 30.1147 21.4041 30.0486 21.2002L29.8307 20.5298C29.801 20.4386 29.8335 20.3388 29.911 20.2823L30.4814 19.8495C30.6547 19.7238 30.5656 19.4307 30.3513 19.4307H29.6462C29.5504 19.4307 29.4656 19.3875 29.436 19.2965L29.2181 18.6353C29.152 18.4314 28.8634 18.4359 28.7973 18.6399L28.5794 19.2941C28.5498 19.3853 28.4649 19.4307 28.369 19.4307H27.6641C27.4498 19.4307 27.3606 19.7238 27.534 19.8495L28.1042 20.2823Z" fill="#862633"/>
<path d="M29.0076 24.2132C31.2591 24.2132 33.0908 22.3816 33.0908 20.1302C33.0908 17.8789 31.2591 16.0471 29.0076 16.0471C26.7562 16.0471 24.9244 17.8789 24.9244 20.1302C24.9244 22.3816 26.7562 24.2132 29.0076 24.2132ZM29.0076 16.9719C30.7519 16.9719 32.1661 18.386 32.1661 20.1303C32.1661 21.8747 30.7519 23.2886 29.0076 23.2886C27.2634 23.2886 25.8491 21.8747 25.8491 20.1303C25.8491 18.386 27.2634 16.9719 29.0076 16.9719Z" fill="#862633"/>
</svg>
