<svg width="14" height="14" viewBox="0 0 14 14" fill="none" xmlns="http://www.w3.org/2000/svg">
<path d="M12.6 0H4.20005C3.42795 0 2.80005 0.627899 2.80005 1.4V9.79998C2.80005 10.5721 3.42795 11.2 4.20005 11.2H12.6C13.3721 11.2 14 10.5721 14 9.79998V1.4C14 0.627899 13.3721 0 12.6 0ZM4.20005 9.79998V1.4H12.6L12.6014 9.79998H4.20005Z" fill="black"/>
<path d="M1.4 4.89995C1.4 4.51335 1.0866 4.19995 0.699999 4.19995C0.3134 4.19995 0 4.51335 0 4.89995V12.5999C0 13.372 0.627899 13.9999 1.4 13.9999H9.09998C9.48658 13.9999 9.79998 13.6865 9.79998 13.2999C9.79998 12.9133 9.48658 12.5999 9.09998 12.5999H1.4V4.89995Z" fill="black"/>
</svg>
