<svg width="22" height="21" viewBox="0 0 22 21" fill="none" xmlns="http://www.w3.org/2000/svg">
<path d="M16.94 0C15.4119 0 13.365 0.802773 12.32 1.43182C14.5508 1.43182 14.5468 4.29545 16.94 4.29545C18.033 4.29545 18.92 3.33375 18.92 2.14773C18.92 0.961705 18.033 0 16.94 0ZM11.8938 2.43111C11.272 2.43111 10.1922 3.31001 9.24 4.07173C8.07312 5.00576 7.16012 5.78371 6.6 6.27912C6.3294 6.51966 5.72 7.20026 5.72 8.30753C5.72 9.41528 7.30268 10.3068 8.14 10.8729C9.0156 11.4642 10.3813 12.3793 10.3813 12.3793L9.7625 17.4503C9.7625 17.4503 9.75392 18.452 10.56 18.5689C11.3665 18.6858 11.6187 17.7635 11.6187 17.7635C11.6187 17.7635 12.4154 13.1161 12.5262 12.3643C12.6411 11.5907 12.8124 11.0756 11.99 10.4403C11.1791 9.81368 9.7625 8.97869 9.7625 8.97869C9.7625 8.97869 12.4576 6.71606 12.6362 6.60724C12.8391 6.48315 13.0109 6.25836 13.2137 6.54759C13.4227 6.84445 14.6575 8.56132 14.7675 8.71023C14.8775 8.85914 15.0334 9.06496 15.5512 9.20241C16.2544 9.38903 19.0703 10.1091 19.4425 10.2017C20.0132 10.3435 20.4496 10.1142 20.5837 9.64986C20.7281 9.15015 20.3842 8.59103 19.7862 8.42685C19.1883 8.26266 16.4312 7.60653 16.4312 7.60653C16.4312 7.60653 13.8241 3.9128 13.4475 3.29616C13.0555 2.65519 12.5027 2.43111 11.8938 2.43111ZM4.4 11.4545C1.97516 11.4545 0 13.597 0 16.2273C0 18.8575 1.97516 21 4.4 21C6.82484 21 8.8 18.8575 8.8 16.2273C8.8 13.597 6.82484 11.4545 4.4 11.4545ZM17.6 11.4545C15.1752 11.4545 13.2 13.597 13.2 16.2273C13.2 18.8575 15.1752 21 17.6 21C20.0248 21 22 18.8575 22 16.2273C22 13.597 20.0248 11.4545 17.6 11.4545ZM4.4 12.4091C6.34925 12.4091 7.92 14.1129 7.92 16.2273C7.92 18.3417 6.34925 20.0455 4.4 20.0455C2.45075 20.0455 0.88 18.3417 0.88 16.2273C0.88 14.1129 2.45075 12.4091 4.4 12.4091ZM17.6 12.4091C19.5493 12.4091 21.12 14.1129 21.12 16.2273C21.12 18.3417 19.5493 20.0455 17.6 20.0455C15.6507 20.0455 14.08 18.3417 14.08 16.2273C14.08 14.1129 15.6507 12.4091 17.6 12.4091Z" fill="#00B844"/>
</svg>
