<svg width="23" height="27" viewBox="0 0 23 27" fill="none" xmlns="http://www.w3.org/2000/svg">
<path fill-rule="evenodd" clip-rule="evenodd" d="M14.7338 2.22389C16.4058 9.38152 22.9995 14.5853 22.9995 18.8077C22.9995 29.0448 8.00458 29.5321 6.58617 20.2589C6.1854 20.2092 5.78928 20.1273 5.40161 20.0141C4.59189 19.782 3.83281 19.4002 3.16362 18.8886C1.61626 17.6931 0.90815 16.2747 0.781389 14.7776C0.632773 13.0423 1.28188 11.2283 2.28941 9.54106C2.67406 8.89851 3.02593 8.3412 3.38218 7.76859C4.7678 5.58306 6.33046 3.12651 6.94023 0.488575C6.97198 0.353894 7.04829 0.233885 7.15678 0.147998C7.26528 0.0621113 7.3996 0.0153809 7.53797 0.0153809C7.67634 0.0153809 7.81066 0.0621113 7.91915 0.147998C8.02765 0.233885 8.10396 0.353894 8.13571 0.488575C8.74985 3.11122 10.3103 5.57431 11.6938 7.75548L12.0915 8.38273C13.2171 6.50317 14.2181 4.46406 14.7338 2.22389ZM6.48345 19.0044C6.48345 18.9389 6.48345 18.8755 6.48345 18.8077C6.48345 16.1632 9.0449 13.1647 11.3769 9.54106C11.1583 9.187 10.9135 8.80235 10.6666 8.41114C9.56287 6.67364 8.35208 4.76348 7.54999 2.68941C6.74353 4.77659 5.52837 6.68675 4.42468 8.42644C4.01598 9.0668 3.62477 9.68312 3.33191 10.1749C2.45769 11.6588 1.87634 13.2346 2.00092 14.6858C2.10145 15.8529 2.66751 16.9675 3.91545 17.9291C4.46277 18.3445 5.08224 18.655 5.74255 18.8449C5.98428 18.9164 6.23027 18.9726 6.47908 19.0132L6.48345 19.0044Z" fill="#3B82F6"/>
</svg>
