<svg width="22" height="27" viewBox="0 0 22 27" fill="none" xmlns="http://www.w3.org/2000/svg">
<path fill-rule="evenodd" clip-rule="evenodd" d="M13.8232 2.22065C15.4772 9.41763 22 14.65 22 18.8957C22 29.189 7.16638 29.6791 5.76323 20.3548C5.36678 20.3048 4.97491 20.2225 4.59142 20.1087C3.79041 19.8753 3.0395 19.4914 2.37751 18.977C0.846799 17.7749 0.146305 16.3487 0.0209076 14.8434C-0.12611 13.0985 0.51601 11.2746 1.5127 9.57805C1.89322 8.93197 2.2413 8.3716 2.59371 7.79584C3.96443 5.59829 5.51028 3.12824 6.11348 0.475796C6.14489 0.340374 6.22038 0.219705 6.32771 0.133346C6.43503 0.0469874 6.56791 0 6.70479 0C6.84168 0 6.97455 0.0469874 7.08188 0.133346C7.1892 0.219705 7.26469 0.340374 7.2961 0.475796C7.90363 3.11286 9.44731 5.5895 10.8159 7.78266L11.2094 8.41335C12.3228 6.52346 13.313 4.47314 13.8232 2.22065ZM5.66162 19.0935C5.66162 19.0275 5.66162 18.9638 5.66162 18.8957C5.66162 16.2366 8.1955 13.2216 10.5024 9.57805C10.2862 9.22205 10.044 8.83528 9.79972 8.44192C8.7079 6.69487 7.51014 4.77421 6.71668 2.68873C5.9189 4.78739 4.71681 6.70805 3.62499 8.4573C3.2207 9.10119 2.8337 9.7209 2.54398 10.2153C1.67918 11.7075 1.10408 13.2919 1.22731 14.7511C1.32677 15.9246 1.88673 17.0453 3.12124 18.0123C3.66268 18.4299 4.27548 18.7421 4.92869 18.933C5.16782 19.005 5.41117 19.0615 5.65729 19.1022L5.66162 19.0935Z" fill="#0CBFAD"/>
</svg>
