<svg width="31" height="22" viewBox="0 0 31 22" fill="none" xmlns="http://www.w3.org/2000/svg">
<path d="M3.43747 3.59149C2.47394 3.59149 1.6923 4.37288 1.6923 5.33678V8.84912C0.7222 9.08748 0 9.95637 0 10.9999C0 12.0436 0.722138 12.9125 1.6923 13.1508V16.6627C1.6923 17.6268 2.47394 18.408 3.43747 18.408C4.40094 18.408 5.1827 17.6268 5.1827 16.6627V5.33678C5.1827 4.37294 4.40094 3.59149 3.43747 3.59149Z" fill="#0074C4"/>
<path d="M20.731 7.62939e-06C19.2999 7.62939e-06 18.1397 1.16013 18.1397 2.59133V8.4086H17.3464H13.5916H12.3753L11.9522 8.39849V2.59133C11.9522 1.16019 10.7921 7.62939e-06 9.36085 7.62939e-06C7.92977 7.62939e-06 6.76953 1.16013 6.76953 2.59133V19.4087C6.76953 20.8399 7.92977 22 9.36085 22C10.7921 22 11.9522 20.8399 11.9522 19.4087V13.6045C11.9522 13.6045 12.2312 13.5914 12.3753 13.5914H13.5916H17.3464H18.1397V19.4087C18.1397 20.8399 19.2999 22 20.731 22C22.1623 22 23.3223 20.8399 23.3223 19.4087V2.59126C23.3224 1.16019 22.1623 7.62939e-06 20.731 7.62939e-06Z" fill="#0074C4"/>
<path d="M28.3995 8.84912V5.33678C28.3995 4.37294 27.6178 3.59149 26.6544 3.59149C25.6909 3.59149 24.9092 4.37288 24.9092 5.33678V16.6627C24.9092 17.6268 25.6909 18.408 26.6544 18.408C27.6178 18.408 28.3995 17.6268 28.3995 16.6627V13.1508C29.3697 12.9125 30.0919 12.0436 30.0919 10.9999C30.0918 9.95631 29.3697 9.08748 28.3995 8.84912Z" fill="#0074C4"/>
</svg>
