<svg width="16" height="19" viewBox="0 0 16 19" fill="none" xmlns="http://www.w3.org/2000/svg">
<path d="M16 10.9397C16 14.9398 13.1397 18.1398 9.76371 19C12.2587 17.4 12.5593 15.5602 11.8923 13.6204C11.5697 14.4001 11.1825 15.1407 10.387 15.5602C10.5592 13.3204 7.61335 11.4204 7.677 8.73978C5.71975 10.1398 5.28958 12.4602 6.55894 15.3398C5.76345 15.2195 4.45134 14.2195 4.43035 13.1C3.22575 15.0399 3.29044 17.0398 5.07548 18.6C2.23711 17.3797 0 14.4602 0 10.9398C0 9.19994 0.537611 7.49997 1.44063 6.03976C1.67752 7.17961 2.34364 8.17957 3.2685 8.89998C3.13914 8.37965 3.0753 7.83981 3.0753 7.27965C3.0753 3.67962 5.84894 0.659204 9.52664 0C7.56939 3.82042 12.6448 7.57965 13.1177 10.9001C13.9778 9.87974 14.4936 8.57965 14.4936 7.17965C14.4936 6.61948 14.4079 6.07964 14.2567 5.57964C15.3328 7.12027 15.9998 9.02026 15.9998 10.9399L16 10.9397Z" fill="#16A34A"/>
</svg>
