<svg width="17" height="13" viewBox="0 0 17 13" fill="none" xmlns="http://www.w3.org/2000/svg">
<g clip-path="url(#clip0_965_18305)">
<path d="M3.33333 1V12.6667H5.83333V7.66667H10.8333V12.6667H13.3333V1H10.8333V6H5.83333V1H3.33333ZM0.833333 9.33333C0.833333 9.56345 0.914692 9.75987 1.07741 9.92259C1.24013 10.0853 1.43655 10.1667 1.66667 10.1667H2.5V3.5H1.66667C1.43655 3.5 1.24013 3.58136 1.07741 3.74408C0.914693 3.9068 0.833333 4.10321 0.833333 4.33333V6H0V7.66667H0.833333V9.33333ZM15.8333 4.33333C15.8333 4.10321 15.752 3.9068 15.5893 3.74408C15.4265 3.58136 15.2301 3.5 15 3.5H14.1667V10.1667H15C15.2301 10.1667 15.4265 10.0853 15.5893 9.92259C15.752 9.75987 15.8333 9.56345 15.8333 9.33333V7.66667H16.6667V6H15.8333V4.33333Z" fill="#862633"/>
</g>
<defs>
<clipPath id="clip0_965_18305">
<rect width="16.667" height="11.6666" fill="white" transform="translate(0 0.666748)"/>
</clipPath>
</defs>
</svg>
