<svg width="16" height="16" viewBox="0 0 16 16" fill="none" xmlns="http://www.w3.org/2000/svg">
<path fill-rule="evenodd" clip-rule="evenodd" d="M13.798 11.9145C12.8405 11.596 11.811 11.358 10.7275 11.204C10.875 10.3375 10.9535 9.4295 10.9785 8.5H14.981C14.8915 9.7605 14.468 10.927 13.798 11.9145ZM9.717 14.7795C10.05 13.975 10.3225 13.1055 10.532 12.1895C11.431 12.3225 12.293 12.519 13.1095 12.777C12.2075 13.7385 11.0365 14.446 9.717 14.7795ZM8.4855 14.9755C8.3245 14.987 8.164 15 8 15C7.836 15 7.676 14.987 7.5145 14.9755C7.089 14.0895 6.7445 13.1035 6.4895 12.057C6.9865 12.0135 7.49 11.988 8 11.988C8.51 11.988 9.0135 12.0135 9.511 12.057C9.2555 13.1035 8.911 14.0895 8.4855 14.9755ZM2.8905 12.777C3.707 12.519 4.569 12.3225 5.468 12.1895C5.6775 13.1055 5.95 13.975 6.283 14.7795C4.9635 14.446 3.793 13.7385 2.8905 12.777ZM2.202 11.9145C1.532 10.927 1.1085 9.7605 1.019 8.5H5.0215C5.0465 9.4295 5.125 10.3375 5.2725 11.204C4.189 11.358 3.1595 11.596 2.202 11.9145ZM2.202 4.08551C3.1595 4.40401 4.189 4.64249 5.2725 4.79599C5.125 5.66249 5.0465 6.5705 5.0215 7.5H1.019C1.1085 6.2395 1.532 5.07301 2.202 4.08551ZM6.283 1.22049C5.95 2.02499 5.6775 2.89449 5.468 3.81049C4.569 3.67799 3.707 3.48099 2.8905 3.22299C3.793 2.26149 4.9635 1.55399 6.283 1.22049ZM7.5145 1.02451C7.676 1.01351 7.836 1 8 1C8.164 1 8.3245 1.01351 8.4855 1.02451C8.911 1.91051 9.2555 2.89699 9.511 3.94299C9.0135 3.98649 8.51 4.01199 8 4.01199C7.49 4.01199 6.9865 3.98649 6.4895 3.94299C6.7445 2.89699 7.089 1.91051 7.5145 1.02451ZM9.977 8.5C9.95 9.3805 9.87 10.2465 9.7195 11.078C9.1565 11.029 8.584 11 8 11C7.416 11 6.8435 11.029 6.281 11.078C6.13 10.2465 6.05 9.3805 6.0235 8.5H9.977ZM6.0235 7.5C6.05 6.6195 6.13 5.7535 6.281 4.922C6.8435 4.971 7.416 5 8 5C8.584 5 9.1565 4.971 9.719 4.922C9.87 5.7535 9.95 6.6195 9.977 7.5H6.0235ZM13.1095 3.22299C12.293 3.48099 11.431 3.67799 10.532 3.81049C10.3225 2.89449 10.05 2.02499 9.717 1.22049C11.0365 1.55399 12.2075 2.26149 13.1095 3.22299ZM13.798 4.08551C14.468 5.07301 14.8915 6.2395 14.981 7.5H10.9785C10.9535 6.5705 10.875 5.66249 10.7275 4.79599C11.811 4.64249 12.8405 4.40401 13.798 4.08551ZM8 0C3.582 0 0 3.5815 0 8C0 12.4185 3.582 16 8 16C12.418 16 16 12.4185 16 8C16 3.5815 12.418 0 8 0Z" fill="#5E6B87"/>
</svg>
