<svg width="31" height="31" viewBox="0 0 31 31" fill="none" xmlns="http://www.w3.org/2000/svg">
<path d="M26.0555 8.71877H23.6517L17.754 14.6139C17.9571 15.1316 17.9758 15.7035 17.8069 16.2333C17.638 16.7632 17.2918 17.2187 16.8265 17.5233C16.3612 17.8279 15.8053 17.963 15.2521 17.9059C14.6989 17.8488 14.1823 17.6029 13.7891 17.2097C13.3958 16.8165 13.15 16.2998 13.0929 15.7467C13.0358 15.1935 13.1709 14.6375 13.4755 14.1723C13.7801 13.707 14.2356 13.3608 14.7655 13.1919C15.2953 13.023 15.8671 13.0416 16.3848 13.2448L22.2813 7.34831V4.94452C22.2814 4.62287 22.4092 4.31441 22.6365 4.08685L24.8711 1.85227C24.9124 1.81065 24.9643 1.78108 25.0212 1.76675C25.0781 1.75241 25.1379 1.75384 25.194 1.7709C25.309 1.80448 25.3942 1.90006 25.4175 2.0176L26.0116 4.98973L28.9825 5.5839C29.0987 5.60715 29.1943 5.6924 29.2279 5.80735C29.2448 5.8632 29.2463 5.92259 29.2322 5.97923C29.2181 6.03586 29.189 6.08761 29.1478 6.12898L26.9119 8.36356C26.6847 8.59058 26.3767 8.71831 26.0555 8.71877Z" fill="#862633"/>
<path d="M3.39062 15.5C3.39062 18.7116 4.66643 21.7917 6.93738 24.0626C9.20833 26.3336 12.2884 27.6094 15.5 27.6094C17.0902 27.6094 18.6649 27.2962 20.1341 26.6876C21.6032 26.0791 22.9382 25.1871 24.0626 24.0626C25.1871 22.9382 26.0791 21.6032 26.6876 20.1341C27.2962 18.6649 27.6094 17.0902 27.6094 15.5C27.6094 14.3401 27.4466 13.2189 27.1431 12.1585C27.0827 11.915 27.1192 11.6576 27.2448 11.4404C27.3704 11.2233 27.5753 11.0633 27.8165 10.9942C28.0576 10.9251 28.3162 10.9522 28.5377 11.0699C28.7593 11.1875 28.9266 11.3865 29.0044 11.625C29.3583 12.8573 29.5469 14.1567 29.5469 15.5C29.5469 23.2578 23.2577 29.5469 15.5 29.5469C7.74225 29.5469 1.45312 23.2578 1.45312 15.5C1.45312 7.74226 7.74225 1.45313 15.5 1.45313C16.811 1.45184 18.1143 1.63397 19.375 1.99434C19.4979 2.02882 19.6128 2.08726 19.7131 2.16629C19.8133 2.24532 19.897 2.34339 19.9592 2.45485C20.0214 2.56632 20.061 2.68899 20.0757 2.81581C20.0904 2.94263 20.0798 3.07109 20.0447 3.19382C20.0095 3.31655 19.9504 3.43112 19.8709 3.53095C19.7913 3.63077 19.6928 3.71389 19.581 3.77551C19.4692 3.83713 19.3463 3.87605 19.2194 3.89002C19.0925 3.90399 18.9641 3.89274 18.8415 3.85692C17.7548 3.54674 16.6301 3.38979 15.5 3.39063C12.2884 3.39063 9.20833 4.66644 6.93738 6.93739C4.66643 9.20833 3.39062 12.2884 3.39062 15.5Z" fill="#862633"/>
<path d="M9.20312 15.5C9.20672 16.3555 9.38465 17.2013 9.72604 17.9857C10.0674 18.7701 10.5651 19.4768 11.1887 20.0625C11.8123 20.6481 12.5488 21.1006 13.353 21.3921C14.1573 21.6837 15.0126 21.8083 15.8667 21.7583C16.7207 21.7083 17.5556 21.4847 18.3204 21.1013C19.0851 20.7178 19.7637 20.1825 20.3147 19.5281C20.8657 18.8736 21.2775 18.1137 21.525 17.2948C21.7725 16.4759 21.8505 15.6151 21.7542 14.765C21.7271 14.5929 21.7471 14.4166 21.812 14.2548C21.8769 14.0931 21.9844 13.9519 22.123 13.8462C22.2616 13.7406 22.4262 13.6744 22.5994 13.6547C22.7725 13.635 22.9478 13.6625 23.1066 13.7343C23.4308 13.8789 23.6491 14.1876 23.6775 14.5416C23.8781 16.2404 23.5444 17.9596 22.7228 19.46C21.9013 20.9605 20.6327 22.1677 19.0934 22.914C17.5541 23.6602 15.8205 23.9083 14.1337 23.6238C12.4468 23.3394 10.8905 22.5364 9.68103 21.3267C8.4719 20.1182 7.66878 18.5635 7.38306 16.878C7.09735 15.1926 7.34319 13.46 8.0865 11.9206C8.82981 10.3811 10.0337 9.11115 11.5313 8.28677C13.0289 7.46239 14.7459 7.12446 16.4442 7.31985C16.5726 7.33176 16.6973 7.36918 16.811 7.42992C16.9248 7.49066 17.0252 7.57349 17.1065 7.67355C17.1879 7.77362 17.2484 7.88891 17.2845 8.01267C17.3207 8.13643 17.3318 8.26617 17.3172 8.39427C17.3026 8.52238 17.2625 8.64628 17.1994 8.75871C17.1363 8.87114 17.0514 8.96983 16.9496 9.04902C16.8479 9.1282 16.7313 9.18627 16.6068 9.21982C16.4823 9.25338 16.3524 9.26175 16.2246 9.24443C15.3424 9.14244 14.4487 9.22816 13.602 9.49597C12.7553 9.76377 11.9748 10.2076 11.3117 10.7983C10.6486 11.3891 10.118 12.1134 9.75458 12.9237C9.39118 13.7339 9.20325 14.6119 9.20312 15.5Z" fill="#862633"/>
</svg>
