<svg width="39" height="27" viewBox="0 0 39 27" fill="none" xmlns="http://www.w3.org/2000/svg">
<path d="M4.3875 3.375C4.3875 2.47989 4.74703 1.62145 5.387 0.988515C6.02697 0.355579 6.89495 0 7.8 0C8.70505 0 9.57303 0.355579 10.213 0.988515C10.853 1.62145 11.2125 2.47989 11.2125 3.375C11.2125 4.27011 10.853 5.12855 10.213 5.76149C9.57303 6.39442 8.70505 6.75 7.8 6.75C6.89495 6.75 6.02697 6.39442 5.387 5.76149C4.74703 5.12855 4.3875 4.27011 4.3875 3.375ZM3.9 12.8792C3.29063 13.5542 2.925 14.4522 2.925 15.4286C2.925 16.4049 3.29063 17.3029 3.9 17.9779V12.8732V12.8792ZM12.6994 9.90804C10.8895 11.4931 9.75 13.8134 9.75 16.3929C9.75 18.46 10.4812 20.3585 11.7 21.8471V23.1429C11.7 24.2096 10.8286 25.0714 9.75 25.0714H5.85C4.77141 25.0714 3.9 24.2096 3.9 23.1429V21.5277C1.59656 20.4429 0 18.1225 0 15.4286C0 11.698 3.05297 8.67857 6.825 8.67857H8.775C10.2375 8.67857 11.5903 9.13058 12.6994 9.90201V9.90804ZM27.3 23.1429V21.8471C28.5188 20.3585 29.25 18.46 29.25 16.3929C29.25 13.8134 28.1105 11.4931 26.3006 9.90201C27.4097 9.13058 28.7625 8.67857 30.225 8.67857H32.175C35.947 8.67857 39 11.698 39 15.4286C39 18.1225 37.4034 20.4429 35.1 21.5277V23.1429C35.1 24.2096 34.2286 25.0714 33.15 25.0714H29.25C28.1714 25.0714 27.3 24.2096 27.3 23.1429ZM27.7875 3.375C27.7875 2.47989 28.147 1.62145 28.787 0.988515C29.427 0.355579 30.2949 0 31.2 0C32.1051 0 32.973 0.355579 33.613 0.988515C34.253 1.62145 34.6125 2.47989 34.6125 3.375C34.6125 4.27011 34.253 5.12855 33.613 5.76149C32.973 6.39442 32.1051 6.75 31.2 6.75C30.2949 6.75 29.427 6.39442 28.787 5.76149C28.147 5.12855 27.7875 4.27011 27.7875 3.375ZM35.1 12.8792V17.9839C35.7094 17.3029 36.075 16.4109 36.075 15.4346C36.075 14.4583 35.7094 13.5603 35.1 12.8853V12.8792ZM19.5 0C20.5343 0 21.5263 0.406376 22.2577 1.12973C22.9891 1.85309 23.4 2.83417 23.4 3.85714C23.4 4.88012 22.9891 5.8612 22.2577 6.58456C21.5263 7.30791 20.5343 7.71429 19.5 7.71429C18.4657 7.71429 17.4737 7.30791 16.7423 6.58456C16.0109 5.8612 15.6 4.88012 15.6 3.85714C15.6 2.83417 16.0109 1.85309 16.7423 1.12973C17.4737 0.406376 18.4657 0 19.5 0ZM14.625 16.3929C14.625 17.3692 14.9906 18.2612 15.6 18.9422V13.8375C14.9906 14.5185 14.625 15.4105 14.625 16.3868V16.3929ZM23.4 13.8435V18.9482C24.0094 18.2672 24.375 17.3752 24.375 16.3989C24.375 15.4225 24.0094 14.5246 23.4 13.8496V13.8435ZM27.3 16.3929C27.3 19.0868 25.7034 21.4071 23.4 22.492V25.0714C23.4 26.1382 22.5286 27 21.45 27H17.55C16.4714 27 15.6 26.1382 15.6 25.0714V22.492C13.2966 21.4071 11.7 19.0868 11.7 16.3929C11.7 12.6623 14.753 9.64286 18.525 9.64286H20.475C24.247 9.64286 27.3 12.6623 27.3 16.3929Z" fill="#862633"/>
</svg>
