<svg width="20" height="15" viewBox="0 0 20 15" fill="none" xmlns="http://www.w3.org/2000/svg">
<path d="M13.3331 7.49999C12.4764 7.49999 11.6481 7.1088 10.9999 6.39886C10.3694 5.70638 9.98445 4.78295 9.91654 3.79942C9.84401 2.75028 10.157 1.78551 10.7973 1.08239C11.4377 0.379261 12.3331 0 13.3331 0C14.3259 0 15.2238 0.386079 15.8621 1.0875C16.5067 1.79573 16.8204 2.75881 16.7479 3.799C16.6784 4.7838 16.2938 5.70681 15.6646 6.39843C15.018 7.1088 14.1901 7.49999 13.3331 7.49999ZM18.8257 15H7.8408C7.66184 15.001 7.49184 14.9615 7.33081 14.8816C7.16977 14.8017 7.03423 14.6896 6.92418 14.5453C6.80748 14.3889 6.72991 14.2143 6.69147 14.0214C6.65302 13.8287 6.65754 13.637 6.70502 13.4463C7.05584 12.0055 7.92497 10.8106 9.21826 9.99117C10.3661 9.26417 11.8273 8.86362 13.3331 8.86362C14.8684 8.86362 16.2913 9.24717 17.4458 9.97371C18.742 10.7889 19.6124 11.9906 19.9615 13.4488C20.0085 13.6396 20.0125 13.8313 19.9735 14.0241C19.9347 14.2167 19.8568 14.3912 19.7398 14.5474C19.6299 14.6911 19.4947 14.8027 19.3342 14.8822C19.1736 14.9616 19.0041 15.0009 18.8257 15ZM5.45841 7.67044C3.99222 7.67044 2.70312 6.27613 2.58354 4.56264C2.52437 3.6848 2.79186 2.87301 3.33351 2.2777C3.86931 1.68835 4.62511 1.36363 5.45841 1.36363C6.29171 1.36363 7.04167 1.69005 7.5804 2.28281C8.12621 2.88281 8.39287 3.69289 8.33036 4.56348C8.21079 6.27656 6.9221 7.67044 5.45841 7.67044ZM8.19412 9.01064C7.46124 8.64416 6.51003 8.46093 5.45883 8.46093C4.23138 8.46093 3.03935 8.7882 2.10189 9.38226C1.03902 10.0568 0.324053 11.0391 0.0353165 12.225C-0.00748503 12.3978 -0.0113819 12.5714 0.0236261 12.7461C0.0586339 12.9207 0.129056 13.0788 0.234891 13.2204C0.335353 13.3523 0.459107 13.4548 0.606152 13.5279C0.753197 13.601 0.908458 13.6371 1.07194 13.6363H5.69674C5.77728 13.6363 5.84846 13.6099 5.91029 13.5572C5.97213 13.5043 6.01023 13.4374 6.02463 13.3563C6.02922 13.3295 6.03505 13.3027 6.04172 13.2763C6.39503 11.8248 7.22292 10.5984 8.4462 9.70435C8.54388 9.63235 8.5899 9.53481 8.58424 9.41181C8.57858 9.28881 8.52381 9.19608 8.41995 9.13381C8.35453 9.09462 8.27954 9.05325 8.19412 9.01064Z" fill="#862633"/>
</svg>
