<svg width="32" height="28" viewBox="0 0 32 28" fill="none" xmlns="http://www.w3.org/2000/svg">
<path d="M16.0016 25.9942C24.8382 25.9942 32 20.1767 32 12.9971C32 5.81745 24.8382 0 16.0016 0C7.16502 0 0.00324678 5.81745 0.00324678 12.9971C0.00324678 15.8152 1.10938 18.4209 2.98419 20.5517C2.86546 22.0826 2.27177 23.4448 1.64683 24.482C1.30311 25.0569 0.95315 25.5193 0.696926 25.8317C0.56569 25.9879 0.4657 26.1067 0.390707 26.1879C0.353211 26.2254 0.328214 26.2566 0.309466 26.2754L0.290718 26.2941C0.00324678 26.5816 -0.077995 27.0065 0.0782392 27.3814C0.234473 27.7563 0.596937 28 1.00315 28C2.79671 28 4.60278 27.4439 6.10263 26.794C7.53373 26.1692 8.75236 25.4256 9.49603 24.8819C11.4833 25.6005 13.6831 26.0004 16.0016 26.0004V25.9942ZM8.00244 10.9975C8.53281 10.9975 9.04147 11.2082 9.4165 11.5832C9.79154 11.9582 10.0022 12.4668 10.0022 12.9971C10.0022 13.5274 9.79154 14.036 9.4165 14.411C9.04147 14.786 8.53281 14.9967 8.00244 14.9967C7.47206 14.9967 6.9634 14.786 6.58837 14.411C6.21333 14.036 6.00264 13.5274 6.00264 12.9971C6.00264 12.4668 6.21333 11.9582 6.58837 11.5832C6.9634 11.2082 7.47206 10.9975 8.00244 10.9975ZM16.0016 10.9975C16.532 10.9975 17.0407 11.2082 17.4157 11.5832C17.7907 11.9582 18.0014 12.4668 18.0014 12.9971C18.0014 13.5274 17.7907 14.036 17.4157 14.411C17.0407 14.786 16.532 14.9967 16.0016 14.9967C15.4712 14.9967 14.9626 14.786 14.5876 14.411C14.2125 14.036 14.0018 13.5274 14.0018 12.9971C14.0018 12.4668 14.2125 11.9582 14.5876 11.5832C14.9626 11.2082 15.4712 10.9975 16.0016 10.9975ZM22.001 12.9971C22.001 12.4668 22.2117 11.9582 22.5867 11.5832C22.9618 11.2082 23.4704 10.9975 24.0008 10.9975C24.5312 10.9975 25.0398 11.2082 25.4149 11.5832C25.7899 11.9582 26.0006 12.4668 26.0006 12.9971C26.0006 13.5274 25.7899 14.036 25.4149 14.411C25.0398 14.786 24.5312 14.9967 24.0008 14.9967C23.4704 14.9967 22.9618 14.786 22.5867 14.411C22.2117 14.036 22.001 13.5274 22.001 12.9971Z" fill="white"/>
</svg>
