<svg width="20" height="18" viewBox="0 0 20 18" fill="none" xmlns="http://www.w3.org/2000/svg">
<path d="M12.5074 8.52344L10.566 12.4062C10.3316 12.8789 9.65194 12.8632 9.4371 12.3828L7.21444 7.44922L6.04257 10.25H2.36679L9.49569 17.5351C9.77304 17.8203 10.2222 17.8203 10.4996 17.5351L17.6324 10.25H13.3707L12.5074 8.52344ZM18.5035 1.88672L18.4097 1.78907C16.398 -0.265626 13.105 -0.265626 11.0894 1.78907L9.99962 2.90625L8.90976 1.79297C6.89804 -0.265626 3.60116 -0.265626 1.58944 1.79297L1.49569 1.88672C-0.406645 3.83203 -0.488678 6.92969 1.21054 9H5.21054L6.61288 5.63282C6.82382 5.12891 7.53476 5.11719 7.76132 5.61719L10.0347 10.6679L11.9488 6.84375C12.1793 6.38282 12.8355 6.38282 13.066 6.84375L14.1441 9H18.7886C20.4879 6.92969 20.4058 3.83204 18.5035 1.88672Z" fill="#EF4444"/>
</svg>
