<svg width="31" height="31" viewBox="0 0 31 31" fill="none" xmlns="http://www.w3.org/2000/svg">
<path d="M9.53809 15.5369L9.81417 15.2608L10.0903 15.5369L9.81417 15.813L9.53809 15.5369Z" fill="#F97316"/>
<path d="M19.6289 21.1446V16.472C19.6289 15.1818 20.6763 14.1358 21.9652 14.1358H25.6944C25.9982 13.3505 26.1716 12.5653 26.1716 11.7995C26.1716 8.70568 23.6578 6.1918 20.564 6.1918C18.2693 6.1918 16.2882 7.57914 15.4237 9.56169C14.5594 7.58056 12.5782 6.1918 10.2834 6.1918C7.18966 6.1918 4.67578 8.70568 4.67578 11.7995C4.67578 17.6596 14.7326 24.5146 15.1627 24.8044C15.2417 24.8558 15.3305 24.8835 15.4249 24.8835C15.5178 24.8835 15.6066 24.8558 15.6871 24.8044C15.7662 24.749 16.1921 24.4632 16.8275 23.9914V23.4823C16.8275 22.192 17.8749 21.146 19.1638 21.146H19.6313L19.6289 21.1446ZM11.0815 15.8686L10.1465 16.8037C10.0535 16.8925 9.93558 16.9397 9.81488 16.9397C9.69279 16.9397 9.57625 16.8925 9.4833 16.8037L8.54823 15.8686C8.36649 15.6869 8.36649 15.3872 8.54823 15.2055L9.4833 14.2704C9.66504 14.0887 9.96473 14.0887 10.1465 14.2704L11.0815 15.2055C11.2633 15.3872 11.2633 15.6869 11.0815 15.8686Z" fill="#F97316"/>
<path d="M29.4422 15.0695H21.9656C21.1929 15.0695 20.563 15.698 20.563 16.4721V22.0798H19.1604C18.3877 22.0798 17.7578 22.7082 17.7578 23.4824V29.0901C17.7578 30.1208 18.5958 30.9588 19.6266 30.9588H28.973C30.0038 30.9588 30.8418 30.1208 30.8418 29.0901V16.4722C30.8418 15.6994 30.2133 15.0696 29.4392 15.0696L29.4422 15.0695ZM20.5631 29.0888C20.5631 29.6035 20.1441 30.0239 19.628 30.0239C19.1133 30.0239 18.693 29.6049 18.693 29.0888V23.4812C18.693 23.2231 18.9024 23.0136 19.1605 23.0136H20.5631V29.0888ZM29.9096 29.0888C29.9096 29.6035 29.4906 30.0239 28.9745 30.0239H21.2469C21.4064 29.7492 21.498 29.4287 21.498 29.0888V16.471C21.498 16.2129 21.7075 16.0035 21.9655 16.0035H29.442C29.7001 16.0035 29.9096 16.2129 29.9096 16.471L29.9096 29.0888Z" fill="#F97316"/>
<path d="M28.5078 17.4058H22.9002C22.6421 17.4058 22.4326 17.6153 22.4326 17.8733C22.4326 18.1314 22.6421 18.3409 22.9002 18.3409H28.5078C28.7659 18.3409 28.9753 18.1314 28.9753 17.8733C28.9753 17.6153 28.7659 17.4058 28.5078 17.4058Z" fill="#F97316"/>
<path d="M28.5078 19.2757H22.9002C22.6421 19.2757 22.4326 19.4852 22.4326 19.7432C22.4326 20.0013 22.6421 20.2108 22.9002 20.2108H28.5078C28.7659 20.2108 28.9753 20.0013 28.9753 19.7432C28.9753 19.4852 28.7659 19.2757 28.5078 19.2757Z" fill="#F97316"/>
<path d="M28.5078 21.1446H22.9002C22.6421 21.1446 22.4326 21.3541 22.4326 21.6121C22.4326 21.8701 22.6421 22.0796 22.9002 22.0796H28.5078C28.7659 22.0796 28.9753 21.8701 28.9753 21.6121C28.9753 21.3541 28.7659 21.1446 28.5078 21.1446Z" fill="#F97316"/>
<path d="M28.5078 23.0134H22.9002C22.6421 23.0134 22.4326 23.2229 22.4326 23.481C22.4326 23.739 22.6421 23.9485 22.9002 23.9485H28.5078C28.7659 23.9485 28.9753 23.739 28.9753 23.481C28.9753 23.2229 28.7659 23.0134 28.5078 23.0134Z" fill="#F97316"/>
<path d="M28.5078 24.8834H22.9002C22.6421 24.8834 22.4326 25.0929 22.4326 25.3509C22.4326 25.609 22.6421 25.8185 22.9002 25.8185H28.5078C28.7659 25.8185 28.9753 25.609 28.9753 25.3509C28.9753 25.0929 28.7659 24.8834 28.5078 24.8834Z" fill="#F97316"/>
<path d="M28.5078 26.7522H22.9002C22.6421 26.7522 22.4326 26.9617 22.4326 27.2198C22.4326 27.4778 22.6421 27.6873 22.9002 27.6873H28.5078C28.7659 27.6873 28.9753 27.4778 28.9753 27.2198C28.9753 26.9617 28.7659 26.7522 28.5078 26.7522Z" fill="#F97316"/>
<path d="M28.9735 2.91906H28.0384V1.98399C28.0384 0.95182 27.2018 0.115234 26.1697 0.115234C25.1375 0.115234 24.3009 0.95182 24.3009 1.98399V2.91906H23.3658C22.3337 2.91906 21.4971 3.75565 21.4971 4.78782C21.4971 4.97927 21.5248 5.16103 21.5761 5.33445C23.8889 5.69377 25.8047 7.27396 26.6468 9.39538C27.4501 9.19005 28.0397 8.46031 28.0397 7.59183V6.65676H28.9748C30.007 6.65676 30.8435 5.82017 30.8435 4.788C30.8435 3.75583 30.007 2.91924 28.9748 2.91924L28.9735 2.91906Z" fill="#F97316"/>
<path d="M5.00602 6.52181L5.94109 5.58674C6.12284 5.405 6.12284 5.10532 5.94109 4.92358L5.00602 3.98851C4.82428 3.80677 4.5246 3.80677 4.34286 3.98851L3.40779 4.92358C3.22605 5.10533 3.22605 5.40501 3.40779 5.58674L4.34286 6.52181C4.43582 6.6106 4.55374 6.65777 4.67444 6.65777C4.79653 6.65777 4.91307 6.6106 5.00602 6.52181ZM4.67445 4.98048L4.95053 5.25656L4.67445 5.53264L4.39836 5.25656L4.67445 4.98048Z" fill="#F97316"/>
<path d="M1.73454 9.59755C1.55279 9.41581 1.25312 9.41581 1.07138 9.59755L0.136308 10.5326C-0.0454359 10.7144 -0.0454359 11.014 0.136308 11.1958L1.07138 12.1309C1.16433 12.2196 1.28226 12.2668 1.40296 12.2668C1.52504 12.2668 1.64158 12.2196 1.73453 12.1309L2.6696 11.1958C2.85135 11.014 2.85135 10.7144 2.6696 10.5326L1.73454 9.59755ZM1.40296 11.1389L1.12688 10.8628L1.40296 10.5867L1.67904 10.8628L1.40296 11.1389Z" fill="#F97316"/>
</svg>
