<svg width="20" height="20" viewBox="0 0 20 20" fill="none" xmlns="http://www.w3.org/2000/svg">
<path d="M6.86491 18.3602V15.4312C6.86491 14.6835 7.50152 14.0774 8.28682 14.0774H11.1575C11.5346 14.0774 11.8962 14.22 12.1629 14.4739C12.4296 14.7278 12.5794 15.0722 12.5794 15.4312V18.3602C12.577 18.6711 12.705 18.97 12.935 19.1906C13.1651 19.4112 13.4781 19.5352 13.8045 19.5352H15.763C16.6777 19.5375 17.5557 19.1931 18.2034 18.5781C18.851 17.9631 19.215 17.128 19.215 16.2571V7.91288C19.2149 7.20939 18.8874 6.5421 18.3207 6.09076L11.6583 1.02461C10.4993 0.136344 8.83882 0.165024 7.71448 1.09273L1.20411 6.09076C0.610564 6.5288 0.255812 7.19807 0.238281 7.91288V16.2486C0.238281 18.0638 1.78376 19.5352 3.69021 19.5352H5.60397C6.28208 19.5352 6.83317 19.0143 6.83808 18.3687L6.86491 18.3602Z" fill="#9CA3AF"/>
</svg>
