<svg width="20" height="20" viewBox="0 0 20 20" fill="none" xmlns="http://www.w3.org/2000/svg">
<g clip-path="url(#clip0_1114_3941)">
<mask id="mask0_1114_3941" style="mask-type:luminance" maskUnits="userSpaceOnUse" x="-1" y="-1" width="22" height="22">
<rect width="20" height="20" fill="white" stroke="white"/>
</mask>
<g mask="url(#mask0_1114_3941)">
<path fill-rule="evenodd" clip-rule="evenodd" d="M1.87502 3.125C1.87502 2.60723 2.05808 2.16529 2.4242 1.79918C2.79031 1.43306 3.23226 1.25 3.75002 1.25H16.25C16.7678 1.25 17.2097 1.43306 17.5758 1.79918C17.942 2.16529 18.125 2.60723 18.125 3.125V7.57875C18.6775 7.72081 19.1286 8.01724 19.4781 8.46806C19.8277 8.91888 20.0025 9.42953 20.0025 10C20.0025 10.5705 19.8277 11.0811 19.4781 11.5319C19.1286 11.9828 18.6775 12.2792 18.125 12.4213V16.875C18.125 17.3928 17.942 17.8347 17.5758 18.2008C17.2097 18.5669 16.7678 18.75 16.25 18.75H3.75002C3.23226 18.75 2.79032 18.5669 2.4242 18.2008C2.05808 17.8347 1.87502 17.3928 1.87502 16.875V12.4213C1.32252 12.2792 0.871486 11.9828 0.521915 11.5319C0.172344 11.0811 -0.00244141 10.5705 -0.00244141 10C-0.00244141 9.42953 0.172344 8.91888 0.521915 8.46806C0.871486 8.01724 1.32252 7.7208 1.87502 7.57875V3.125ZM3.12502 7.57875C3.67753 7.72081 4.12856 8.01724 4.47813 8.46806C4.82771 8.91888 5.00249 9.42953 5.00249 10C5.00249 10.5705 4.82771 11.0811 4.47813 11.5319C4.12856 11.9828 3.67753 12.2792 3.12502 12.4213V16.875C3.12502 17.0476 3.18604 17.1949 3.30808 17.3169C3.43012 17.439 3.57744 17.5 3.75002 17.5H16.25C16.4226 17.5 16.5699 17.439 16.692 17.3169C16.814 17.1949 16.875 17.0476 16.875 16.875V12.4213C16.3225 12.2792 15.8715 11.9828 15.5219 11.5319C15.1723 11.0811 14.9976 10.5705 14.9976 10C14.9976 9.42953 15.1723 8.91888 15.5219 8.46806C15.8715 8.01724 16.3225 7.72081 16.875 7.57875V3.125C16.875 2.95241 16.814 2.8051 16.692 2.68306C16.5699 2.56102 16.4226 2.5 16.25 2.5H3.75002C3.57744 2.5 3.43012 2.56102 3.30808 2.68306C3.18604 2.8051 3.12502 2.95241 3.12502 3.125V7.57875ZM2.50002 8.75C2.15485 8.75 1.86022 8.87204 1.61614 9.11612C1.37206 9.36019 1.25002 9.65482 1.25002 10C1.25002 10.3452 1.37206 10.6398 1.61614 10.8839C1.86022 11.128 2.15485 11.25 2.50002 11.25C2.8452 11.25 3.13983 11.128 3.38391 10.8839C3.62798 10.6398 3.75002 10.3452 3.75002 10C3.75002 9.65482 3.62798 9.36019 3.38391 9.11612C3.13983 8.87204 2.8452 8.75 2.50002 8.75ZM17.5 8.75C17.1548 8.75 16.8602 8.87204 16.6161 9.11612C16.3721 9.36019 16.25 9.65482 16.25 10C16.25 10.3452 16.3721 10.6398 16.6161 10.8839C16.8602 11.128 17.1548 11.25 17.5 11.25C17.8452 11.25 18.1398 11.128 18.3839 10.8839C18.628 10.6398 18.75 10.3452 18.75 10C18.75 9.65482 18.628 9.36019 18.3839 9.11612C18.1398 8.87204 17.8452 8.75 17.5 8.75Z" fill="#111827"/>
<path d="M14.2925 5H5.7075L5.625 7.4925H6.1075C6.37 5.9275 6.8725 5.685 8.82375 5.62375L9.2525 5.61V13.5387C9.2525 14.21 9.1075 14.37 7.94125 14.4738V15H12.0587V14.4738C10.8862 14.37 10.7412 14.2112 10.7412 13.5387V5.61L11.1762 5.6225C13.1262 5.685 13.63 5.9275 13.8925 7.4925H14.375L14.2925 5Z" fill="#111827"/>
</g>
</g>
<defs>
<clipPath id="clip0_1114_3941">
<rect width="20" height="20" fill="white"/>
</clipPath>
</defs>
</svg>
