<svg width="20" height="20" viewBox="0 0 20 20" fill="none" xmlns="http://www.w3.org/2000/svg">
<g clip-path="url(#clip0_1114_3951)">
<mask id="mask0_1114_3951" style="mask-type:luminance" maskUnits="userSpaceOnUse" x="0" y="0" width="20" height="20">
<rect width="20" height="20" fill="white"/>
</mask>
<g mask="url(#mask0_1114_3951)">
<path fill-rule="evenodd" clip-rule="evenodd" d="M10 18.75C7.58375 18.75 5.52136 17.8957 3.81281 16.1872C2.10427 14.4786 1.25 12.4162 1.25 10C1.25 7.58375 2.10427 5.52136 3.81281 3.81281C5.52136 2.10427 7.58375 1.25 10 1.25C12.4162 1.25 14.4786 2.10427 16.1872 3.81281C17.8957 5.52136 18.75 7.58375 18.75 10C18.75 12.4162 17.8957 14.4786 16.1872 16.1872C14.4786 17.8957 12.4162 18.75 10 18.75ZM10 20C12.7614 20 15.1184 19.0237 17.0711 17.0711C19.0237 15.1184 20 12.7614 20 10C20 7.23858 19.0237 4.88155 17.0711 2.92893C15.1184 0.976311 12.7614 0 10 0C7.23858 0 4.88155 0.976311 2.92893 2.92893C0.976311 4.88155 0 7.23858 0 10C0 12.7614 0.976311 15.1184 2.92893 17.0711C4.88155 19.0237 7.23858 20 10 20Z" fill="#111827"/>
<path fill-rule="evenodd" clip-rule="evenodd" d="M5.35627 11.9587C5.50574 11.8725 5.66382 11.8516 5.83052 11.8963C5.99723 11.941 6.12373 12.038 6.21002 12.1875C6.6007 12.8647 7.13458 13.3987 7.81169 13.7895C8.48879 14.1803 9.21823 14.3755 10 14.375C10.7818 14.3755 11.5113 14.1803 12.1884 13.7895C12.8655 13.3987 13.3994 12.8647 13.79 12.1875C13.8757 12.0368 14.0022 11.9387 14.1696 11.8933C14.3369 11.8478 14.4957 11.8685 14.6458 11.9552C14.796 12.0419 14.8933 12.169 14.9376 12.3367C14.9819 12.5043 14.9602 12.6629 14.8725 12.8125C14.3702 13.683 13.6838 14.3696 12.8133 14.872C11.9429 15.3745 11.0051 15.6255 10 15.625C8.99495 15.6255 8.05717 15.3745 7.1867 14.872C6.31623 14.3696 5.62984 13.683 5.12752 12.8125C5.04123 12.663 5.02042 12.505 5.06509 12.3383C5.10975 12.1715 5.20682 12.045 5.35627 11.9587ZM8.75003 8.125C8.75003 9.16 8.19003 10 7.50003 10C6.81003 10 6.25003 9.16 6.25003 8.125C6.25003 7.09 6.81003 6.25 7.50003 6.25C8.19003 6.25 8.75003 7.09 8.75003 8.125ZM13.75 8.125C13.75 9.16 13.19 10 12.5 10C11.81 10 11.25 9.16 11.25 8.125C11.25 7.09 11.81 6.25 12.5 6.25C13.19 6.25 13.75 7.09 13.75 8.125Z" fill="#111827"/>
</g>
</g>
<defs>
<clipPath id="clip0_1114_3951">
<rect width="20" height="20" fill="white"/>
</clipPath>
</defs>
</svg>
