<svg width="14" height="18" viewBox="0 0 14 18" fill="none" xmlns="http://www.w3.org/2000/svg">
<path d="M13.4782 0.459811C13.3528 0.363226 13.2125 0.299613 13.0573 0.268973C12.902 0.238333 12.748 0.243873 12.5954 0.285592L4.80945 2.37856C4.53161 2.45318 4.30572 2.60507 4.13178 2.83421C3.95783 3.06335 3.87227 3.32175 3.87508 3.60942V12.4375C3.87508 12.7008 3.70476 12.9282 3.44109 13.0168L3.4364 13.0188L1.40515 13.7219C0.628202 13.9817 0.125077 14.7032 0.125077 15.559C0.122189 15.9123 0.200874 16.2463 0.361132 16.561C0.52139 16.8758 0.745178 17.136 1.0325 17.3415C1.21482 17.4739 1.41311 17.575 1.62738 17.6448C1.84164 17.7146 2.06145 17.7497 2.2868 17.75C2.40469 17.7498 2.5218 17.7401 2.63812 17.7209C2.75444 17.7017 2.86845 17.6733 2.98015 17.6356L2.995 17.6305L3.84812 17.3204C4.2275 17.1937 4.53456 16.9685 4.76932 16.6447C5.00408 16.3209 5.12267 15.959 5.12508 15.559V7.27778C5.12508 6.99302 5.3114 6.76176 5.60008 6.68911L5.60828 6.68676L12.4298 4.86489C12.4791 4.85215 12.524 4.86135 12.5643 4.8925C12.6047 4.92364 12.6249 4.9647 12.6251 5.01567V10.5598C12.6251 10.8235 12.4591 11.0434 12.1911 11.1332L12.1813 11.1368L10.1934 11.8442C9.7968 11.9746 9.4769 12.2096 9.23373 12.549C8.99057 12.8884 8.87101 13.2669 8.87508 13.6844C8.87153 14.0387 8.9499 14.3739 9.11017 14.6898C9.27044 15.0058 9.49455 15.267 9.7825 15.4735C10.0644 15.6773 10.3775 15.8045 10.7216 15.8553C11.0658 15.906 11.4022 15.8744 11.7309 15.7606L11.745 15.7559L12.5981 15.4454C12.9775 15.3188 13.2845 15.0936 13.5193 14.7699C13.754 14.4461 13.8726 14.0843 13.8751 13.6844V1.26567C13.8759 1.10764 13.8415 0.957732 13.7716 0.815956C13.7018 0.674181 13.604 0.555466 13.4782 0.459811Z" fill="#111827"/>
</svg>
