<svg width="16" height="20" viewBox="0 0 16 20" fill="none" xmlns="http://www.w3.org/2000/svg">
<path d="M2.64941 17.2256L3.09136 16.7836L3.09136 16.7836L2.64941 17.2256ZM13.3506 17.2256L12.9086 16.7836L12.9086 16.7836L13.3506 17.2256ZM13.3506 8.39941L12.9086 8.84136L12.9086 8.84136L13.3506 8.39941ZM14.2344 7.51562L13.7924 7.95757L13.7924 7.95757L14.2344 7.51562ZM14.2344 18.1094L13.7924 17.6674L13.7924 17.6674L14.2344 18.1094ZM1.76562 18.1094L2.20757 17.6674H2.20757L1.76562 18.1094ZM8 2.75977L8.44194 2.31782L8 1.87588L7.55806 2.31782L8 2.75977ZM7.55762 1.43262L7.11568 0.990675L7.55762 1.43262ZM5.31738 5.44238L4.87544 5.00044L5.31738 5.44238ZM4.43262 5.44238L4.87456 5.00044L4.43262 5.44238ZM8.35059 1.35742L8.70138 0.84015L7.99961 1.87457L8.35059 1.35742ZM8.44238 1.43262L8.00044 1.87456L8.44238 1.43262ZM11.5674 4.55762L12.0526 4.16368L12.0322 4.13856L12.0093 4.11568L11.5674 4.55762ZM11.6475 4.65625L12.1692 4.31218L12.1522 4.28634L12.1327 4.26231L11.6475 4.65625ZM11.5674 5.44238L11.1254 5.00044L11.5674 5.44238ZM10.7812 5.52246L10.3873 6.00768L10.4113 6.02719L10.4372 6.04423L10.7812 5.52246ZM10.6826 5.44238L10.2407 5.88432L10.2636 5.90721L10.2887 5.9276L10.6826 5.44238ZM8.21777 1.29102L8.43529 0.705089L7.99931 1.87659L8.21777 1.29102ZM8.25 1.30273L8.00042 1.87574L8.5005 0.730132L8.25 1.30273ZM7.75195 1.30078L7.50382 0.727147L7.99959 1.87463L7.75195 1.30078ZM7.78613 1.28906L8.00048 1.87616L7.57224 0.701802L7.78613 1.28906ZM8.10059 1.25977L8.20046 0.642797L8.0005 1.8767L8.10059 1.25977ZM8.14062 1.2666L8.00094 1.87579L8.28083 0.657532L8.14062 1.2666ZM7.86523 1.26465L7.73098 0.654238L7.99941 1.87508L7.86523 1.26465ZM7.89551 1.25977L7.99976 1.87601L7.7916 0.643464L7.89551 1.25977ZM8.02148 1.25195L8.00042 1.8766L8.04264 0.627311L8.02148 1.25195ZM7.98438 1.25098L7.96855 0.626177L7.99972 1.87579L7.98438 1.25098ZM7.65625 1.35254L7.31218 0.830765L7.30956 0.832508L7.65625 1.35254ZM7.69824 1.3291L8.0011 1.87582L7.39565 0.782235L7.69824 1.3291ZM4.875 6.875V7.5H5.5H6.125C6.125 6.80964 5.56536 6.25 4.875 6.25V6.875ZM5.5 7.5H4.875V8.125V8.75C5.56536 8.75 6.125 8.19036 6.125 7.5H5.5ZM4.875 8.125V7.5H3.3125V8.125V8.75H4.875V8.125ZM3.3125 8.125V7.5C2.88146 7.5 2.51288 7.65207 2.20747 7.95747L2.64941 8.39941L3.09136 8.84136C3.16173 8.77099 3.21212 8.75 3.3125 8.75V8.125ZM2.64941 8.39941L2.20747 7.95747C1.90207 8.26288 1.75 8.63146 1.75 9.0625H2.375H3C3 8.96212 3.02098 8.91173 3.09136 8.84136L2.64941 8.39941ZM2.375 9.0625H1.75V16.5625H2.375H3V9.0625H2.375ZM2.375 16.5625H1.75C1.75 16.9935 1.90207 17.3621 2.20747 17.6675L2.64941 17.2256L3.09136 16.7836C3.02099 16.7133 3 16.6629 3 16.5625H2.375ZM2.64941 17.2256L2.20747 17.6675C2.51288 17.9729 2.88146 18.125 3.3125 18.125V17.5V16.875C3.21211 16.875 3.16173 16.854 3.09136 16.7836L2.64941 17.2256ZM3.3125 17.5V18.125H12.6875V17.5V16.875H3.3125V17.5ZM12.6875 17.5V18.125C13.1185 18.125 13.4871 17.9729 13.7925 17.6675L13.3506 17.2256L12.9086 16.7836C12.8383 16.854 12.7879 16.875 12.6875 16.875V17.5ZM13.3506 17.2256L13.7925 17.6675C14.0979 17.3621 14.25 16.9935 14.25 16.5625H13.625H13C13 16.6629 12.979 16.7133 12.9086 16.7836L13.3506 17.2256ZM13.625 16.5625H14.25V9.0625H13.625H13V16.5625H13.625ZM13.625 9.0625H14.25C14.25 8.63146 14.0979 8.26288 13.7925 7.95747L13.3506 8.39941L12.9086 8.84136C12.979 8.91173 13 8.96211 13 9.0625H13.625ZM13.3506 8.39941L13.7925 7.95747C13.4871 7.65207 13.1185 7.5 12.6875 7.5V8.125V8.75C12.7879 8.75 12.8383 8.77099 12.9086 8.84136L13.3506 8.39941ZM12.6875 8.125V7.5H11.125V8.125V8.75H12.6875V8.125ZM11.125 8.125V7.5H10.5H9.875C9.875 8.19036 10.4346 8.75 11.125 8.75V8.125ZM10.5 7.5H11.125V6.875V6.25C10.4346 6.25 9.875 6.80964 9.875 7.5H10.5ZM11.125 6.875V7.5H12.6875V6.875V6.25H11.125V6.875ZM12.6875 6.875V7.5C13.1191 7.5 13.4874 7.65253 13.7924 7.95757L14.2344 7.51562L14.6763 7.07368C14.1367 6.53411 13.4504 6.25 12.6875 6.25V6.875ZM14.2344 7.51562L13.7924 7.95757C14.0975 8.26261 14.25 8.63094 14.25 9.0625H14.875H15.5C15.5 8.29959 15.2159 7.61326 14.6763 7.07368L14.2344 7.51562ZM14.875 9.0625H14.25V16.5625H14.875H15.5V9.0625H14.875ZM14.875 16.5625H14.25C14.25 16.9941 14.0975 17.3624 13.7924 17.6674L14.2344 18.1094L14.6763 18.5513C15.2159 18.0117 15.5 17.3254 15.5 16.5625H14.875ZM14.2344 18.1094L13.7924 17.6674C13.4874 17.9725 13.1191 18.125 12.6875 18.125V18.75V19.375C13.4504 19.375 14.1367 19.0909 14.6763 18.5513L14.2344 18.1094ZM12.6875 18.75V18.125H3.3125V18.75V19.375H12.6875V18.75ZM3.3125 18.75V18.125C2.88094 18.125 2.51261 17.9725 2.20757 17.6674L1.76562 18.1094L1.32368 18.5513C1.86326 19.0909 2.54959 19.375 3.3125 19.375V18.75ZM1.76562 18.1094L2.20757 17.6674C1.90253 17.3624 1.75 16.9941 1.75 16.5625H1.125H0.5C0.5 17.3254 0.784107 18.0117 1.32368 18.5513L1.76562 18.1094ZM1.125 16.5625H1.75V9.0625H1.125H0.5V16.5625H1.125ZM1.125 9.0625H1.75C1.75 8.63094 1.90253 8.26261 2.20757 7.95757L1.76562 7.51562L1.32368 7.07368C0.784107 7.61326 0.5 8.29959 0.5 9.0625H1.125ZM1.76562 7.51562L2.20757 7.95757C2.51261 7.65253 2.88094 7.5 3.3125 7.5V6.875V6.25C2.54959 6.25 1.86326 6.53411 1.32368 7.07368L1.76562 7.51562ZM3.3125 6.875V7.5H4.875V6.875V6.25H3.3125V6.875ZM8.625 3.38477H8V12.5391H8.625H9.25V3.38477H8.625ZM8.625 12.5391H8V13.1641V13.7891C8.69036 13.7891 9.25 13.2294 9.25 12.5391H8.625ZM8 13.1641V12.5391H7.375H6.75C6.75 13.2294 7.30964 13.7891 8 13.7891V13.1641ZM7.375 12.5391H8V3.38477H7.375H6.75V12.5391H7.375ZM7.375 3.38477L7.81694 3.82671L8.44194 3.20171L8 2.75977L7.55806 2.31782L6.93306 2.94282L7.375 3.38477ZM8 2.75977L7.55806 3.20171L8.18306 3.82671L8.625 3.38477L9.06694 2.94282L8.44194 2.31782L8 2.75977ZM7.55762 1.43262L7.11568 0.990675C6.889 1.21735 6.75 1.53157 6.75 1.875H7.375H8L7.99956 1.87456L7.55762 1.43262ZM7.375 1.875H6.75V3.38477H7.375H8V1.875H7.375ZM7.375 3.38477L6.93306 2.94282L4.87544 5.00044L5.31738 5.44238L5.75932 5.88432L7.81694 3.82671L7.375 3.38477ZM5.31738 5.44238L4.87544 5.00044H4.87456L4.43262 5.44238L3.99068 5.88432C4.47883 6.37248 5.27117 6.37248 5.75932 5.88432L5.31738 5.44238ZM4.43262 5.44238L4.87456 5.00044V4.99956L4.43262 4.55762L3.99068 4.11568C3.50252 4.60383 3.50252 5.39617 3.99068 5.88432L4.43262 5.44238ZM4.43262 4.55762L4.87456 4.99956L7.99956 1.87456L7.55762 1.43262L7.11568 0.990675L3.99068 4.11568L4.43262 4.55762ZM8.35059 1.35742L7.99979 1.87469L8.00044 1.87456L8.44238 1.43262L8.88432 0.990675C8.82363 0.929979 8.76102 0.880599 8.70138 0.84015L8.35059 1.35742ZM8.44238 1.43262L8.00044 1.87456L11.1254 4.99956L11.5674 4.55762L12.0093 4.11568L8.88432 0.990675L8.44238 1.43262ZM11.5674 4.55762L11.0822 4.95156L11.1622 5.05019L11.6475 4.65625L12.1327 4.26231L12.0526 4.16368L11.5674 4.55762ZM11.6475 4.65625L11.1257 5.00032L11.1254 5.00044L11.5674 5.44238L12.0093 5.88432C12.4372 5.45649 12.489 4.7971 12.1692 4.31218L11.6475 4.65625ZM11.5674 5.44238L11.1254 5.00044L11.1253 5.00069L10.7812 5.52246L10.4372 6.04423C10.9221 6.364 11.5815 6.31216 12.0093 5.88432L11.5674 5.44238ZM10.7812 5.52246L11.1752 5.03724L11.0766 4.95716L10.6826 5.44238L10.2887 5.9276L10.3873 6.00768L10.7812 5.52246ZM10.6826 5.44238L11.1246 5.00044L9.06694 2.94282L8.625 3.38477L8.18306 3.82671L10.2407 5.88432L10.6826 5.44238ZM8.625 3.38477H9.25V1.875H8.625H8V3.38477H8.625ZM8.625 1.875H9.25C9.25 1.44406 9.0314 1.06413 8.70156 0.840276L8.35059 1.35742L7.99961 1.87457L8 1.875H8.625ZM7.55762 1.43262L7.99956 1.87456L8.00026 1.87436L7.65332 1.35449L7.30638 0.834629C7.24027 0.878751 7.17579 0.930561 7.11568 0.990675L7.55762 1.43262ZM7.65332 1.35449L7.25808 0.870329L7.16238 0.948454L7.55762 1.43262L7.95285 1.91678L8.04856 1.83866L7.65332 1.35449ZM8.21777 1.29102L7.99931 1.87659C8.00947 1.88038 8.01807 1.88336 8.02304 1.88507C8.02552 1.88592 8.02786 1.88671 8.02901 1.8871C8.02971 1.88734 8.03013 1.88748 8.0305 1.88761C8.03067 1.88767 8.03079 1.88771 8.03087 1.88774C8.03091 1.88775 8.03094 1.88776 8.03097 1.88777C8.03099 1.88777 8.031 1.88778 8.03099 1.88778C8.03099 1.88778 8.03095 1.88776 8.03087 1.88773C8.03078 1.8877 8.03065 1.88766 8.03049 1.8876C8.03016 1.88749 8.02965 1.88731 8.02898 1.88707C8.02768 1.88661 8.02562 1.88587 8.02301 1.88489C8.01787 1.88297 8.00965 1.87978 7.9995 1.87534L8.25 1.30273L8.5005 0.730132C8.47108 0.717262 8.44607 0.708663 8.437 0.705549C8.43445 0.704674 8.43208 0.703871 8.43086 0.703457C8.42931 0.702929 8.42893 0.702802 8.42871 0.702723C8.42826 0.702572 8.43145 0.703656 8.43623 0.705439L8.21777 1.29102ZM8.25 1.30273L8.49958 0.729729C8.47096 0.717265 8.44667 0.708877 8.43738 0.705679C8.4348 0.70479 8.43244 0.703987 8.43113 0.703542C8.42949 0.702986 8.42906 0.702839 8.42871 0.702717C8.42804 0.702488 8.43091 0.703462 8.43529 0.705089L8.21777 1.29102L8.00025 1.87694C8.00999 1.88056 8.01826 1.88342 8.02299 1.88504C8.02534 1.88585 8.02761 1.88662 8.02868 1.88698C8.02934 1.88721 8.02975 1.88735 8.03009 1.88746C8.03024 1.88752 8.03035 1.88755 8.03043 1.88758C8.03051 1.88761 8.03054 1.88762 8.03053 1.88762C8.03053 1.88761 8.03035 1.88755 8.03003 1.88744C8.0297 1.88733 8.02921 1.88715 8.02857 1.88693C8.02731 1.88648 8.02533 1.88577 8.02283 1.88483C8.01789 1.88298 8.01008 1.87995 8.00042 1.87574L8.25 1.30273ZM7.75195 1.30078L8.00008 1.87442C7.98625 1.8804 7.97498 1.88456 7.968 1.88702C7.9613 1.88938 7.95664 1.89083 7.95718 1.89066C7.95757 1.89054 7.95771 1.89049 7.95992 1.8898C7.96158 1.88928 7.96463 1.88833 7.96809 1.88722C7.97493 1.88503 7.9866 1.88123 8.00048 1.87616L7.78613 1.28906L7.57179 0.701967C7.58 0.69897 7.58593 0.69707 7.58702 0.696721C7.58761 0.696532 7.58778 0.696483 7.58656 0.696864C7.58589 0.697072 7.58315 0.69793 7.58067 0.698711C7.57189 0.701486 7.54047 0.711295 7.50382 0.727147L7.75195 1.30078ZM7.78613 1.28906L7.57224 0.701802C7.58031 0.698864 7.58612 0.697005 7.5871 0.696693C7.58763 0.696522 7.58776 0.696485 7.5865 0.696879C7.58576 0.697109 7.58305 0.697957 7.58053 0.698755C7.57154 0.701598 7.54053 0.711304 7.50431 0.726935L7.75195 1.30078L7.99959 1.87463C7.98605 1.88047 7.97502 1.88454 7.96814 1.88697C7.96463 1.88821 7.96186 1.88913 7.96011 1.88971C7.95922 1.89 7.95853 1.89022 7.95809 1.89037C7.95787 1.89044 7.95769 1.89049 7.95758 1.89053C7.95747 1.89057 7.95741 1.89059 7.95741 1.89059C7.95741 1.89059 7.95742 1.89058 7.95744 1.89057C7.95747 1.89057 7.95751 1.89055 7.95757 1.89054C7.95768 1.8905 7.95784 1.89045 7.95806 1.89038C7.95874 1.89017 7.95893 1.89011 7.96006 1.88975C7.96168 1.88925 7.96468 1.88831 7.96808 1.88722C7.97479 1.88507 7.98631 1.88132 8.00003 1.87632L7.78613 1.28906ZM8.10059 1.25977L8.0005 1.8767C8.00761 1.87785 8.01401 1.87882 8.0174 1.87933C8.01949 1.87965 8.02048 1.8798 8.02163 1.87997C8.02211 1.88004 8.02245 1.88009 8.02269 1.88013C8.02281 1.88015 8.02289 1.88016 8.02295 1.88017C8.02301 1.88018 8.02304 1.88019 8.02304 1.88019C8.02304 1.88019 8.023 1.88018 8.02294 1.88017C8.02288 1.88016 8.02279 1.88015 8.02267 1.88013C8.02244 1.88009 8.02207 1.88003 8.0216 1.87995C8.02067 1.87979 8.01921 1.87954 8.01733 1.87919C8.01364 1.87851 8.00779 1.87737 8.00042 1.87567L8.14062 1.2666L8.28083 0.657532C8.25371 0.651287 8.23079 0.647508 8.2184 0.645548C8.21231 0.644584 8.20629 0.643682 8.20394 0.643328C8.20062 0.642826 8.20029 0.64277 8.20068 0.642832L8.10059 1.25977ZM8.14062 1.2666L8.28031 0.657411C8.25354 0.651274 8.23093 0.647532 8.21846 0.645557C8.21234 0.644587 8.20635 0.643689 8.20392 0.643323C8.20053 0.642812 8.20016 0.642748 8.20046 0.642797L8.10059 1.25977L8.00071 1.87673C8.0077 1.87787 8.01402 1.87882 8.01733 1.87932C8.01936 1.87963 8.02038 1.87978 8.02148 1.87995C8.02195 1.88002 8.02228 1.88007 8.02251 1.8801C8.02263 1.88012 8.02271 1.88014 8.02277 1.88014C8.02283 1.88015 8.02285 1.88016 8.02285 1.88016C8.02285 1.88016 8.02282 1.88015 8.02276 1.88014C8.0227 1.88013 8.02262 1.88012 8.0225 1.8801C8.02227 1.88006 8.02191 1.88 8.02145 1.87993C8.02054 1.87977 8.01912 1.87953 8.0173 1.87919C8.01371 1.87853 8.00806 1.87742 8.00094 1.87579L8.14062 1.2666ZM7.86523 1.26465L7.99941 1.87508C7.98982 1.87718 7.98215 1.87857 7.97739 1.87938C7.97279 1.88016 7.96972 1.8806 7.97004 1.88055C7.97019 1.88053 7.97052 1.88048 7.97189 1.88029C7.97296 1.88014 7.97513 1.87983 7.97742 1.8795C7.98202 1.87883 7.98998 1.87766 7.99942 1.87607L7.89551 1.25977L7.7916 0.643464C7.79597 0.642726 7.79886 0.642317 7.79839 0.642385C7.79815 0.64242 7.79778 0.642472 7.79632 0.64268C7.79516 0.642844 7.79296 0.643156 7.79058 0.643502C7.78213 0.644728 7.75889 0.648104 7.73106 0.65422L7.86523 1.26465ZM7.89551 1.25977L7.79126 0.643521C7.79582 0.642749 7.79886 0.642319 7.79846 0.642376C7.79826 0.642405 7.79792 0.642454 7.79647 0.642659C7.79534 0.642819 7.79313 0.643131 7.79075 0.643476C7.78228 0.644703 7.75894 0.648089 7.73098 0.654238L7.86523 1.26465L7.99949 1.87506C7.98986 1.87718 7.98216 1.87857 7.97736 1.87938C7.97272 1.88017 7.96962 1.88061 7.96993 1.88057C7.97008 1.88055 7.97041 1.8805 7.9718 1.8803C7.97289 1.88015 7.97508 1.87984 7.9774 1.8795C7.98207 1.87883 7.99015 1.87763 7.99976 1.87601L7.89551 1.25977ZM8.02148 1.25195L8.04255 0.627308C8.04293 0.627321 8.04266 0.627315 8.0396 0.627181C8.03746 0.627087 8.03191 0.626837 8.0263 0.626627C8.01484 0.626199 7.99378 0.625538 7.96855 0.626177L7.98438 1.25098L8.0002 1.87578C7.99344 1.87595 7.9881 1.87592 7.98473 1.87587C7.98143 1.87583 7.9794 1.87575 7.97956 1.87575C7.98013 1.87577 7.98076 1.8758 7.9848 1.87598C7.98792 1.87612 7.99384 1.87638 8.00042 1.8766L8.02148 1.25195ZM7.98438 1.25098L7.99972 1.87579C8.01509 1.87541 8.0276 1.87458 8.03504 1.87402C8.03884 1.87373 8.04198 1.87347 8.04383 1.87331C8.04477 1.87323 8.04557 1.87316 8.04602 1.87312C8.0467 1.87306 8.04657 1.87307 8.04676 1.87305C8.04751 1.87299 8.04216 1.87347 8.03511 1.87391C8.02761 1.87438 8.01532 1.875 8 1.875V1.25V0.625C7.98206 0.625 7.96717 0.625722 7.95706 0.626354C7.94739 0.626959 7.93945 0.627666 7.93759 0.627829C7.93728 0.627856 7.93699 0.627881 7.9368 0.627898C7.93655 0.62792 7.9365 0.627925 7.93638 0.627935C7.93618 0.627953 7.93633 0.627939 7.93662 0.627914C7.93717 0.627867 7.93901 0.62771 7.94151 0.627522C7.94635 0.627159 7.95626 0.626479 7.96903 0.626165L7.98438 1.25098ZM8 1.25V1.875C7.97747 1.875 7.95941 1.87367 7.94841 1.87267C7.94281 1.87216 7.93834 1.87166 7.93561 1.87134C7.93299 1.87103 7.93114 1.87079 7.93137 1.87082C7.93173 1.87087 7.93138 1.87082 7.93244 1.87096C7.9331 1.87105 7.93427 1.8712 7.93565 1.87137C7.93834 1.87171 7.94292 1.87227 7.94848 1.87287C7.95935 1.87406 7.97771 1.87583 8.00033 1.8766L8.02148 1.25195L8.04264 0.627311C8.06168 0.627956 8.07647 0.629422 8.08377 0.630217C8.08755 0.630628 8.09034 0.630976 8.09124 0.63109C8.09136 0.631104 8.09289 0.631299 8.09016 0.630949C8.08769 0.630633 8.07627 0.629147 8.06237 0.627874C8.04779 0.626539 8.02614 0.625 8 0.625V1.25ZM7.65332 1.35449L8.00001 1.87452L8.00294 1.87257L7.65625 1.35254L7.30956 0.832508L7.30663 0.834461L7.65332 1.35449ZM7.65625 1.35254L8.00032 1.87431C7.99132 1.88024 7.98399 1.88462 7.97931 1.88732C7.97694 1.88869 7.97507 1.88974 7.97386 1.8904C7.97325 1.89074 7.97278 1.891 7.97247 1.89116C7.97216 1.89133 7.97199 1.89143 7.97198 1.89143C7.97197 1.89143 7.9721 1.89137 7.9724 1.89121C7.9727 1.89105 7.97312 1.89083 7.97373 1.89051C7.97436 1.89017 7.97503 1.88982 7.97597 1.88933C7.97684 1.88887 7.97796 1.88828 7.97913 1.88766C7.98354 1.88533 7.99162 1.88107 8.00083 1.87597L7.69824 1.3291L7.39565 0.782235C7.39788 0.781 7.3989 0.780486 7.39623 0.78189C7.39526 0.782405 7.38798 0.786221 7.38214 0.789348C7.36924 0.796252 7.34265 0.810681 7.31218 0.830772L7.65625 1.35254ZM7.69824 1.3291L7.39538 0.782383C7.39634 0.781851 7.39635 0.781863 7.39284 0.783737C7.39057 0.784943 7.38359 0.788652 7.37686 0.792309C7.363 0.799846 7.33656 0.814491 7.30638 0.834629L7.65332 1.35449L8.00026 1.87436C7.99186 1.87996 7.98506 1.88408 7.98075 1.88661C7.97654 1.88908 7.97388 1.89052 7.9741 1.8904C7.97417 1.89036 7.97462 1.89012 7.97581 1.88948C7.97733 1.88867 7.97826 1.88818 7.9809 1.88677C7.98499 1.88459 7.9926 1.88053 8.0011 1.87582L7.69824 1.3291Z" fill="#111827"/>
</svg>
