<svg width="20" height="20" viewBox="0 0 20 20" fill="none" xmlns="http://www.w3.org/2000/svg">
<path fill-rule="evenodd" clip-rule="evenodd" d="M8.12493 20C7.92269 20.001 7.73817 19.9443 7.57137 19.83C7.40456 19.7156 7.28518 19.564 7.21321 19.375L5.65696 15.3281C5.62509 15.2456 5.5779 15.1732 5.5154 15.1107C5.4529 15.0482 5.38042 15.001 5.29797 14.9691L1.24993 13.4117C1.06119 13.3393 0.909561 13.2197 0.79505 13.0531C0.680539 12.8865 0.623283 12.7021 0.623283 12.5C0.623283 12.2978 0.680539 12.1134 0.79505 11.9468C0.909561 11.7802 1.06119 11.6607 1.24993 11.5883L5.2968 10.032C5.37925 10.0001 5.45173 9.95295 5.51423 9.89044C5.57673 9.82794 5.62392 9.75547 5.65579 9.67302L7.21321 5.62497C7.28565 5.43623 7.40517 5.28461 7.57177 5.17009C7.73838 5.05558 7.92276 4.99833 8.12493 4.99833C8.32709 4.99833 8.51147 5.05558 8.67808 5.17009C8.84468 5.28461 8.96421 5.43623 9.03664 5.62497L10.5929 9.67185C10.6248 9.75429 10.6719 9.82677 10.7345 9.88927C10.797 9.95178 10.8694 9.99896 10.9519 10.0308L14.9753 11.5789C15.1719 11.6517 15.3297 11.7744 15.4488 11.947C15.5678 12.1195 15.6266 12.3106 15.6249 12.5203C15.6219 12.7188 15.5634 12.8994 15.4494 13.062C15.3354 13.2246 15.1855 13.3411 14.9999 13.4117L10.9531 14.9679C10.8706 14.9998 10.7981 15.047 10.7356 15.1095C10.6731 15.172 10.6259 15.2445 10.5941 15.3269L9.03664 19.375C8.96468 19.564 8.84529 19.7156 8.67848 19.83C8.51168 19.9443 8.32716 20.001 8.12493 20ZM3.43743 6.87497C3.31891 6.87497 3.21079 6.84142 3.11309 6.77433C3.01538 6.70724 2.94524 6.61839 2.90266 6.50778L2.24407 4.79528C2.22963 4.75741 2.20808 4.72414 2.17942 4.69548C2.15076 4.66681 2.11749 4.64527 2.07961 4.63083L0.367114 3.97224C0.256519 3.92965 0.167684 3.8595 0.100611 3.7618C0.0335369 3.66409 0 3.55598 0 3.43747C3.90625e-08 3.31896 0.0335369 3.21085 0.100611 3.11315C0.167684 3.01544 0.256519 2.94529 0.367114 2.9027L2.07961 2.24411C2.11745 2.22961 2.15069 2.20804 2.17934 2.17939C2.20799 2.15074 2.22957 2.11749 2.24407 2.07966L2.8968 0.382392C2.93431 0.28058 2.99539 0.195732 3.08003 0.127849C3.16467 0.0599658 3.26076 0.018772 3.36829 0.00426729C3.49862 -0.0115771 3.62006 0.0143133 3.7326 0.0819388C3.84514 0.149564 3.925 0.244637 3.97219 0.367158L4.63079 2.07966C4.64529 2.11749 4.66686 2.15074 4.69551 2.17939C4.72416 2.20804 4.7574 2.22961 4.79524 2.24411L6.50774 2.9027C6.61833 2.94529 6.70717 3.01544 6.77424 3.11315C6.84131 3.21085 6.87485 3.31896 6.87485 3.43747C6.87485 3.55598 6.84131 3.66409 6.77424 3.7618C6.70717 3.8595 6.61833 3.92965 6.50774 3.97224L4.79524 4.63083C4.75736 4.64527 4.72409 4.66681 4.69543 4.69548C4.66677 4.72414 4.64522 4.75741 4.63079 4.79528L3.97219 6.50778C3.92962 6.61839 3.85947 6.70724 3.76177 6.77433C3.66406 6.84142 3.55595 6.87496 3.43743 6.87497ZM15.6249 9.99997C15.4956 9.99993 15.3777 9.9633 15.2711 9.89007C15.1646 9.81684 15.0881 9.71988 15.0417 9.59919L14.1495 7.28005C14.1337 7.23873 14.1101 7.20242 14.0788 7.17112C14.0475 7.13982 14.0112 7.11623 13.9698 7.10036L11.6507 6.20817C11.5301 6.16171 11.4333 6.0852 11.3601 5.97865C11.287 5.8721 11.2504 5.7542 11.2504 5.62497C11.2504 5.49574 11.287 5.37784 11.3601 5.27129C11.4333 5.16474 11.5301 5.08823 11.6507 5.04177L13.9698 4.14958C14.0112 4.13371 14.0475 4.11013 14.0788 4.07883C14.1101 4.04753 14.1337 4.01122 14.1495 3.96989L15.0351 1.66716C15.0763 1.55623 15.143 1.46373 15.2353 1.38966C15.3276 1.3156 15.4323 1.27046 15.5495 1.25427C15.6918 1.23705 15.8243 1.26539 15.947 1.33928C16.0697 1.41318 16.1568 1.517 16.2081 1.65075L17.1003 3.96989C17.1162 4.01121 17.1398 4.04753 17.1711 4.07883C17.2024 4.11013 17.2387 4.13371 17.28 4.14958L19.5991 5.04177C19.7197 5.08823 19.8166 5.16474 19.8897 5.27129C19.9629 5.37784 19.9994 5.49574 19.9994 5.62497C19.9994 5.7542 19.9629 5.8721 19.8897 5.97865C19.8166 6.0852 19.7197 6.16171 19.5991 6.20817L17.28 7.10036C17.2387 7.11623 17.2024 7.13982 17.1711 7.17112C17.1398 7.20242 17.1162 7.23873 17.1003 7.28005L16.2081 9.59919C16.1617 9.71988 16.0853 9.81684 15.9787 9.89007C15.8722 9.9633 15.7542 9.99993 15.6249 9.99997Z" fill="#111827"/>
</svg>
