<svg width="16" height="19" viewBox="0 0 16 19" fill="none" xmlns="http://www.w3.org/2000/svg">
<path fill-rule="evenodd" clip-rule="evenodd" d="M2.37497 3.375C1.60747 2.27 2.28247 0.9225 3.44747 0.25L7.99997 8.0325L12.5525 0.25C13.7175 0.9225 14.3925 2.27 13.625 3.375L9.01247 9.7625L10.9575 13.0887C11.9463 12.5851 12.9255 12.603 13.8952 13.1426C14.8649 13.6822 15.3964 14.5048 15.4897 15.6106C15.583 16.7163 15.1969 17.6164 14.3313 18.3109C13.4658 19.0053 12.5034 19.1871 11.4441 18.8562C10.3849 18.5254 9.69706 17.8282 9.38058 16.7646C9.06411 15.7009 9.2589 14.7411 9.96497 13.885L7.99997 11.1625L6.03497 13.8837C6.74103 14.7398 6.93583 15.6997 6.61936 16.7633C6.30288 17.8269 5.61503 18.5241 4.5558 18.855C3.49657 19.1858 2.53417 19.004 1.6686 18.3096C0.803027 17.6152 0.416895 16.7151 0.510201 15.6093C0.603507 14.5036 1.13501 13.6809 2.1047 13.1413C3.07439 12.6018 4.05365 12.5838 5.04247 13.0875L6.98747 9.7625L2.37497 3.375ZM5.49997 15.875C5.49997 15.3572 5.31691 14.9153 4.95079 14.5492C4.58468 14.1831 4.14273 14 3.62497 14C3.1072 14 2.66526 14.1831 2.29914 14.5492C1.93303 14.9153 1.74997 15.3572 1.74997 15.875C1.74997 16.3928 1.93303 16.8347 2.29914 17.2008C2.66526 17.5669 3.1072 17.75 3.62497 17.75C4.14273 17.75 4.58468 17.5669 4.95079 17.2008C5.31691 16.8347 5.49997 16.3928 5.49997 15.875ZM14.25 15.875C14.25 15.3572 14.0669 14.9153 13.7008 14.5492C13.3347 14.1831 12.8927 14 12.375 14C11.8572 14 11.4153 14.1831 11.0491 14.5492C10.683 14.9153 10.5 15.3572 10.5 15.875C10.5 16.3928 10.683 16.8347 11.0491 17.2008C11.4153 17.5669 11.8572 17.75 12.375 17.75C12.8927 17.75 13.3347 17.5669 13.7008 17.2008C14.0669 16.8347 14.25 16.3928 14.25 15.875Z" fill="#111827"/>
</svg>
