<svg width="20" height="20" viewBox="0 0 20 20" fill="none" xmlns="http://www.w3.org/2000/svg">
<g clip-path="url(#clip0_1114_3991)">
<mask id="mask0_1114_3991" style="mask-type:luminance" maskUnits="userSpaceOnUse" x="0" y="0" width="20" height="20">
<rect width="20" height="20" fill="white"/>
</mask>
<g mask="url(#mask0_1114_3991)">
<path fill-rule="evenodd" clip-rule="evenodd" d="M9.0625 16.25C8.96265 16.25 8.86531 16.2344 8.77048 16.2031C8.67565 16.1719 8.58809 16.1266 8.50781 16.0672C8.50335 16.0641 8.49897 16.0609 8.49467 16.0576C8.49037 16.0542 8.48616 16.0508 8.48203 16.0473L4.9125 13.125H2.1875C1.92862 13.125 1.70765 13.0335 1.52459 12.8504C1.34153 12.6674 1.25 12.4464 1.25 12.1875V7.81252C1.25 7.55363 1.34153 7.33266 1.52459 7.1496C1.70765 6.96654 1.92862 6.87502 2.1875 6.87502H4.91211L8.48125 3.95275C8.48538 3.94921 8.48959 3.94579 8.49389 3.94246C8.49819 3.93914 8.50257 3.93593 8.50703 3.93283C8.64939 3.82813 8.80862 3.76844 8.98472 3.75378C9.16082 3.73912 9.32773 3.77165 9.48544 3.85137C9.64315 3.93109 9.76831 4.0462 9.86092 4.1967C9.95354 4.3472 9.9999 4.5108 10 4.68752V15.3125C10 15.5714 9.90847 15.7924 9.72541 15.9754C9.54235 16.1585 9.32138 16.25 9.0625 16.25ZM12.5 13.125C12.2674 13.125 12.0901 13.0259 11.968 12.8279C11.846 12.6299 11.8373 12.427 11.9418 12.2192C12.3125 11.482 12.5004 10.7348 12.5004 10C12.5004 9.24298 12.3184 8.51798 11.9437 7.784C11.8691 7.63085 11.8588 7.47349 11.9128 7.31191C11.9669 7.15034 12.0698 7.03083 12.2215 6.95341C12.3733 6.87598 12.5304 6.86281 12.693 6.9139C12.8555 6.96499 12.9769 7.0657 13.057 7.21603C13.523 8.1297 13.75 9.04064 13.75 10C13.75 10.932 13.5156 11.8676 13.0586 12.7809C13.0055 12.8864 12.9287 12.9702 12.8281 13.0321C12.7275 13.0941 12.6181 13.1251 12.5 13.125Z" fill="#111827"/>
<path d="M14.3751 15C14.2635 15 14.1593 14.9721 14.0626 14.9163C13.9659 14.8605 13.8896 14.7843 13.8338 14.6876C13.7779 14.5909 13.75 14.4867 13.75 14.375C13.75 14.2634 13.7779 14.1592 13.8337 14.0625C14.5724 12.777 15.0001 11.6996 15.0001 10C15.0001 8.27461 14.5732 7.20469 13.8353 5.93985C13.7511 5.79102 13.7313 5.63408 13.7759 5.469C13.8205 5.30393 13.9167 5.17832 14.0644 5.09218C14.2121 5.00603 14.3688 4.98418 14.5344 5.02663C14.7001 5.06908 14.8269 5.16359 14.915 5.31016C15.7392 6.72305 16.2501 8.00039 16.2501 10C16.2501 11.9699 15.74 13.2535 14.9169 14.6875C14.8611 14.7843 14.7847 14.8606 14.6879 14.9164C14.5911 14.9722 14.4869 15.0001 14.3751 15Z" fill="#111827"/>
<path d="M16.25 16.875C16.1353 16.875 16.0288 16.8456 15.9303 16.7868C15.8319 16.7281 15.7554 16.6484 15.7008 16.5475C15.6462 16.4467 15.6213 16.339 15.626 16.2245C15.6307 16.1099 15.6643 16.0047 15.7269 15.9086C16.791 14.2762 17.5 12.6469 17.5 10C17.5 7.40239 16.7898 5.75708 15.723 4.08637C15.63 3.94074 15.6021 3.78354 15.6393 3.61477C15.6765 3.446 15.768 3.31515 15.9137 3.22222C16.0595 3.12928 16.2167 3.10152 16.3854 3.13892C16.5542 3.17632 16.6849 3.26792 16.7777 3.41372C17.9613 5.26918 18.75 7.09926 18.75 10C18.75 12.5293 18.1773 14.4387 16.7734 16.5914C16.7157 16.6799 16.6405 16.7493 16.5476 16.7996C16.4548 16.8499 16.3556 16.875 16.25 16.875Z" fill="#111827"/>
</g>
</g>
<defs>
<clipPath id="clip0_1114_3991">
<rect width="20" height="20" fill="white"/>
</clipPath>
</defs>
</svg>
