<svg width="18" height="18" viewBox="0 0 18 18" fill="none" xmlns="http://www.w3.org/2000/svg">
<path d="M11.1934 0.200195C11.4386 0.200195 11.6742 0.297354 11.8477 0.470703C12.0211 0.644174 12.1191 0.879675 12.1191 1.125C12.1191 1.37033 12.0211 1.60583 11.8477 1.7793C11.6742 1.95265 11.4386 2.0498 11.1934 2.0498H4.49902C3.85013 2.05184 3.22837 2.31069 2.76953 2.76953C2.31069 3.22837 2.05184 3.85013 2.0498 4.49902V13.501C2.05184 14.1499 2.31069 14.7716 2.76953 15.2305C3.22837 15.6893 3.85013 15.9482 4.49902 15.9502H13.501C14.1499 15.9482 14.7716 15.6893 15.2305 15.2305C15.6893 14.7716 15.9482 14.1499 15.9502 13.501V6.80664C15.9502 6.56141 16.0474 6.3258 16.2207 6.15234C16.3942 5.97887 16.6297 5.88086 16.875 5.88086C17.1203 5.88086 17.3558 5.97887 17.5293 6.15234C17.7026 6.3258 17.7998 6.56141 17.7998 6.80664V13.5C17.7962 14.6393 17.3428 15.7315 16.5371 16.5371C15.7313 17.3429 14.6386 17.7964 13.499 17.7998H4.50098C3.36143 17.7964 2.26867 17.3429 1.46289 16.5371C0.707576 15.7818 0.261811 14.7746 0.206055 13.7129L0.200195 13.499V4.50098C0.203599 3.36143 0.657109 2.26867 1.46289 1.46289C2.21821 0.707576 3.22541 0.261811 4.28711 0.206055L4.50098 0.200195H11.1934ZM15.4658 1.90625C15.7064 1.90757 15.9363 2.00467 16.1064 2.1748C16.2766 2.34494 16.3737 2.57484 16.375 2.81543C16.3762 3.05617 16.2818 3.28802 16.1133 3.45996L9.64648 9.92773L9.64258 9.93066C9.55966 10.0177 9.46008 10.0874 9.34961 10.1348C9.23917 10.1821 9.12014 10.2061 9 10.2061C8.87986 10.2061 8.76083 10.1821 8.65039 10.1348C8.56752 10.0993 8.49106 10.0506 8.42285 9.99219L8.35742 9.93066L8.35059 9.92383L8.28906 9.8584C8.23065 9.79018 8.18198 9.71373 8.14648 9.63086C8.0992 9.52042 8.0752 9.40139 8.0752 9.28125C8.0752 9.16111 8.0992 9.04208 8.14648 8.93164C8.19381 8.82117 8.26359 8.72159 8.35059 8.63867L8.35352 8.63477L14.8203 2.16699L14.8213 2.16797C14.9932 1.99947 15.2251 1.90503 15.4658 1.90625Z" fill="#862633" stroke="white" stroke-width="0.4"/>
</svg>
