<svg width="18" height="18" viewBox="0 0 18 18" fill="none" xmlns="http://www.w3.org/2000/svg">
<path d="M14.0896 9.00004C14.0896 9.00004 17.1431 5.94646 17.1431 3.91075C17.1431 2.22492 15.7754 0.857178 14.0896 0.857178C12.4037 0.857178 11.036 2.22492 11.036 3.91075C11.036 4.84591 11.6785 5.99418 12.3751 6.96432H11.036C9.35017 6.96432 7.98242 8.33207 7.98242 10.0179C7.98242 11.7037 9.35017 13.0715 11.036 13.0715H14.0896C14.6526 13.0715 15.1074 13.5263 15.1074 14.0893C15.1074 14.6523 14.6526 15.1072 14.0896 15.1072H6.85642C6.65921 15.4125 6.45564 15.7052 6.25207 15.9724C5.91172 16.424 5.57455 16.828 5.29782 17.1429H14.0896C15.7754 17.1429 17.1431 15.7751 17.1431 14.0893C17.1431 12.4035 15.7754 11.0357 14.0896 11.0357H11.036C10.473 11.0357 10.0181 10.5809 10.0181 10.0179C10.0181 9.45489 10.473 9.00004 11.036 9.00004H14.0896ZM14.0896 4.92861C13.5266 4.92861 13.0717 4.47375 13.0717 3.91075C13.0717 3.34775 13.5266 2.89289 14.0896 2.89289C14.6526 2.89289 15.1074 3.34775 15.1074 3.91075C15.1074 4.47375 14.6526 4.92861 14.0896 4.92861ZM5.62545 15.1072C6.32204 14.137 6.96457 12.9888 6.96457 12.0536C6.96457 10.3678 5.59682 9.00004 3.91099 9.00004C2.22517 9.00004 0.857422 10.3678 0.857422 12.0536C0.857422 14.0893 3.91099 17.1429 3.91099 17.1429C3.91099 17.1429 4.02232 17.0316 4.20363 16.8375C4.21635 16.8248 4.22589 16.8121 4.23862 16.7994C4.34358 16.688 4.46445 16.5513 4.60123 16.3922C4.60759 16.3859 4.61395 16.3795 4.62031 16.3731C4.91931 16.0296 5.27874 15.5907 5.62545 15.1072ZM3.91099 13.0715C3.34799 13.0715 2.89314 12.6166 2.89314 12.0536C2.89314 11.4906 3.34799 11.0357 3.91099 11.0357C4.474 11.0357 4.92885 11.4906 4.92885 12.0536C4.92885 12.6166 4.474 13.0715 3.91099 13.0715Z" fill="#862633"/>
</svg>
