<svg width="21" height="19" viewBox="0 0 21 19" fill="none" xmlns="http://www.w3.org/2000/svg">
<path d="M19.6152 0.799805C20.0414 0.800033 20.3789 1.13825 20.3789 1.56445C20.3787 1.99048 20.0413 2.3279 19.6152 2.32812H15.8662V6.07715C15.866 6.50317 15.5286 6.8406 15.1025 6.84082H11.3535V10.5898C11.3533 11.0159 11.0159 11.3533 10.5898 11.3535H6.84082V15.1025C6.8406 15.5286 6.50317 15.866 6.07715 15.8662H1.56445C1.13825 15.8662 0.800025 15.5287 0.799805 15.1025C0.799805 14.6762 1.13811 14.3379 1.56445 14.3379H5.3125V10.5898C5.3125 10.1635 5.6508 9.8252 6.07715 9.8252H9.8252V6.07715C9.8252 5.6508 10.1635 5.3125 10.5898 5.3125H14.3379V1.56445C14.3379 1.13811 14.6762 0.799805 15.1025 0.799805H19.6152Z" fill="#2563EB" stroke="#2563EB" stroke-width="0.4"/>
<path d="M20.3789 15.1027C20.3786 15.5287 20.0413 15.8662 19.6152 15.8663C19.1891 15.8663 18.8508 15.5288 18.8506 15.1027V12.4269L13.3936 17.8839C13.2366 18.0408 13.0464 18.0997 12.8457 18.0997C12.645 18.0997 12.4548 18.0408 12.2979 17.8839V17.8829C11.9881 17.5954 12.0012 17.1074 12.2979 16.8107H12.2988L17.7754 11.3761H15.1025C14.6763 11.3761 14.3381 11.0386 14.3379 10.6124C14.3379 10.1861 14.6762 9.84778 15.1025 9.84778H19.8105L19.8447 9.88293C19.8503 9.88468 19.8561 9.88524 19.8604 9.88684C19.8652 9.88866 19.8697 9.89084 19.874 9.8927H19.9238L19.9609 9.92981C19.9682 9.93239 19.9749 9.93551 19.9814 9.9386H19.9912L20.042 9.9718C20.1316 10.0315 20.1951 10.0961 20.2549 10.1857L20.2891 10.2355V10.2443L20.3008 10.2667C20.3223 10.2925 20.3371 10.317 20.3438 10.337C20.3466 10.3456 20.346 10.3547 20.3477 10.3624L20.3789 10.3937V15.1027Z" fill="#2563EB" stroke="#2563EB" stroke-width="0.4"/>
</svg>
