<svg width="16" height="20" viewBox="0 0 16 20" fill="none" xmlns="http://www.w3.org/2000/svg">
<path d="M11.7573 5.81856C6.83462 2.86928 9.0623 0 9.0623 0C4.27662 2.48743 3.21717 6.28404 4.38942 11.0844C2.66528 9.82245 2.41553 8.32781 2.47192 6.35677C0.276475 8.47691 -0.118303 10.7207 0.0267172 13.1499C0.12978 15.0046 1.02136 16.7518 2.51579 18.0278C4.01022 19.3038 5.9923 20.0102 8.04925 19.9999C10.1062 19.9896 12.0795 19.2634 13.5581 17.9724C15.0368 16.6815 15.9068 14.9255 15.987 13.0699C16.1562 9.89519 14.6657 7.56049 11.7573 5.81856ZM8.53459 18.3285C7.43507 18.3319 6.35937 18.0394 5.44485 17.4884C5.66238 17.5078 5.87991 17.5175 6.09744 17.5175C7.98293 17.5098 9.78848 16.829 11.1199 15.6237C12.4512 14.4184 13.2003 12.7865 13.2034 11.0844C13.2034 10.888 13.1927 10.6916 13.1712 10.4952C13.7823 11.3143 14.1103 12.2788 14.1138 13.2663C14.1149 13.9301 13.9711 14.5876 13.6907 15.2013C13.4103 15.8149 12.9987 16.3727 12.4795 16.8428C11.9603 17.3128 11.3436 17.686 10.6647 17.9409C9.98574 18.1958 9.25783 18.3275 8.5225 18.3285H8.53459Z" fill="#9333EA"/>
</svg>
