<svg width="19" height="22" viewBox="0 0 19 22" fill="none" xmlns="http://www.w3.org/2000/svg">
<path fill-rule="evenodd" clip-rule="evenodd" d="M9.04762 3.38462C9.04762 4.31925 8.23744 5.07692 7.2381 5.07692C6.23872 5.07692 5.42857 4.31925 5.42857 3.38462C5.42857 2.44998 6.23872 1.69231 7.2381 1.69231C8.23744 1.69231 9.04762 2.44998 9.04762 3.38462ZM10.8571 3.38462C10.8571 4.96171 9.70375 6.28687 8.14286 6.6626V8.46154H14.0238V10.1538H8.14286V13.5385H17.0275L17.9323 17.7692H19V19.4615H16.4487L15.5439 15.2308H14.4762C14.4762 18.9693 11.2356 22 7.2381 22C3.2406 22 0 18.9693 0 15.2308C0 11.7788 2.76287 8.93031 6.33333 8.51391V6.6626C4.77241 6.28687 3.61905 4.96171 3.61905 3.38462C3.61905 1.51535 5.23936 0 7.2381 0C9.2369 0 10.8571 1.51535 10.8571 3.38462ZM6.33333 15.2308H12.6667C12.6667 18.0347 10.2362 20.3077 7.2381 20.3077C4.23998 20.3077 1.80952 18.0347 1.80952 15.2308C1.80952 12.7152 3.76587 10.6269 6.33333 10.224V15.2308Z" fill="#FF9500"/>
</svg>
