<svg width="21" height="25" viewBox="0 0 21 25" fill="none" xmlns="http://www.w3.org/2000/svg">
<path fill-rule="evenodd" clip-rule="evenodd" d="M15.098 16.1524C15.5411 18.3276 15.1688 20.4765 13.2101 22.5546C11.7512 24.0904 10.0151 24.8633 7.98966 24.8633C5.97027 24.8633 4.2382 24.0904 2.7793 22.5546C1.59762 21.3061 0.994633 20.0293 0.798359 18.7323H2.7186L3.16578 17.6963L5.48262 21.3648L7.42916 16.7736L9.54366 21.0694L11.5064 18.7465H12.2793V17.581H10.9682L9.80266 18.9609L7.35227 13.9833L5.2823 18.8679L2.97558 15.2156L1.95981 17.5668H0.727539C0.828711 13.4612 4.46078 9.21203 6.37293 5.18134C9.3575 -1.28759 6.79583 -1.65585 9.02363 3.83373C7.96538 5.1348 7.33204 6.792 7.33204 8.59893C7.33204 10.6851 8.17784 12.575 9.54568 13.9428C10.9135 15.3107 12.8014 16.1565 14.8896 16.1565C14.9584 16.1565 15.0292 16.1544 15.098 16.1524ZM15.3691 8.06879C15.6868 8.24078 15.9033 8.57667 15.9033 8.96517C15.9033 9.52566 15.448 9.98094 14.8876 9.98094C14.3271 9.98094 13.8718 9.52566 13.8718 8.96517C13.8718 8.57869 14.0883 8.24078 14.408 8.06879V5.91787C14.408 5.6528 14.6225 5.43629 14.8896 5.43629C15.1546 5.43629 15.3712 5.65078 15.3712 5.91787V8.06879H15.3691Z" fill="#0074C4"/>
<path d="M17.9343 3.41082C18.3694 3.67791 18.768 4.00368 19.1261 4.35981C20.2107 5.44437 20.8825 6.94374 20.8825 8.59891C20.8825 10.2541 20.2127 11.7534 19.1261 12.838C18.0416 13.9226 16.5422 14.5944 14.887 14.5944C13.2319 14.5944 11.7345 13.9226 10.6479 12.838C9.56338 11.7534 8.8916 10.2541 8.8916 8.59891C8.8916 6.94374 9.56136 5.44639 10.6479 4.36183C11.0203 3.98952 11.4391 3.64958 11.8984 3.37642C13.6447 2.34042 16.2023 2.35053 17.9343 3.41082ZM15.405 3.59495V4.33148H14.369V3.59495C13.1853 3.71635 12.1251 4.24649 11.3298 5.04171C10.5286 5.84299 9.9964 6.91541 9.87904 8.10721H10.5933V9.14321H9.88511C10.0106 10.3148 10.5387 11.367 11.3298 12.1581C12.1251 12.9533 13.1874 13.4855 14.369 13.6049V12.9189H15.405V13.6049C16.5888 13.4835 17.649 12.9533 18.4463 12.1581C19.2354 11.369 19.7656 10.3168 19.891 9.14321H19.1828V8.10721H19.8971C19.7817 6.91339 19.2496 5.84299 18.4483 5.04171C17.649 4.24649 16.5867 3.71635 15.405 3.59495Z" fill="#0074C4"/>
</svg>
