<svg width="17" height="23" viewBox="0 0 17 23" fill="none" xmlns="http://www.w3.org/2000/svg">
<path fill-rule="evenodd" clip-rule="evenodd" d="M2.33061 0.0101893C1.39378 0.0109526 0.635008 0.771002 0.635743 1.7078L0.647334 15.843C0.648125 16.7798 1.40815 17.5386 2.34497 17.5378L5.03065 17.5356C5.42096 17.5353 5.73713 17.2186 5.73679 16.8283C5.73651 16.438 6.05269 16.1213 6.44299 16.1209L10.6835 16.1175C11.0739 16.1172 11.3906 16.4333 11.3909 16.8236C11.3912 17.214 11.7079 17.5302 12.0982 17.5298L14.7839 17.5276C15.7207 17.5269 16.4795 16.7668 16.4787 15.83L16.4672 1.69483C16.4664 0.758037 15.7063 -0.00076837 14.7696 5.83913e-07L2.33061 0.0101893ZM13.6406 2.26254L3.46323 2.27087L3.4716 12.4482L13.6489 12.4399L13.6406 2.26254ZM4.0387 14.4267C4.03842 14.1144 4.29138 13.8611 4.60366 13.8608L6.86518 13.859C7.17745 13.8587 7.43081 14.1117 7.43104 14.4239C7.43132 14.7361 7.17841 14.9895 6.86614 14.9898L4.60456 14.9916C4.29229 14.9919 4.03893 14.7389 4.0387 14.4267ZM10.2577 13.8561C9.94546 13.8564 9.6925 14.1098 9.69278 14.4221C9.69301 14.7343 9.94636 14.9872 10.2586 14.987L12.5202 14.9851C12.8325 14.9849 13.0854 14.7315 13.0851 14.4192C13.0849 14.107 12.8315 13.8541 12.5193 13.8543L10.2577 13.8561Z" fill="#1A9B8E"/>
<path d="M10.8182 8.06318C10.8192 9.26942 9.82482 10.2179 8.5583 10.219C7.29179 10.22 6.29594 9.27309 6.29492 8.06691C6.29396 6.86073 8.55339 4.18799 8.55339 4.18799C8.55339 4.18799 10.8173 6.94316 10.8182 8.06318Z" fill="#1A9B8E"/>
<path fill-rule="evenodd" clip-rule="evenodd" d="M10.8249 16.4001L6.30164 16.4038L6.30582 21.4924L10.8291 21.4887L10.8249 16.4001ZM5.16992 15.2739L5.17597 22.6241L11.9609 22.6186L11.9548 15.2683L5.16992 15.2739Z" fill="#1A9B8E"/>
<path d="M9.69718 19.228C9.69769 19.8525 9.19182 20.3592 8.56727 20.3597C7.94277 20.3602 7.43606 19.8544 7.43555 19.2299C7.43504 18.6053 7.94091 18.0986 8.56546 18.0981C9.18995 18.0976 9.69667 18.6034 9.69718 19.228Z" fill="#1A9B8E"/>
</svg>
