<svg width="21" height="21" viewBox="0 0 21 21" fill="none" xmlns="http://www.w3.org/2000/svg">
<path fill-rule="evenodd" clip-rule="evenodd" d="M13 0.135986C10.5989 0.138139 8.34367 1.28883 6.93277 3.23171C5.52187 5.17459 5.12556 7.67518 5.86656 9.95911L0.469375 15.3554C0.328758 15.4961 0.249844 15.687 0.25 15.886V19.636C0.25 20.0502 0.585786 20.386 1 20.386H4.75C5.16421 20.386 5.5 20.0502 5.5 19.636V18.136H7C7.41421 18.136 7.75 17.8002 7.75 17.386V15.886H9.25C9.44897 15.8861 9.63985 15.8072 9.78063 15.6666L10.6769 14.7694C13.4932 15.6838 16.584 14.8556 18.5657 12.6554C20.5474 10.4552 21.0491 7.29501 19.8462 4.58927C18.6433 1.88352 15.9611 0.138785 13 0.135986ZM13 13.636C12.2408 13.6373 11.4883 13.4938 10.7828 13.2132C10.5004 13.0906 10.1718 13.1531 9.95406 13.3707L8.93969 14.386H7C6.58579 14.386 6.25 14.7218 6.25 15.136V16.636H4.75C4.33579 16.636 4 16.9718 4 17.386V18.886H1.75V16.1963L7.26531 10.6819C7.48292 10.4642 7.54537 10.1356 7.42281 9.85317C6.44917 7.40487 7.18671 4.60784 9.24099 2.95796C11.2953 1.30808 14.1855 1.19144 16.3661 2.67043C18.5466 4.14941 19.5072 6.87791 18.734 9.39671C17.9608 11.9155 15.6348 13.6352 13 13.636ZM16 5.76099C16 6.38231 15.4963 6.88599 14.875 6.88599C14.2537 6.88599 13.75 6.38231 13.75 5.76099C13.75 5.13967 14.2537 4.63599 14.875 4.63599C15.4963 4.63599 16 5.13967 16 5.76099Z" fill="#638773"/>
</svg>
