<svg width="20" height="19" viewBox="0 0 20 19" fill="none" xmlns="http://www.w3.org/2000/svg">
<path fill-rule="evenodd" clip-rule="evenodd" d="M19.4163 7.01161L10.4163 1.01161C10.1642 0.843462 9.83578 0.843462 9.58375 1.01161L0.58375 7.01161C0.375087 7.15083 0.249837 7.38514 0.25 7.63599V17.386C0.25 18.2144 0.921573 18.886 1.75 18.886H18.25C19.0784 18.886 19.75 18.2144 19.75 17.386V7.63599C19.7502 7.38514 19.6249 7.15083 19.4163 7.01161ZM7.0675 12.886L1.75 16.636V9.09192L7.0675 12.886ZM8.60219 13.636H11.3978L16.7069 17.386H3.29313L8.60219 13.636ZM12.9325 12.886L18.25 9.09192V16.636L12.9325 12.886ZM10 2.53692L17.6791 7.65661L11.3978 12.136H8.60406L2.32281 7.65661L10 2.53692Z" fill="#638773"/>
</svg>
