<svg width="20" height="20" viewBox="0 0 20 20" fill="none" xmlns="http://www.w3.org/2000/svg">
<path fill-rule="evenodd" clip-rule="evenodd" d="M19.6488 18.511C18.2209 16.0425 16.0206 14.2725 13.4528 13.4335C16.0635 11.8793 17.3141 8.77237 16.5082 5.84288C15.7022 2.9134 13.0383 0.883436 10 0.883436C6.96167 0.883436 4.29779 2.9134 3.49182 5.84288C2.68585 8.77237 3.93645 11.8793 6.54719 13.4335C3.97938 14.2716 1.77906 16.0416 0.35125 18.511C0.208704 18.7434 0.203527 19.0349 0.337731 19.2722C0.471935 19.5096 0.724375 19.6554 0.997024 19.6531C1.26967 19.6507 1.51958 19.5006 1.64969 19.261C3.41594 16.2085 6.53781 14.386 10 14.386C13.4622 14.386 16.5841 16.2085 18.3503 19.261C18.4804 19.5006 18.7303 19.6507 19.003 19.6531C19.2756 19.6554 19.5281 19.5096 19.6623 19.2722C19.7965 19.0349 19.7913 18.7434 19.6488 18.511ZM4.75 7.63599C4.75 4.73649 7.1005 2.38599 10 2.38599C12.8995 2.38599 15.25 4.73649 15.25 7.63599C15.25 10.5355 12.8995 12.886 10 12.886C7.10179 12.8829 4.7531 10.5342 4.75 7.63599Z" fill="#638773"/>
</svg>
