<svg width="19" height="17" viewBox="0 0 19 17" fill="none" xmlns="http://www.w3.org/2000/svg">
<path fill-rule="evenodd" clip-rule="evenodd" d="M16.285 8.64501C16.9921 7.9268 17.3849 6.95713 17.377 5.94931C17.3691 4.94149 16.9612 3.97808 16.243 3.27101C15.8874 2.92091 15.4663 2.64427 15.0037 2.45691C14.5412 2.26955 14.0463 2.17512 13.5473 2.17902C12.5395 2.18689 11.5761 2.5948 10.869 3.31301C10.677 3.50501 10.433 3.74068 10.137 4.02001L9.31399 4.79501L8.49099 4.02001C8.19433 3.74001 7.94999 3.50434 7.75799 3.31301C7.04536 2.60038 6.07881 2.20002 5.07099 2.20002C4.06317 2.20002 3.09663 2.60038 2.38399 3.31301C0.915994 4.78201 0.898994 7.15701 2.32999 8.63301L9.31399 15.617L16.285 8.64501ZM1.53499 2.46501C1.9993 2.00058 2.55056 1.63216 3.15727 1.38081C3.76399 1.12945 4.41427 1.00008 5.07099 1.00008C5.72771 1.00008 6.378 1.12945 6.98472 1.38081C7.59143 1.63216 8.14268 2.00058 8.60699 2.46501C8.78899 2.64768 9.02466 2.87501 9.31399 3.14701C9.60199 2.87501 9.83766 2.64734 10.021 2.46401C10.9515 1.51918 12.2192 0.982685 13.5453 0.972558C14.8714 0.962431 16.1472 1.4795 17.092 2.41001C18.0368 3.34052 18.5733 4.60826 18.5834 5.93433C18.5936 7.2604 18.0765 8.53618 17.146 9.48101L10.021 16.607C9.83347 16.7945 9.57916 16.8998 9.31399 16.8998C9.04883 16.8998 8.79452 16.7945 8.60699 16.607L1.47999 9.48001C0.566035 8.53741 0.0595042 7.27314 0.0697949 5.96024C0.0800856 4.64734 0.606371 3.39117 1.53499 2.46301V2.46501Z" fill="#862633"/>
</svg>
