<svg width="33" height="33" viewBox="0 0 33 33" fill="none" xmlns="http://www.w3.org/2000/svg">
<path d="M22.2306 18.9785L19.2298 21.9657C18.0129 23.1772 15.8718 23.2033 14.6286 21.9657L11.6276 18.9785L0.849609 29.7062C1.2508 29.8902 1.69315 30.0001 2.16341 30.0001H31.695C32.1652 30.0001 32.6074 29.8904 33.0085 29.7063L22.2306 18.9785Z" fill="#862633"/>
<path d="M9.04702 10.1053C9.04702 6.36493 11.932 3.32217 15.4785 3.32217C19.0244 3.32217 21.9094 6.36493 21.9094 10.1053V13.305H24.7885V10.1053C24.7885 4.69064 20.6119 0.285645 15.4785 0.285645C10.3445 0.285645 6.16791 4.69064 6.16791 10.1053V13.305H9.04702V10.1053ZM27.8188 15.1737H4.18117C3.52858 15.1737 3 15.7311 3 16.4194V30.8067C3 31.4949 3.52858 32.0524 4.18117 32.0524H27.8188C28.4714 32.0524 29 31.4949 29 30.8067V16.4194C29 15.7311 28.4714 15.1737 27.8188 15.1737ZM16.8859 28.7356C16.8859 29.2513 16.489 29.6699 16 29.6699C15.511 29.6699 15.1141 29.2513 15.1141 28.7356V28.6527C15.1141 28.1364 15.511 27.7184 16 27.7184C16.489 27.7184 16.8859 28.1364 16.8859 28.6527V28.7356ZM17.007 24.2453C16.9343 24.2702 16.8859 24.3368 16.8859 24.4103V25.2375C16.8859 25.7539 16.489 26.1718 16 26.1718C15.511 26.1718 15.1141 25.7539 15.1141 25.2375V24.4103C15.1141 23.5308 15.6498 22.7472 16.4565 22.4688C17.0955 22.2483 17.5095 21.5974 17.4635 20.8861C17.4133 20.1231 16.8298 19.5077 16.1057 19.4547C15.2417 19.3906 14.533 20.1118 14.533 20.9982C14.533 21.5133 14.1379 21.9325 13.6471 21.9325C13.1581 21.9325 12.7612 21.5139 12.7612 20.9982C12.7612 19.0635 14.3074 17.4509 16.228 17.5904C17.8296 17.7069 19.1207 19.0685 19.2311 20.7578C19.3333 22.3243 18.419 23.7582 17.007 24.2453Z" fill="#862633"/>
</svg>
