<svg width="26" height="33" viewBox="0 0 26 33" fill="none" xmlns="http://www.w3.org/2000/svg">
<path d="M6.04702 10.3413C6.04702 6.59268 8.93204 3.54322 12.4785 3.54322C16.0244 3.54322 18.9094 6.59268 18.9094 10.3413V13.5481H21.7885V10.3413C21.7885 4.91469 17.6119 0.5 12.4785 0.5C7.34454 0.5 3.16791 4.91469 3.16791 10.3413V13.5481H6.04702V10.3413ZM24.8188 15.4208H1.18117C0.528575 15.4208 0 15.9795 0 16.6693V31.0882C0 31.778 0.528575 32.3367 1.18117 32.3367H24.8188C25.4714 32.3367 26 31.778 26 31.0882V16.6693C26 15.9795 25.4714 15.4208 24.8188 15.4208ZM13.8859 29.0126C13.8859 29.5295 13.489 29.949 13 29.949C12.511 29.949 12.1141 29.5295 12.1141 29.0126V28.9296C12.1141 28.4121 12.511 27.9932 13 27.9932C13.489 27.9932 13.8859 28.4121 13.8859 28.9296V29.0126ZM14.007 24.5124C13.9343 24.5374 13.8859 24.6042 13.8859 24.6778V25.5068C13.8859 26.0243 13.489 26.4432 13 26.4432C12.511 26.4432 12.1141 26.0243 12.1141 25.5068V24.6778C12.1141 23.7964 12.6498 23.0111 13.4565 22.732C14.0955 22.511 14.5095 21.8587 14.4635 21.1458C14.4133 20.3811 13.8298 19.7643 13.1057 19.7113C12.2417 19.647 11.533 20.3699 11.533 21.2582C11.533 21.7744 11.1379 22.1946 10.6471 22.1946C10.1581 22.1946 9.76122 21.7751 9.76122 21.2582C9.76122 19.3193 11.3074 17.7031 13.228 17.8429C14.8296 17.9596 16.1207 19.3243 16.2311 21.0172C16.3333 22.5872 15.419 24.0242 14.007 24.5124Z" fill="#862633"/>
</svg>
