<svg width="24" height="28" viewBox="0 0 24 28" fill="none" xmlns="http://www.w3.org/2000/svg">
<path fill-rule="evenodd" clip-rule="evenodd" d="M3.5625 3.6875V24.3125H20.4375V3.6875H3.5625ZM2.625 0.875C2.12772 0.875 1.65081 1.07254 1.29917 1.42417C0.947544 1.77581 0.75 2.25272 0.75 2.75V25.25C0.75 25.7473 0.947544 26.2242 1.29917 26.5758C1.65081 26.9275 2.12772 27.125 2.625 27.125H21.375C21.8723 27.125 22.3492 26.9275 22.7008 26.5758C23.0525 26.2242 23.25 25.7473 23.25 25.25V2.75C23.25 2.25272 23.0525 1.77581 22.7008 1.42417C22.3492 1.07254 21.8723 0.875 21.375 0.875H2.625ZM12 19.625C12 19.252 12.1482 18.8944 12.4119 18.6306C12.6756 18.3669 13.0333 18.2188 13.4062 18.2188H16.6875C17.0605 18.2188 17.4181 18.3669 17.6819 18.6306C17.9456 18.8944 18.0938 19.252 18.0938 19.625C18.0938 19.998 17.9456 20.3556 17.6819 20.6194C17.4181 20.8831 17.0605 21.0312 16.6875 21.0312H13.4062C13.0333 21.0312 12.6756 20.8831 12.4119 20.6194C12.1482 20.3556 12 19.998 12 19.625ZM8.25 21.5C8.74728 21.5 9.22419 21.3025 9.57582 20.9508C9.92746 20.5992 10.125 20.1223 10.125 19.625C10.125 19.1277 9.92746 18.6508 9.57582 18.2992C9.22419 17.9475 8.74728 17.75 8.25 17.75C7.75272 17.75 7.27581 17.9475 6.92418 18.2992C6.57254 18.6508 6.375 19.1277 6.375 19.625C6.375 20.1223 6.57254 20.5992 6.92418 20.9508C7.27581 21.3025 7.75272 21.5 8.25 21.5ZM12 14C12 13.627 12.1482 13.2694 12.4119 13.0056C12.6756 12.7419 13.0333 12.5938 13.4062 12.5938H16.6875C17.0605 12.5938 17.4181 12.7419 17.6819 13.0056C17.9456 13.2694 18.0938 13.627 18.0938 14C18.0938 14.373 17.9456 14.7306 17.6819 14.9944C17.4181 15.2581 17.0605 15.4062 16.6875 15.4062H13.4062C13.0333 15.4062 12.6756 15.2581 12.4119 14.9944C12.1482 14.7306 12 14.373 12 14ZM8.25 15.875C8.74728 15.875 9.22419 15.6775 9.57582 15.3258C9.92746 14.9742 10.125 14.4973 10.125 14C10.125 13.5027 9.92746 13.0258 9.57582 12.6742C9.22419 12.3225 8.74728 12.125 8.25 12.125C7.75272 12.125 7.27581 12.3225 6.92418 12.6742C6.57254 13.0258 6.375 13.5027 6.375 14C6.375 14.4973 6.57254 14.9742 6.92418 15.3258C7.27581 15.6775 7.75272 15.875 8.25 15.875ZM12 8.375C12 8.00204 12.1482 7.64435 12.4119 7.38063C12.6756 7.11691 13.0333 6.96875 13.4062 6.96875H16.6875C17.0605 6.96875 17.4181 7.11691 17.6819 7.38063C17.9456 7.64435 18.0938 8.00204 18.0938 8.375C18.0938 8.74796 17.9456 9.10565 17.6819 9.36937C17.4181 9.63309 17.0605 9.78125 16.6875 9.78125H13.4062C13.0333 9.78125 12.6756 9.63309 12.4119 9.36937C12.1482 9.10565 12 8.74796 12 8.375ZM8.25 10.25C8.74728 10.25 9.22419 10.0525 9.57582 9.70082C9.92746 9.34919 10.125 8.87228 10.125 8.375C10.125 7.87772 9.92746 7.40081 9.57582 7.04918C9.22419 6.69754 8.74728 6.5 8.25 6.5C7.75272 6.5 7.27581 6.69754 6.92418 7.04918C6.57254 7.40081 6.375 7.87772 6.375 8.375C6.375 8.87228 6.57254 9.34919 6.92418 9.70082C7.27581 10.0525 7.75272 10.25 8.25 10.25Z" fill="#862633"/>
</svg>
