<svg width="204" height="49" viewBox="0 0 204 49" fill="none" xmlns="http://www.w3.org/2000/svg">
<path fill-rule="evenodd" clip-rule="evenodd" d="M28.4457 35.9227C23.7171 32.8251 19.8562 30.6146 16.8661 29.2875C13.8741 27.9626 11.6239 27.42 10.1167 27.6624C8.60632 27.9044 7.64391 28.6629 7.22537 29.9359C6.8064 31.2129 6.8064 32.8938 7.22537 34.985C7.64391 37.0743 8.28359 39.33 9.14535 41.7527C8.41171 41.9054 7.66242 42.0714 6.90078 42.2504C6.1539 42.4421 5.39374 42.614 4.61871 42.7666C3.42903 38.5339 2.72631 35.0614 2.50943 32.3461C2.30719 29.6325 2.48515 27.5227 3.04143 26.0182C3.61218 24.5143 4.51343 23.5524 5.74243 23.1315C6.98435 22.7103 8.44877 22.7045 10.1334 23.1125C11.8204 23.5061 13.6961 24.2461 15.7633 25.3306C17.817 26.4133 19.9449 27.7016 22.1511 29.1927C24.3586 30.6837 26.5756 32.3087 28.8074 34.0665C31.0372 35.8258 33.193 37.5778 35.2711 39.3242C37.3382 41.0704 39.2844 42.759 41.1102 44.3919C42.9231 46.0227 44.4876 47.4374 45.8054 48.636C38.9602 43.2701 33.1747 39.0318 28.4457 35.9227Z" fill="#283F87"/>
<path fill-rule="evenodd" clip-rule="evenodd" d="M11.6551 0.895802C10.8195 0.908684 10.0573 1.11194 9.37344 1.50902C8.7024 1.91549 8.16299 2.46329 7.75721 3.15271C7.3511 3.82776 7.14885 4.59175 7.14885 5.44726C7.16219 6.28802 7.36425 7.05182 7.75721 7.74176C8.16299 8.41648 8.7024 8.95846 9.37344 9.36685C10.0573 9.77299 10.8195 9.98378 11.6551 9.99662C12.5045 9.98378 13.2661 9.77299 13.9372 9.36685C14.621 8.95846 15.1661 8.41648 15.5719 7.74176C15.9781 7.05182 16.1822 6.28802 16.1822 5.44726C16.1669 4.59175 15.9653 3.82776 15.5719 3.15271C15.1661 2.46329 14.621 1.91549 13.9372 1.50902C13.2661 1.11194 12.5045 0.908684 11.6551 0.895802ZM30.9185 9.19369C29.9675 8.61965 28.8314 8.44798 27.5151 8.67743C26.1955 8.90651 24.7253 9.44906 23.1019 10.3025C21.4666 11.158 19.8005 12.1253 18.1022 13.2084C16.4024 14.2929 14.6916 15.3946 12.9677 16.5163C11.2436 17.6252 9.63316 18.5743 8.13684 19.3643C6.64114 20.1678 5.29151 20.697 4.08864 20.9503C2.88376 21.2056 1.92708 21.0028 1.21527 20.341C0.520518 19.6773 0.119939 18.4658 0.019841 16.7086C-0.0821107 14.949 0.20873 12.4516 0.894958 9.21235C1.46385 9.27719 2.04052 9.34633 2.6222 9.42277C3.20629 9.51242 3.78297 9.62035 4.3539 9.74913C3.78297 11.8122 3.56795 13.3295 3.7066 14.2985C3.84748 15.2677 4.25936 15.866 4.9432 16.0951C5.6142 16.3245 6.52066 16.2296 7.6623 15.8082C8.80272 15.3888 10.0725 14.8206 11.4644 14.1067C12.8732 13.3925 14.3561 12.5966 15.9151 11.7173C17.4738 10.826 19.0199 9.99662 20.5546 9.23282C22.1005 8.47985 23.5835 7.87393 25.0034 7.41545C26.4103 6.96832 27.6784 6.81135 28.8073 6.93831C29.9343 7.06523 30.8591 7.56284 31.5843 8.42751C32.3052 9.3072 32.7298 10.7162 32.8555 12.6548C32.5017 10.908 31.8547 9.75433 30.9185 9.19369Z" fill="#732E26"/>
<path d="M42.6023 22.6468V9.26458H47.4516C48.9345 9.26458 50.073 9.53836 50.8697 10.0846C51.6707 10.6324 52.0708 11.4025 52.0708 12.396C52.0708 13.1227 51.8283 13.7564 51.3442 14.2969C50.8588 14.8336 50.2395 15.2101 49.4831 15.4224V15.4597C50.4322 15.579 51.1886 15.9335 51.7524 16.5185C52.3194 17.1 52.6046 17.812 52.6046 18.6507C52.6046 19.879 52.1676 20.8538 51.2925 21.5732C50.4213 22.2889 49.2311 22.6468 47.7188 22.6468H42.6023ZM45.6052 11.486V14.6547H46.9177C47.5408 14.6547 48.0301 14.5054 48.386 14.2072C48.7419 13.9056 48.9198 13.4882 48.9198 12.9547C48.9198 11.9766 48.1876 11.486 46.7251 11.486H45.6052ZM45.6052 16.8988V20.4253H47.229C47.9205 20.4253 48.4619 20.265 48.8529 19.9405C49.2477 19.6179 49.4461 19.1762 49.4461 18.6135C49.4461 18.0767 49.2534 17.6573 48.8676 17.3535C48.4823 17.0514 47.9409 16.8988 47.2442 16.8988H45.6052ZM63.0374 18.7104H56.8385C56.9367 20.0971 57.806 20.7902 59.4484 20.7902C60.4905 20.7902 61.4097 20.5427 62.2069 20.0449V22.1696C61.3262 22.643 60.1844 22.8777 58.7812 22.8777C57.2428 22.8777 56.0488 22.4513 55.1999 21.5956C54.3547 20.7421 53.9319 19.5493 53.9319 18.017C53.9319 16.4326 54.3879 15.1768 55.3038 14.2521C56.223 13.324 57.35 12.8578 58.6849 12.8578C60.0734 12.8578 61.1463 13.2734 61.9027 14.1032C62.6592 14.9287 63.0374 16.0489 63.0374 17.4656V18.7104ZM60.3159 16.8988C60.3159 15.527 59.7673 14.8413 58.6702 14.8413C58.1956 14.8413 57.7875 15.0388 57.4468 15.4301C57.1056 15.8234 56.8945 16.3133 56.8162 16.8988H60.3159Z" fill="#6A2426"/>
<path d="M72.7673 11.7173H68.0737V15.0047H72.3891V17.45H68.0737V22.6465H65.0708V9.26431H72.7673V11.7173Z" fill="#6A2426"/>
<path d="M86.6585 22.6465H83.389L82.447 19.6721H77.7092L76.7748 22.6465H73.5271L78.3688 9.26431H81.9279L86.6585 22.6465ZM81.7575 17.3533L80.3263 12.8575C80.2228 12.5202 80.1483 12.118 80.1042 11.65H80.0297C80.0003 12.0431 79.9225 12.433 79.8 12.8205L78.3541 17.3533H81.7575Z" fill="#6A2426"/>
<path d="M88.3193 22.6465V9.26431H93.1687C94.6516 9.26431 95.7895 9.5381 96.5867 10.0844C97.3878 10.6322 97.7878 11.4023 97.7878 12.3957C97.7878 13.1224 97.5453 13.7561 97.0613 14.2966C96.5758 14.8334 95.9566 15.2099 95.2001 15.4221V15.4594C96.1492 15.5787 96.9056 15.9332 97.4689 16.5183C98.0365 17.0998 98.3217 17.8117 98.3217 18.6505C98.3217 19.8788 97.8841 20.8535 97.0096 21.5729C96.1383 22.2886 94.9482 22.6465 93.4353 22.6465H88.3193ZM91.3222 11.4858V14.6544H92.6348C93.2574 14.6544 93.7471 14.5051 94.103 14.2069C94.4589 13.9054 94.6369 13.4879 94.6369 12.9544C94.6369 11.9763 93.9047 11.4858 92.4421 11.4858H91.3222ZM91.3222 16.8985V20.425H92.9461C93.6375 20.425 94.1789 20.2647 94.57 19.9403C94.9648 19.6176 95.1631 19.1759 95.1631 18.6132C95.1631 18.0764 94.9705 17.6571 94.5847 17.3533C94.1993 17.0511 93.6579 16.8985 92.9608 16.8985H91.3222Z" fill="#6A2426"/>
<path d="M100.307 18.5763H105.386V16.5112H100.307V18.5763Z" fill="#6A2426"/>
<path d="M119.712 22.6465H116.701V17.1967H111.192V22.6465H108.189V9.26431H111.192V14.6025H116.701V9.26431H119.712V22.6465Z" fill="#6A2426"/>
<path d="M122.746 22.6465V9.26431H127.595C129.078 9.26431 130.216 9.5381 131.013 10.0844C131.814 10.6322 132.214 11.4023 132.214 12.3957C132.214 13.1224 131.971 13.7561 131.488 14.2966C131.002 14.8334 130.383 15.2099 129.626 15.4221V15.4594C130.575 15.5787 131.332 15.9332 131.895 16.5183C132.463 17.0998 132.748 17.8117 132.748 18.6505C132.748 19.8788 132.31 20.8535 131.436 21.5729C130.565 22.2886 129.374 22.6465 127.862 22.6465H122.746ZM125.748 11.4858V14.6544H127.061C127.684 14.6544 128.173 14.5051 128.529 14.2069C128.885 13.9054 129.063 13.4879 129.063 12.9544C129.063 11.9763 128.331 11.4858 126.868 11.4858H125.748ZM125.748 16.8985V20.425H127.372C128.064 20.425 128.605 20.2647 128.996 19.9403C129.391 19.6176 129.589 19.1759 129.589 18.6132C129.589 18.0764 129.397 17.6571 129.011 17.3533C128.626 17.0511 128.084 16.8985 127.387 16.8985H125.748Z" fill="#6A2426"/>
<path d="M144.471 22.1696C143.501 22.643 142.233 22.8777 140.667 22.8777C138.624 22.8777 137.019 22.2775 135.847 21.0737C134.68 19.8659 134.098 18.2556 134.098 16.2427C134.098 14.1014 134.754 12.366 136.07 11.0389C137.384 9.70832 139.089 9.04071 141.186 9.04071C142.486 9.04071 143.581 9.20494 144.471 9.53316V12.4333C143.581 11.9017 142.567 11.6353 141.431 11.6353C140.179 11.6353 139.169 12.0305 138.398 12.8207C137.631 13.6108 137.249 14.681 137.249 16.0265C137.249 17.3239 137.608 18.3583 138.331 19.1279C139.058 19.8937 140.033 20.276 141.26 20.276C142.432 20.276 143.501 19.991 144.471 19.4184V22.1696Z" fill="#6A2426"/>
<path d="M157.667 16.8538C157.667 20.8704 155.802 22.8777 152.076 22.8777C148.461 22.8777 146.656 20.9153 146.656 16.9884V9.26458H149.667V17.0257C149.667 19.1933 150.506 20.276 152.187 20.276C153.837 20.276 154.664 19.2306 154.664 17.1373V9.26458H157.667V16.8538Z" fill="#6A2426"/>
<path d="M42.9734 35.0524V26.7545H45.9834C46.903 26.7545 47.6092 26.9245 48.1041 27.2616C48.5971 27.601 48.8458 28.08 48.8458 28.7003C48.8458 29.1478 48.6935 29.5411 48.3931 29.8784C48.0913 30.2119 47.7074 30.4434 47.2442 30.5716V30.5941C47.826 30.6685 48.2934 30.8884 48.6456 31.2502C48.9958 31.6136 49.1718 32.0556 49.1718 32.577C49.1718 33.3377 48.9013 33.9415 48.3637 34.3887C47.8241 34.8325 47.0848 35.0524 46.1466 35.0524H42.9734ZM44.8341 28.1262V30.0944H45.6498C46.0356 30.0944 46.336 30.0033 46.5543 29.8188C46.7768 29.6307 46.8883 29.3717 46.8883 29.0434C46.8883 28.4321 46.4356 28.1262 45.5312 28.1262H44.8341ZM44.8341 31.4888V33.673H45.8425C46.2729 33.673 46.6084 33.5742 46.8508 33.3748C47.0976 33.172 47.2219 32.8976 47.2219 32.5551C47.2219 32.2229 47.0995 31.962 46.8584 31.7721C46.6155 31.5836 46.2819 31.4888 45.8576 31.4888H44.8341ZM55.478 35.0524H50.5252V26.7545H55.2853V28.2755H52.3863V30.1244H55.085V31.6381H52.3863V33.539H55.478V35.0524Z" fill="#26416D"/>
<path d="M64.8336 28.2755H61.9195V30.3106H64.5964V31.8317H61.9195V35.0524H60.0588V26.7545H64.8336V28.2755Z" fill="#26416D"/>
<path d="M68.7338 26.7545V28.2012H68.0443V33.6063H68.7338V35.0524H65.4937V33.6063H66.1832V28.2012H65.4937V26.7545H68.7338Z" fill="#26416D"/>
<path d="M75.7106 28.2755H73.3602V35.0524H71.4915V28.2755H69.1487V26.7545H75.7106V28.2755Z" fill="#26416D"/>
<path d="M78.3635 33.5907L77.5178 36.5209H76.1018L76.6874 33.5907H78.3635Z" fill="#26416D"/>
<path d="M90.5276 35.0524H88.5033L87.9177 33.2035H84.9812L84.3957 35.0524H82.386L85.3889 26.7545H87.5912L90.5276 35.0524ZM87.4873 31.7721L86.6051 28.9838C86.5401 28.7752 86.4941 28.5251 86.4642 28.2308H86.4196C86.3992 28.4752 86.3531 28.7156 86.2786 28.9542L85.3742 31.7721H87.4873Z" fill="#26416D"/>
<path d="M97.4748 34.7541C96.8759 35.0486 96.0901 35.194 95.1168 35.194C93.8507 35.194 92.8556 34.8214 92.1291 34.0757C91.4021 33.3266 91.0391 32.3274 91.0391 31.0787C91.0391 29.7518 91.4467 28.6764 92.2624 27.8505C93.0782 27.0269 94.1383 26.6128 95.4433 26.6128C96.2476 26.6128 96.9262 26.7153 97.4748 26.9186V28.7226C96.9262 28.391 96.2979 28.2231 95.5913 28.2231C94.815 28.2231 94.1862 28.4693 93.7083 28.9612C93.2338 29.4499 92.9965 30.113 92.9965 30.9519C92.9965 31.7534 93.2205 32.3908 93.6713 32.8679C94.1198 33.3451 94.7258 33.5836 95.4879 33.5836C96.2144 33.5836 96.8759 33.4047 97.4748 33.0469V34.7541Z" fill="#26416D"/>
<path d="M104.724 28.2755H102.374V35.0524H100.505V28.2755H98.1621V26.7545H104.724V28.2755Z" fill="#26416D"/>
<path d="M108.383 26.7545V28.2012H107.694V33.6063H108.383V35.0524H105.143V33.6063H105.833V28.2012H105.143V26.7545H108.383Z" fill="#26416D"/>
<path d="M116.436 26.7545L113.596 35.0524H111.49L108.68 26.7545H110.682L112.402 32.5327C112.495 32.8419 112.553 33.1176 112.573 33.3601H112.602C112.632 33.1028 112.692 32.8156 112.78 32.5027L114.493 26.7545H116.436Z" fill="#26416D"/>
<path d="M122.392 35.0524H117.439V26.7545H122.199V28.2755H119.3V30.1244H121.999V31.6381H119.3V33.539H122.392V35.0524Z" fill="#26416D"/>
<path d="M125.267 33.5907L124.422 36.5209H123.006L123.591 33.5907H125.267Z" fill="#26416D"/>
<path d="M137.742 35.1865C137.538 35.1865 137.345 35.1588 137.164 35.1043C136.98 35.0504 136.808 34.978 136.644 34.8883C136.481 34.7951 136.326 34.685 136.177 34.5605C136.033 34.4317 135.897 34.2975 135.769 34.1577C135.625 34.2732 135.452 34.3925 135.251 34.5155C135.052 34.6406 134.828 34.7522 134.576 34.851C134.327 34.9459 134.051 35.0261 133.745 35.0896C133.443 35.153 133.119 35.1865 132.774 35.1865C132.324 35.1865 131.909 35.1306 131.528 35.0223C131.146 34.9144 130.818 34.7522 130.542 34.5379C130.264 34.3252 130.047 34.0608 129.89 33.7479C129.736 33.431 129.66 33.0618 129.66 32.6443C129.66 32.3164 129.719 32.0255 129.838 31.772C129.956 31.5148 130.109 31.2872 130.297 31.0936C130.485 30.8997 130.698 30.7339 130.935 30.5941C131.172 30.4561 131.414 30.3406 131.662 30.2509C131.543 30.1579 131.421 30.05 131.298 29.9308C131.18 29.8077 131.07 29.6732 130.972 29.528C130.878 29.3844 130.802 29.2279 130.743 29.0581C130.683 28.8906 130.653 28.7079 130.653 28.514C130.653 28.2121 130.713 27.9439 130.831 27.7087C130.954 27.4701 131.128 27.2726 131.35 27.1123C131.573 26.9487 131.836 26.8256 132.144 26.7397C132.449 26.6556 132.785 26.6128 133.152 26.6128C133.508 26.6128 133.83 26.6577 134.124 26.7474C134.42 26.8366 134.672 26.9615 134.88 27.1199C135.091 27.2746 135.254 27.4631 135.369 27.6863C135.488 27.9102 135.547 28.1543 135.547 28.4173C135.547 28.8458 135.417 29.2184 135.161 29.5352C134.904 29.8487 134.542 30.1059 134.079 30.3033C134.266 30.3889 134.444 30.4861 134.613 30.5941C134.779 30.6984 134.943 30.8216 135.102 30.9594C135.265 31.0994 135.423 31.2576 135.577 31.4365C135.729 31.6117 135.883 31.813 136.037 32.0402C136.348 31.6432 136.57 31.2205 136.704 30.773C136.841 30.322 136.912 29.8525 136.912 29.364C136.912 29.2151 136.9 29.0734 136.882 28.9388C136.867 28.8048 136.841 28.6816 136.808 28.5662H138.357C138.396 28.6911 138.426 28.8104 138.446 28.9241C138.465 29.0395 138.476 29.1759 138.476 29.3343C138.476 29.7069 138.435 30.072 138.357 30.4298C138.278 30.7844 138.166 31.1236 138.023 31.4514C137.884 31.7759 137.714 32.0812 137.512 32.3684C137.308 32.6571 137.086 32.9257 136.845 33.1734C137.032 33.3728 137.225 33.5279 137.423 33.6358C137.625 33.7402 137.816 33.7922 137.994 33.7922C138.176 33.7922 138.365 33.7736 138.557 33.7325C138.75 33.6882 138.915 33.6319 139.054 33.5613V34.933C138.847 35.0223 138.639 35.0857 138.432 35.1269C138.224 35.1658 137.994 35.1865 137.742 35.1865ZM132.87 33.7998C133.093 33.7998 133.302 33.7775 133.501 33.7325C133.703 33.6882 133.894 33.6319 134.071 33.5613C134.249 33.4869 134.413 33.4028 134.561 33.308C134.713 33.2092 134.854 33.1065 134.984 33.0021C134.785 32.6948 134.591 32.4338 134.398 32.2191C134.205 32.0068 134.014 31.824 133.827 31.6751C133.638 31.5224 133.451 31.3918 133.263 31.2872C133.08 31.1832 132.895 31.0897 132.707 31.0043C132.548 31.0787 132.398 31.1646 132.255 31.2576C132.11 31.3526 131.983 31.4643 131.87 31.5931C131.76 31.7181 131.671 31.8598 131.602 32.0182C131.537 32.1781 131.506 32.3608 131.506 32.5697C131.506 32.7544 131.537 32.9238 131.602 33.0765C131.666 33.2258 131.758 33.3561 131.877 33.4643C131.999 33.5689 132.146 33.6505 132.314 33.7102C132.481 33.7698 132.666 33.7998 132.87 33.7998ZM133.931 28.5437C133.931 28.4359 133.908 28.3351 133.864 28.2455C133.823 28.1562 133.768 28.0819 133.693 28.0222C133.623 27.9626 133.541 27.9176 133.449 27.8876C133.354 27.8543 133.256 27.8356 133.152 27.8356C133.028 27.8356 132.911 27.8561 132.803 27.8952C132.7 27.9307 132.607 27.983 132.529 28.0518C132.449 28.1173 132.388 28.1935 132.344 28.2827C132.303 28.3724 132.285 28.4693 132.285 28.5737C132.285 28.7938 132.351 28.9951 132.485 29.1774C132.622 29.3563 132.791 29.5019 132.989 29.6102C133.117 29.5652 133.236 29.5133 133.345 29.4536C133.458 29.3902 133.556 29.3153 133.642 29.2298C133.731 29.1459 133.799 29.049 133.849 28.9388C133.903 28.8253 133.931 28.693 133.931 28.5437Z" fill="#26416D"/>
<path d="M143.435 35.0524V26.7545H146.445C147.364 26.7545 148.07 26.9245 148.565 27.2616C149.058 27.601 149.307 28.08 149.307 28.7003C149.307 29.1478 149.155 29.5411 148.855 29.8784C148.552 30.2119 148.169 30.4434 147.705 30.5716V30.5941C148.287 30.6685 148.755 30.8884 149.107 31.2502C149.457 31.6136 149.633 32.0556 149.633 32.577C149.633 33.3377 149.363 33.9415 148.825 34.3887C148.285 34.8325 147.546 35.0524 146.608 35.0524H143.435ZM145.296 28.1262V30.0944H146.111C146.497 30.0944 146.797 30.0033 147.016 29.8188C147.238 29.6307 147.35 29.3717 147.35 29.0434C147.35 28.4321 146.897 28.1262 145.992 28.1262H145.296ZM145.296 31.4888V33.673H146.304C146.734 33.673 147.07 33.5742 147.313 33.3748C147.559 33.172 147.683 32.8976 147.683 32.5551C147.683 32.2229 147.561 31.962 147.32 31.7721C147.077 31.5836 146.743 31.4888 146.319 31.4888H145.296Z" fill="#26416D"/>
<path d="M158.246 35.0524H156.221L155.636 33.2035H152.699L152.114 35.0524H150.104L153.107 26.7545H155.309L158.246 35.0524ZM155.205 31.7721L154.323 28.9838C154.258 28.7752 154.212 28.5251 154.182 28.2308H154.138C154.117 28.4752 154.071 28.7156 153.997 28.9542L153.092 31.7721H155.205Z" fill="#26416D"/>
<path d="M164.192 35.0524H159.276V26.7545H161.137V33.539H164.192V35.0524Z" fill="#26416D"/>
<path d="M172.567 35.0524H170.543L169.957 33.2035H167.021L166.435 35.0524H164.426L167.428 26.7545H169.631L172.567 35.0524ZM169.527 31.7721L168.645 28.9838C168.58 28.7752 168.533 28.5251 168.504 28.2308H168.459C168.439 28.4752 168.392 28.7156 168.318 28.9542L167.414 31.7721H169.527Z" fill="#26416D"/>
<path d="M181.027 35.0524H179.151L175.748 29.8335C175.549 29.5319 175.411 29.3025 175.332 29.1478H175.311C175.34 29.4423 175.355 29.8898 175.355 30.4896V35.0524H173.597V26.7545H175.607L178.877 31.8017C179.029 32.0311 179.168 32.2569 179.292 32.4801H179.314C179.285 32.2865 179.27 31.9063 179.27 31.3399V26.7545H181.027V35.0524Z" fill="#26416D"/>
<path d="M188.84 34.7541C188.242 35.0486 187.455 35.194 186.482 35.194C185.216 35.194 184.221 34.8214 183.494 34.0757C182.767 33.3266 182.404 32.3274 182.404 31.0787C182.404 29.7518 182.812 28.6764 183.628 27.8505C184.443 27.0269 185.504 26.6128 186.808 26.6128C187.613 26.6128 188.291 26.7153 188.84 26.9186V28.7226C188.291 28.391 187.663 28.2231 186.957 28.2231C186.18 28.2231 185.552 28.4693 185.074 28.9612C184.599 29.4499 184.362 30.113 184.362 30.9519C184.362 31.7534 184.586 32.3908 185.037 32.8679C185.485 33.3451 186.091 33.5836 186.853 33.5836C187.58 33.5836 188.242 33.4047 188.84 33.0469V34.7541Z" fill="#26416D"/>
<path d="M195.244 35.0524H190.292V26.7545H195.052V28.2755H192.153V30.1244H194.851V31.6381H192.153V33.539H195.244V35.0524Z" fill="#26416D"/>
<path d="M196.577 35.0524V26.7545H199.506C202.437 26.7545 203.903 28.1024 203.903 30.7954C203.903 32.0889 203.503 33.1215 202.702 33.8968C201.901 34.6683 200.835 35.0524 199.506 35.0524H196.577ZM198.438 28.2755V33.539H199.357C200.162 33.539 200.796 33.2965 201.256 32.8083C201.715 32.3217 201.946 31.6585 201.946 30.8178C201.946 30.0277 201.717 29.4069 201.263 28.9542C200.807 28.5028 200.169 28.2755 199.35 28.2755H198.438Z" fill="#26416D"/>
</svg>
