<svg width="18" height="18" viewBox="0 0 18 18" fill="none" xmlns="http://www.w3.org/2000/svg">
<path d="M-2.95639e-05 4.15998V13.7205C-2.95639e-05 14.7221 0.642841 15.7237 1.653 16.0879L6.24489 17.8179C6.52038 17.9089 6.79587 18 7.16325 18C7.62243 18 8.17341 17.8179 8.63259 17.5448C8.81628 17.3626 9.09177 17.1806 9.18366 16.9984H12.6734C14.051 16.9984 15.2449 15.9058 15.2449 14.449V13.5384C15.2449 13.1742 14.9694 12.81 14.5102 12.81C14.051 12.81 13.7755 13.0831 13.7755 13.5384V14.449C13.7755 15.0863 13.2245 15.5416 12.6734 15.5416H9.64284V2.42998H12.6734C13.3163 2.42998 13.7755 2.88524 13.7755 3.52261V4.43313C13.7755 4.79735 14.051 5.16156 14.5102 5.16156C14.9694 5.16156 15.2449 4.79735 15.2449 4.43313V3.52261C15.2449 2.15682 14.1428 0.973129 12.6734 0.973129H9.18366C8.99997 0.791023 8.81628 0.608917 8.63259 0.426811C7.89792 -0.0284541 7.07136 -0.119507 6.24489 0.153652L1.653 1.88366C0.734641 2.15682 -2.95639e-05 3.1584 -2.95639e-05 4.15998Z" fill="white"/>
<path d="M15.4286 11.5352C15.6122 11.5352 15.7959 11.4442 15.8878 11.3531L17.7245 9.53208C17.8163 9.441 17.8163 9.35001 17.9082 9.35001C17.9082 9.25893 18 9.16785 18 9.07686C18 8.98578 18 8.8947 17.9082 8.80371C17.9082 8.71263 17.8163 8.62155 17.7245 8.62155L15.8878 6.80051C15.6122 6.52735 15.1531 6.52735 14.8775 6.80051C14.602 7.07367 14.602 7.52895 14.8775 7.8021L15.5204 8.43948H11.7551C11.3878 8.43948 11.0204 8.71263 11.0204 9.16785C11.0204 9.62316 11.3878 9.71424 11.7551 9.71424H15.6122L14.9694 10.3515C14.6939 10.6247 14.6939 11.08 14.9694 11.3531C15.0612 11.4442 15.2449 11.5352 15.4286 11.5352Z" fill="white"/>
</svg>
