<svg width="58" height="60" viewBox="0 0 58 60" fill="none" xmlns="http://www.w3.org/2000/svg">
<path fill-rule="evenodd" clip-rule="evenodd" d="M35.8186 43.4889C30.0017 39.6991 25.2524 36.9947 21.5741 35.3711C17.8935 33.7501 15.1255 33.0863 13.2714 33.383C11.4135 33.679 10.2296 34.607 9.71473 36.1644C9.19935 37.7267 9.19935 39.7832 9.71473 42.3416C10.2296 44.8978 11.0165 47.6574 12.0766 50.6215C11.1741 50.8082 10.2524 51.0114 9.31545 51.2303C8.39669 51.465 7.46159 51.6752 6.50821 51.862C5.04474 46.6835 4.18029 42.4352 3.9135 39.1131C3.66473 35.7932 3.88363 33.212 4.56794 31.3714C5.27003 29.5314 6.37869 28.3546 7.89053 27.8397C9.41825 27.3243 11.2197 27.3172 13.292 27.8164C15.3673 28.298 17.6746 29.2033 20.2176 30.5301C22.7439 31.8548 25.3614 33.4309 28.0754 35.2551C30.7909 37.0793 33.5181 39.0674 36.2635 41.2179C39.0065 43.3703 41.6584 45.5137 44.2148 47.6503C46.7575 49.7867 49.1516 51.8526 51.3976 53.8504C53.6277 55.8456 55.5522 57.5763 57.1733 59.0427C48.7528 52.4779 41.6358 47.2926 35.8186 43.4889Z" fill="#283F87"/>
<path fill-rule="evenodd" clip-rule="evenodd" d="M15.164 0.635962C14.1361 0.651724 13.1984 0.900398 12.3572 1.38619C11.5318 1.88349 10.8682 2.55369 10.3691 3.39714C9.86949 4.22302 9.6207 5.15772 9.6207 6.20437C9.63711 7.23299 9.88566 8.16745 10.3691 9.01155C10.8682 9.83702 11.5318 10.5001 12.3572 10.9997C13.1984 11.4966 14.1361 11.7545 15.164 11.7702C16.2089 11.7545 17.1458 11.4966 17.9712 10.9997C18.8124 10.5001 19.483 9.83702 19.9822 9.01155C20.4818 8.16745 20.7329 7.23299 20.7329 6.20437C20.7142 5.15772 20.4661 4.22302 19.9822 3.39714C19.483 2.55369 18.8124 1.88349 17.9712 1.38619C17.1458 0.900398 16.2089 0.651724 15.164 0.635962ZM38.8605 10.7879C37.6907 10.0856 36.2931 9.87556 34.6739 10.1563C33.0506 10.4365 31.2421 11.1003 29.2451 12.1444C27.2334 13.1911 25.184 14.3745 23.0947 15.6996C21.0038 17.0264 18.8993 18.3743 16.7787 19.7466C14.6578 21.1033 12.6767 22.2645 10.8361 23.231C8.99615 24.2141 7.33592 24.8614 5.85624 25.1713C4.37407 25.4837 3.19723 25.2356 2.32161 24.4259C1.46697 23.6139 0.974201 22.1317 0.851067 19.9819C0.725653 17.8291 1.08343 14.7738 1.92758 10.8107C2.62739 10.89 3.33678 10.9746 4.05232 11.0681C4.77083 11.1778 5.48022 11.3099 6.18254 11.4674C5.48022 13.9914 5.21571 15.8478 5.38627 17.0333C5.55957 18.219 6.06624 18.951 6.90745 19.2313C7.73287 19.5119 8.84794 19.3959 10.2523 18.8803C11.6552 18.3672 13.2172 17.672 14.9294 16.7987C16.6624 15.9249 18.4866 14.9512 20.4043 13.8754C22.3217 12.7849 24.2237 11.7702 26.1115 10.8358C28.0133 9.91455 29.8375 9.17325 31.5841 8.61233C33.3149 8.0653 34.8748 7.87325 36.2635 8.02858C37.6499 8.18386 38.7875 8.79264 39.6795 9.85051C40.5663 10.9268 41.0887 12.6506 41.2433 15.0223C40.808 12.8853 40.0122 11.4738 38.8605 10.7879Z" fill="#732E26"/>
</svg>
