<?xml version="1.0" standalone="no"?>
<!DOCTYPE svg PUBLIC "-//W3C//DTD SVG 20010904//EN"
 "http://www.w3.org/TR/2001/REC-SVG-20010904/DTD/svg10.dtd">
<svg version="1.0" xmlns="http://www.w3.org/2000/svg"
 width="18.000000pt" height="18.000000pt" viewBox="0 0 18.000000 18.000000"
 preserveAspectRatio="xMidYMid meet">

<g transform="translate(0.000000,18.000000) scale(0.100000,-0.100000)"
fill="#000000" stroke="none">
<path d="M80 143 c0 -14 -8 -35 -17 -46 -17 -19 -17 -20 5 -8 17 9 27 9 45 0
21 -12 21 -11 5 8 -10 11 -18 32 -18 46 0 15 -4 27 -10 27 -5 0 -10 -12 -10
-27z"/>
<path d="M44 132 c-30 -19 -49 -122 -23 -122 23 0 49 22 49 40 0 26 -16 26
-23 0 -3 -11 -11 -20 -17 -20 -9 0 -9 4 1 17 10 11 10 14 2 9 -7 -4 -13 -2
-13 3 0 6 5 11 10 11 6 0 10 6 9 13 -3 25 1 38 11 32 6 -3 10 1 10 9 0 18 -1
18 -16 8z"/>
<path d="M120 125 c0 -8 6 -14 13 -12 7 1 11 -7 10 -20 -2 -13 2 -23 7 -23 6
0 10 -5 10 -11 0 -5 -6 -7 -12 -3 -9 5 -9 2 1 -9 10 -13 10 -17 1 -17 -6 0
-14 9 -17 20 -7 26 -23 26 -23 0 0 -18 26 -40 49 -40 14 0 14 62 0 94 -13 29
-39 42 -39 21z"/>
</g>
</svg>
