<svg width="36" height="32" viewBox="0 0 36 32" fill="none" xmlns="http://www.w3.org/2000/svg">
<path d="M6 0C4.89375 0 4 0.89375 4 2V14H10V12C10 9.79375 11.7937 8 14 8H28V2C28 0.89375 27.1063 0 26 0H6ZM14 10C12.8938 10 12 10.8938 12 12V14H18C20.2062 14 22 15.7937 22 18V26H34C35.1063 26 36 25.1063 36 24V12C36 10.8938 35.1063 10 34 10H14ZM29 14H31C31.55 14 32 14.45 32 15V17C32 17.55 31.55 18 31 18H29C28.45 18 28 17.55 28 17V15C28 14.45 28.45 14 29 14ZM2 16C0.89375 16 0 16.8937 0 18V18.8125L9.69375 25.9937C9.78125 26.0562 9.8875 26.0938 10 26.0938C10.1125 26.0938 10.2188 26.0562 10.3062 25.9937L20 18.8125V18C20 16.8937 19.1063 16 18 16H2ZM20 21.3L11.5 27.6C11.0688 27.9188 10.5437 28.0938 10 28.0938C9.45625 28.0938 8.9375 27.9188 8.5 27.6L0 21.3V30C0 31.1063 0.89375 32 2 32H18C19.1063 32 20 31.1063 20 30V21.3Z" fill="#862633"/>
</svg>
