<svg width="24" height="24" viewBox="0 0 24 24" fill="none" xmlns="http://www.w3.org/2000/svg">
<g clip-path="url(#clip0_1114_4554)">
<mask id="mask0_1114_4554" style="mask-type:luminance" maskUnits="userSpaceOnUse" x="0" y="0" width="24" height="24">
<rect width="24" height="24" fill="white"/>
</mask>
<g mask="url(#mask0_1114_4554)">
<path d="M16.125 6.75C15.9412 9.22828 14.0625 11.25 12 11.25C9.9375 11.25 8.05547 9.22875 7.875 6.75C7.6875 4.17188 9.51562 2.25 12 2.25C14.4844 2.25 16.3125 4.21875 16.125 6.75Z" stroke="#4C3F3F" stroke-width="1.5" stroke-linecap="round" stroke-linejoin="round"/>
<path d="M12.0002 14.25C7.92209 14.25 3.78303 16.5 3.01709 20.7469C2.92475 21.2587 3.21443 21.75 3.75021 21.75H20.2502C20.7865 21.75 21.0762 21.2587 20.9838 20.7469C20.2174 16.5 16.0783 14.25 12.0002 14.25Z" stroke="#4C3F3F" stroke-width="1.5"/>
</g>
</g>
<defs>
<clipPath id="clip0_1114_4554">
<rect width="24" height="24" fill="white"/>
</clipPath>
</defs>
</svg>
