<svg width="29" height="34" viewBox="0 0 29 34" fill="none" xmlns="http://www.w3.org/2000/svg">
<path d="M26.9001 0.894775H14.4088C13.8519 0.894781 13.3178 1.11603 12.9239 1.50985C12.5301 1.90368 12.3089 2.43781 12.3089 2.99476V21.0134C12.2317 21.0244 12.1573 21.0365 12.0858 21.0497C11.6679 20.6137 11.0863 20.4255 10.5942 20.3487C11.0289 19.6103 11.1439 18.6509 10.8756 17.9022C10.632 17.2228 10.1163 16.7519 9.38413 16.5404C8.11301 16.1731 7.44208 16.7059 7.11929 17.1515C6.67056 16.5995 6.00372 16.4587 5.26378 16.768L5.24119 16.7783C4.34296 17.2205 3.92049 18.082 4.03829 19.2177C3.55988 19.0431 2.84844 18.9605 1.92571 19.3389C1.00284 19.7173 0.412095 20.5254 0.34545 21.5005C0.31249 21.9993 0.420898 22.4973 0.658221 22.9373C0.895545 23.3772 1.25216 23.7413 1.6871 23.9878C1.71687 24.005 1.74517 24.0231 1.77424 24.0408C0.351245 24.485 0.145508 24.9628 0.145508 25.3187V25.3549C0.14613 25.9314 0.319075 26.4945 0.642131 26.972C0.965187 27.4495 1.4236 27.8194 1.9585 28.0344C2.93593 28.4341 4.68185 29.3931 5.39249 31.3257C5.42402 31.4113 5.47844 31.5833 5.50609 31.6721C5.60287 32.2895 6.2801 32.7863 7.52011 33.1489C8.62498 33.472 10.0741 33.65 11.6004 33.65C14.3612 33.65 17.4286 33.0412 17.69 31.7057C17.724 31.597 17.8009 31.3573 17.8463 31.2423C18.058 30.7111 18.3592 30.2202 18.7366 29.7907H26.9001C27.1758 29.7907 27.4489 29.7364 27.7037 29.6308C27.9585 29.5253 28.19 29.3706 28.385 29.1756C28.58 28.9806 28.7347 28.7491 28.8402 28.4943C28.9458 28.2395 29.0001 27.9665 29.0001 27.6907V2.99476C29.0001 2.71899 28.9458 2.44591 28.8402 2.19113C28.7347 1.93635 28.58 1.70485 28.385 1.50984C28.19 1.31484 27.9585 1.16016 27.7037 1.05463C27.4489 0.949092 27.1758 0.894775 26.9001 0.894775ZM21.8927 1.9448H22.6518C22.7048 1.9448 22.7573 1.95523 22.8062 1.97551C22.8552 1.99578 22.8996 2.0255 22.9371 2.06296C22.9746 2.10042 23.0043 2.14489 23.0246 2.19384C23.0448 2.24278 23.0553 2.29524 23.0553 2.34822C23.0553 2.4012 23.0448 2.45366 23.0246 2.5026C23.0043 2.55155 22.9746 2.59602 22.9371 2.63348C22.8996 2.67094 22.8552 2.70066 22.8062 2.72093C22.7573 2.7412 22.7048 2.75164 22.6518 2.75164H21.8927C21.7857 2.75164 21.6831 2.70914 21.6075 2.63348C21.5318 2.55782 21.4893 2.45521 21.4893 2.34822C21.4893 2.24122 21.5318 2.13861 21.6075 2.06296C21.6831 1.9873 21.7857 1.9448 21.8927 1.9448ZM18.657 1.9448H20.5548C20.6078 1.9448 20.6603 1.95523 20.7092 1.97551C20.7582 1.99578 20.8026 2.0255 20.8401 2.06296C20.8776 2.10042 20.9073 2.14489 20.9275 2.19384C20.9478 2.24278 20.9583 2.29524 20.9583 2.34822C20.9583 2.4012 20.9478 2.45366 20.9275 2.5026C20.9073 2.55155 20.8776 2.59602 20.8401 2.63348C20.8026 2.67094 20.7582 2.70066 20.7092 2.72093C20.6603 2.7412 20.6078 2.75164 20.5548 2.75164H18.657C18.55 2.75164 18.4474 2.70914 18.3718 2.63348C18.2961 2.55782 18.2536 2.45521 18.2536 2.34822C18.2536 2.24122 18.2961 2.13861 18.3718 2.06296C18.4474 1.9873 18.55 1.9448 18.657 1.9448ZM16.1354 22.4236C16.2381 22.4484 16.3384 22.4746 16.4364 22.5022C17.235 22.7274 17.6279 22.9723 17.7774 23.1049C17.6463 23.2314 17.2981 23.4629 16.5759 23.6741C15.7036 23.9292 14.5795 24.0697 13.4107 24.0697C12.242 24.0697 11.1179 23.9292 10.2456 23.6741C9.5234 23.4629 9.17516 23.2314 9.04414 23.1049C9.19358 22.9723 9.58653 22.7274 10.3851 22.5022C10.4349 22.4881 10.4864 22.475 10.5375 22.4617C10.9983 22.8304 12.0682 23.089 13.3145 23.089C14.6033 23.089 15.7026 22.8124 16.1354 22.4236ZM13.6026 21.9526C13.6026 21.7572 13.9533 21.5988 14.3861 21.5988C14.8188 21.5988 15.1697 21.7572 15.1697 21.9526C15.1697 22.1481 14.8189 22.3065 14.3861 22.3065C13.9533 22.3065 13.6026 22.1481 13.6026 21.9526ZM5.9207 24.8156C5.91904 24.6315 5.95748 24.4492 6.03334 24.2813C6.1092 24.1135 6.22067 23.9642 6.36002 23.8437C6.86948 23.4043 7.52765 23.1761 8.1998 23.2061C8.3142 23.8111 9.30727 24.3339 10.7475 24.6267C10.0759 25.1768 9.19058 25.529 8.4718 25.7437L5.96766 25.7306C5.93854 25.4171 5.92262 25.1113 5.9207 24.8156ZM1.15043 21.5555C1.17162 21.2328 1.2847 20.923 1.47631 20.6625C1.66792 20.402 1.93007 20.2018 2.2318 20.0855C2.86458 19.8261 3.42296 19.8073 3.89106 20.0298C4.00372 20.0835 4.12889 20.1054 4.25308 20.0931C4.37726 20.0809 4.49575 20.035 4.59576 19.9603C4.69578 19.8857 4.77353 19.7852 4.82064 19.6697C4.86775 19.5541 4.88243 19.4279 4.8631 19.3046C4.72397 18.4226 4.96732 17.8182 5.58649 17.5077C6.02602 17.3272 6.32392 17.3993 6.55196 17.7403C6.616 17.8371 6.70355 17.9162 6.80643 17.97C6.90931 18.0238 7.02417 18.0507 7.14025 18.0481C7.25633 18.0455 7.36986 18.0134 7.4702 17.955C7.57055 17.8966 7.65444 17.8137 7.71403 17.714C7.99322 17.2454 8.46617 17.115 9.16021 17.3155C9.6398 17.454 9.9614 17.743 10.116 18.1745C10.3179 18.7378 10.1987 19.5108 9.82601 20.0541C9.7585 20.1519 9.71755 20.2655 9.70718 20.3839C9.69681 20.5023 9.71737 20.6214 9.76686 20.7294C9.81634 20.8375 9.89305 20.9308 9.98946 21.0003C10.0859 21.0698 10.1987 21.113 10.3168 21.1258C10.5929 21.151 10.8628 21.2219 11.1155 21.3356C10.9414 21.4057 10.7768 21.4975 10.6256 21.6087C9.75495 21.8084 9.02562 22.0938 8.59764 22.4289C7.58891 22.301 6.81926 22.5639 6.26802 22.9088C6.25 22.9199 6.22912 22.9256 6.20795 22.925C6.18678 22.9244 6.16623 22.9177 6.14881 22.9057C6.13139 22.8937 6.11785 22.8768 6.10984 22.8572C6.10184 22.8376 6.09972 22.8161 6.10374 22.7953C6.48924 20.7595 7.34897 19.505 7.36706 19.4798C7.42884 19.3923 7.45336 19.2839 7.4352 19.1784C7.41704 19.0728 7.3577 18.9788 7.27023 18.917C7.22692 18.8864 7.17801 18.8647 7.12629 18.853C7.07457 18.8413 7.02105 18.8399 6.9688 18.8489C6.86326 18.867 6.76925 18.9264 6.70746 19.0139C6.65689 19.0855 5.93908 20.1224 5.48334 21.8467C5.47699 21.8709 5.46418 21.8929 5.44629 21.9104C5.42839 21.9279 5.40608 21.9401 5.38175 21.9459C5.35741 21.9517 5.33197 21.9507 5.30813 21.9431C5.2843 21.9356 5.26297 21.9216 5.24644 21.9029C4.84194 21.4431 4.31041 21.1133 3.71882 20.955C3.61433 20.932 3.50497 20.9514 3.41481 21.009C3.32466 21.0667 3.26108 21.1577 3.23808 21.2622C3.21508 21.3667 3.23453 21.4761 3.29215 21.5663C3.34978 21.6564 3.44086 21.72 3.54535 21.743C3.88716 21.8422 4.20174 22.0183 4.465 22.2578C4.72826 22.4973 4.93321 22.7939 5.06417 23.1248C5.14219 23.3149 5.17344 23.521 5.15531 23.7256C5.09722 24.3913 5.09775 25.0608 5.15689 25.7263L4.21042 25.7214C4.02039 25.2941 3.7841 24.8889 3.50578 24.5131C3.12173 24.0142 2.64078 23.5981 2.09184 23.2898C1.78769 23.1185 1.53802 22.8649 1.3715 22.5581C1.20498 22.2514 1.12836 21.9039 1.15043 21.5555ZM17.0958 30.9461C17.0257 31.1237 16.8991 31.5456 16.8991 31.5456C16.8264 31.9984 14.9425 32.8431 11.6004 32.8431C10.1486 32.8431 8.7799 32.6767 7.74659 32.3745C6.64212 32.0515 6.3188 31.6869 6.30212 31.5392C6.30212 31.5392 6.20035 31.1847 6.14979 31.0473C5.33231 28.8242 3.36426 27.7375 2.26385 27.2876C1.87748 27.1329 1.54617 26.8663 1.31248 26.5219C1.07878 26.1775 0.953365 25.7711 0.952335 25.355V25.3336C1.01128 25.2211 1.41035 24.9463 2.56656 24.659C2.67196 24.7649 2.77006 24.8778 2.86018 24.997C2.99154 25.1726 3.11162 25.3563 3.21971 25.5471C2.95394 25.4933 2.69209 25.4217 2.43595 25.3327C2.38612 25.314 2.3331 25.3054 2.27993 25.3074C2.22677 25.3093 2.17451 25.3217 2.12616 25.3439C2.07781 25.3661 2.03434 25.3977 1.99823 25.4367C1.96212 25.4758 1.9341 25.5216 1.91578 25.5716C1.89746 25.6215 1.88919 25.6746 1.89147 25.7278C1.89374 25.7809 1.9065 25.8331 1.92902 25.8813C1.95154 25.9295 1.98337 25.9727 2.02268 26.0086C2.06199 26.0444 2.10801 26.0722 2.15807 26.0902C3.58258 26.6127 7.44935 26.9776 11.5614 26.9776C15.3912 26.9776 19.088 26.6635 20.7605 26.1959C20.8629 26.1665 20.9495 26.0979 21.0015 26.0049C21.0534 25.9119 21.0665 25.8021 21.0378 25.6995C21.0091 25.5969 20.9411 25.5098 20.8484 25.4573C20.7558 25.4047 20.6461 25.3909 20.5433 25.4189C20.0105 25.557 19.4697 25.6618 18.9239 25.7328C18.3094 25.2038 17.6243 24.7627 16.8883 24.4224C17.1315 24.3496 17.3696 24.2606 17.6011 24.1563C18.1241 24.214 18.6211 24.2794 19.0846 24.3527C21.4641 24.7288 22.1684 25.1809 22.2485 25.3336V25.355C22.2474 25.7711 22.122 26.1775 21.8883 26.5219C21.6546 26.8663 21.3233 27.1329 20.9369 27.2876C19.8692 27.7241 17.9506 28.7799 17.0958 30.9461ZM27.8982 27.3955C27.8982 27.7156 27.771 28.0226 27.5447 28.2489C27.3183 28.4753 27.0114 28.6024 26.6913 28.6024H20.1419C20.4918 28.382 20.8599 28.192 21.2422 28.0344C21.7771 27.8194 22.2355 27.4495 22.5586 26.972C22.8817 26.4945 23.0547 25.9314 23.0553 25.3549V25.3187C23.0553 24.8402 22.6849 24.1414 19.4822 23.6001C19.1771 23.5485 18.8559 23.5008 18.5233 23.4561C18.5936 23.3464 18.632 23.2193 18.634 23.0889C18.634 22.4297 17.4458 21.8541 15.8945 21.5442L15.8944 21.5441C15.8944 21.5441 15.1135 20.9859 13.4107 20.9513V4.95015C13.4107 4.63006 13.5379 4.32308 13.7642 4.09674C13.9906 3.8704 14.2975 3.74325 14.6176 3.74325H26.6913C27.0114 3.74325 27.3183 3.8704 27.5447 4.09674C27.771 4.32308 27.8982 4.63006 27.8982 4.95015L27.8982 27.3955Z" fill="#A855F7"/>
</svg>
