<svg width="14" height="24" viewBox="0 0 14 24" fill="none" xmlns="http://www.w3.org/2000/svg">
<path d="M2.13262 8.75229H2.41739C1.9963 9.6668 1.75006 10.677 1.75006 11.6765C1.75006 14.8376 4.20763 15.9602 6.89672 15.9602C9.58581 15.9602 12.0434 14.8376 12.0434 11.6765C12.0434 10.677 11.7971 9.6668 11.376 8.75229H11.6607C12.0755 9.68968 12.3013 10.6978 12.3013 11.6765C12.3013 12.8652 11.9724 13.8391 11.3238 14.5849C11.4369 14.9177 11.7308 15.1745 12.1031 15.2204C12.1425 15.2253 12.1815 15.2277 12.2201 15.2277C12.6909 15.2277 13.0988 14.8766 13.1579 14.3974C13.6454 10.4479 13.143 7.5383 11.6642 5.74927C10.7716 4.66937 9.77056 4.30736 9.23491 4.18652C8.72265 4.92997 7.86576 5.41857 6.89655 5.41857C5.92742 5.41857 5.07053 4.92997 4.55819 4.18652C4.02254 4.30736 3.02151 4.66937 2.12884 5.74927C0.650294 7.53821 0.147756 10.4479 0.635415 14.3974C0.694588 14.8767 1.10235 15.2277 1.57315 15.2277C1.61177 15.2277 1.6509 15.2253 1.69029 15.2204C2.06253 15.1745 2.35641 14.9178 2.46951 14.5849C1.82085 13.8391 1.49204 12.8652 1.49204 11.6765C1.49196 10.6978 1.71781 9.68968 2.13262 8.75229Z" fill="#2563EB"/>
<path d="M2.62793 14.7576L4.12565 22.3103C4.12565 22.8774 4.69364 23.3371 5.39408 23.3371C6.09487 23.3371 6.66303 22.8773 6.66303 22.3103V16.2149C5.24676 16.181 4.04059 15.8371 3.16427 15.2141C2.96809 15.0746 2.78988 14.9219 2.62793 14.7576Z" fill="#2563EB"/>
<path d="M10.6267 15.214C9.75037 15.837 8.54421 16.1809 7.12793 16.2147V22.3101C7.12793 22.8773 7.69609 23.337 8.39679 23.337C9.09723 23.337 9.66548 22.8772 9.66548 22.3101L11.163 14.7574C11.0012 14.9218 10.8229 15.0745 10.6267 15.214Z" fill="#2563EB"/>
<path d="M6.89564 5.16042C8.32065 5.16042 9.47585 4.00522 9.47585 2.58021C9.47585 1.1552 8.32065 0 6.89564 0C5.47063 0 4.31543 1.1552 4.31543 2.58021C4.31543 4.00522 5.47063 5.16042 6.89564 5.16042Z" fill="#2563EB"/>
</svg>
