<svg width="18" height="15" viewBox="0 0 18 15" fill="none" xmlns="http://www.w3.org/2000/svg">
<g clip-path="url(#clip0_1087_3810)">
<mask id="mask0_1087_3810" style="mask-type:luminance" maskUnits="userSpaceOnUse" x="0" y="0" width="19" height="15">
<rect x="0.580803" y="0.967529" width="17.4194" height="13.9355" fill="white"/>
</mask>
<g mask="url(#mask0_1087_3810)">
<path fill-rule="evenodd" clip-rule="evenodd" d="M3.19366 7.23852C4.15445 7.23852 4.9356 6.6136 4.9356 5.84497C4.9356 5.07634 4.15445 4.45142 3.19366 4.45142C2.23288 4.45142 1.45173 5.07634 1.45173 5.84497C1.45173 6.6136 2.23288 7.23852 3.19366 7.23852ZM15.3873 7.23852C16.348 7.23852 17.1292 6.6136 17.1292 5.84497C17.1292 5.07634 16.348 4.45142 15.3873 4.45142C14.4265 4.45142 13.6453 5.07634 13.6453 5.84497C13.6453 6.6136 14.4265 7.23852 15.3873 7.23852ZM16.2581 7.93529H14.5162C14.0372 7.93529 13.6044 8.08988 13.2887 8.34029C14.3856 8.8215 15.164 9.69029 15.3327 10.7224H17.1291C17.6109 10.7224 18.0001 10.411 18.0001 10.0256V9.32884C18.0001 8.56021 17.2189 7.93529 16.2581 7.93529ZM9.29046 7.93516C10.9752 7.93516 12.3389 6.84427 12.3389 5.49645C12.3389 4.14863 10.9752 3.05774 9.29046 3.05774C7.60569 3.05774 6.24208 4.14863 6.24208 5.49645C6.24208 6.84427 7.60569 7.93516 9.29046 7.93516ZM11.3808 8.63192H11.1549C10.5888 8.84966 9.96006 8.98031 9.2905 8.98031C8.62094 8.98031 7.99494 8.84966 7.42609 8.63192H7.20018C5.46913 8.63192 4.0647 9.75547 4.0647 11.1403V11.7674C4.0647 12.3444 4.64988 12.8126 5.37115 12.8126H13.2099C13.9311 12.8126 14.5163 12.3444 14.5163 11.7674V11.1403C14.5163 9.75547 13.1119 8.63192 11.3808 8.63192ZM5.29222 8.34029C4.9765 8.08988 4.54374 7.93529 4.0647 7.93529H2.32277C1.36198 7.93529 0.580832 8.56021 0.580832 9.32884V10.0256C0.580832 10.411 0.970045 10.7224 1.4518 10.7224H3.24545C3.41692 9.69029 4.19535 8.8215 5.29222 8.34029Z" fill="#8B1D3F"/>
</g>
</g>
<defs>
<clipPath id="clip0_1087_3810">
<rect width="17.4194" height="13.9355" fill="white" transform="translate(0.580803 0.967529)"/>
</clipPath>
</defs>
</svg>
