<svg width="18" height="19" viewBox="0 0 18 19" fill="none" xmlns="http://www.w3.org/2000/svg">
<path d="M0 5.10743C0 3.42728 0 2.5872 0.32698 1.94546C0.614601 1.38098 1.07354 0.922035 1.63803 0.634415C2.27976 0.307434 3.11984 0.307434 4.8 0.307434H13.2C14.8802 0.307434 15.7202 0.307434 16.362 0.634415C16.9265 0.922035 17.3854 1.38098 17.673 1.94546C18 2.5872 18 3.42728 18 5.10743V10.5074C18 12.1876 18 13.0277 17.673 13.6694C17.3854 14.2339 16.9265 14.6928 16.362 14.9805C15.7202 15.3074 14.8802 15.3074 13.2 15.3074H10.6837C10.0597 15.3074 9.74767 15.3074 9.44921 15.3687C9.18443 15.423 8.9282 15.5129 8.68749 15.6359C8.41617 15.7745 8.17252 15.9694 7.68521 16.3593L5.29976 18.2676C4.88367 18.6005 4.67563 18.7669 4.50054 18.7671C4.34827 18.7673 4.20422 18.6981 4.10923 18.579C4 18.4422 4 18.1758 4 17.6429V15.3074C3.07003 15.3074 2.60504 15.3074 2.22354 15.2052C1.18827 14.9278 0.379624 14.1192 0.102223 13.0839C0 12.7024 0 12.2374 0 11.3074V5.10743Z" fill="#9CA3AF"/>
</svg>
