<svg width="33" height="28" viewBox="0 0 33 28" fill="none" xmlns="http://www.w3.org/2000/svg">
<path d="M3.06797 16.5148L14.7146 27.303C15.198 27.7506 15.8361 28 16.5 28C17.1639 28 17.802 27.7506 18.2854 27.303L29.932 16.5148C31.8914 14.705 33 12.1662 33 9.51235V9.14145C33 4.67142 29.7451 0.860056 25.3043 0.124643C22.3652 -0.361369 19.3746 0.591471 17.2734 2.67621L16.5 3.44359L15.7266 2.67621C13.6254 0.591471 10.6348 -0.361369 7.6957 0.124643C3.25488 0.860056 0 4.67142 0 9.14145V9.51235C0 12.1662 1.10859 14.705 3.06797 16.5148Z" fill="white"/>
</svg>
