<svg width="36" height="25" viewBox="0 0 36 25" fill="none" xmlns="http://www.w3.org/2000/svg">
<path d="M23.2306 13.9785L20.2298 16.9657C19.0129 18.1772 16.8718 18.2033 15.6286 16.9657L12.6276 13.9785L1.84961 24.7062C2.2508 24.8902 2.69315 25.0001 3.16341 25.0001H32.695C33.1652 25.0001 33.6074 24.8904 34.0085 24.7063L23.2306 13.9785Z" fill="#862633"/>
<path d="M32.6807 0H3.1491C2.67883 0 2.23649 0.109834 1.83544 0.293887L13.3525 11.758L13.355 11.7596L13.3559 11.7614L17.1007 15.489C17.4985 15.8836 18.3314 15.8836 18.7292 15.489L22.4732 11.7621L22.4749 11.7596L22.4774 11.758L33.9942 0.293817C33.5931 0.109696 33.1509 0 32.6807 0ZM0.334924 1.75041C0.127364 2.16683 0 2.62908 0 3.12424V21.8697C0 22.3648 0.127224 22.8271 0.334854 23.2435L11.1316 12.4973L0.334924 1.75041ZM35.4948 1.75027L24.6983 12.4973L35.4948 23.2436C35.7024 22.8272 35.8298 22.365 35.8298 21.8697V3.12424C35.8298 2.62894 35.7024 2.16669 35.4948 1.75027Z" fill="#862633"/>
</svg>
