<svg width="50" height="96" viewBox="0 0 50 96" fill="none" xmlns="http://www.w3.org/2000/svg">
<path fill-rule="evenodd" clip-rule="evenodd" d="M42.317 0.135986H7.68297C3.46697 0.135986 0.0169678 3.58599 0.0169678 7.80099V87.471C0.0169678 91.687 3.46697 95.136 7.68297 95.136H42.317C46.533 95.136 49.983 91.686 49.983 87.471V7.80099C49.983 3.58499 46.533 0.135986 42.317 0.135986ZM37.68 3.26199H39.905C40.1418 3.26199 40.3689 3.35607 40.5364 3.52354C40.7039 3.69101 40.798 3.91815 40.798 4.15499C40.798 4.39182 40.7039 4.61896 40.5364 4.78643C40.3689 4.9539 40.1418 5.04799 39.905 5.04799H37.68C37.4431 5.04799 37.216 4.9539 37.0485 4.78643C36.8811 4.61896 36.787 4.39182 36.787 4.15499C36.787 3.91815 36.8811 3.69101 37.0485 3.52354C37.216 3.35607 37.4431 3.26199 37.68 3.26199ZM19.885 3.26199H30.117C30.3538 3.26199 30.5809 3.35607 30.7484 3.52354C30.9159 3.69101 31.01 3.91815 31.01 4.15499C31.01 4.39182 30.9159 4.61896 30.7484 4.78643C30.5809 4.9539 30.3538 5.04799 30.117 5.04799H19.884C19.6471 5.04799 19.42 4.9539 19.2525 4.78643C19.085 4.61896 18.991 4.39182 18.991 4.15499C18.991 3.91815 19.085 3.69101 19.2525 3.52354C19.42 3.35607 19.6481 3.26199 19.885 3.26199ZM31.608 88.338C31.608 89.648 30.538 90.718 29.228 90.718H20.774C20.1433 90.7161 19.539 90.4648 19.0931 90.0189C18.6472 89.5729 18.3958 88.9686 18.394 88.338C18.394 87.028 19.464 85.958 20.774 85.958H29.228C30.538 85.958 31.608 87.028 31.608 88.338ZM46.697 81.643H3.30497V10.071H46.695V81.643H46.697Z" fill="#862633"/>
</svg>
