<svg width="18" height="18" viewBox="0 0 18 18" fill="none" xmlns="http://www.w3.org/2000/svg">
<path d="M8.99984 17.3333C13.6023 17.3333 17.3332 13.6025 17.3332 8.99999C17.3332 8.61416 16.7548 8.54999 16.5557 8.88082C16.1309 9.58444 15.5515 10.1822 14.8615 10.6287C14.1715 11.0753 13.3889 11.3589 12.573 11.4582C11.7571 11.5575 10.9294 11.4699 10.1524 11.2019C9.37539 10.9339 8.66958 10.4926 8.08841 9.91142C7.50723 9.33024 7.06593 8.62443 6.79794 7.84745C6.52994 7.07046 6.44228 6.24268 6.54158 5.4268C6.64089 4.61091 6.92456 3.82833 7.37111 3.13831C7.81766 2.4483 8.41539 1.86895 9.119 1.44416C9.44984 1.24416 9.38567 0.666656 8.99984 0.666656C4.39734 0.666656 0.666504 4.39749 0.666504 8.99999C0.666504 13.6025 4.39734 17.3333 8.99984 17.3333Z" fill="#862633"/>
</svg>
