<svg width="22" height="25" viewBox="0 0 22 25" fill="none" xmlns="http://www.w3.org/2000/svg">
<path d="M20.1352 17.9927C16.002 19.6706 11.1724 17.993 8.89015 14.0643C6.60792 10.1355 7.54308 5.10911 11.0482 2.34988C11.3515 2.12547 11.4571 1.72666 11.3047 1.38134C11.1523 1.03602 10.8407 0.83139 10.4687 0.854658C8.81568 0.9954 7.27905 1.50239 5.87389 2.31866C0.397373 5.50002 -1.43214 12.6368 1.79229 18.1875C5.01673 23.7381 12.1226 25.6843 17.5991 22.5029C19.0043 21.6867 20.2059 20.603 21.1319 19.2937C21.3364 18.9821 21.3491 18.5891 21.0886 18.3066C20.8281 18.0241 20.5013 17.8764 20.1352 17.9927ZM4.89359 11.0832C5.28991 10.853 5.80262 10.989 6.03294 11.3855C6.26326 11.7819 6.12743 12.2947 5.7311 12.5249C5.33477 12.7552 4.82207 12.6191 4.59175 12.2227C4.36143 11.8262 4.49726 11.3134 4.89359 11.0832ZM6.17785 19.9302C6.12673 20.0081 6.0907 20.0291 6.05467 20.05C5.91055 20.1337 5.72455 20.1453 5.60477 20.0221C5.09546 19.6431 4.65821 19.2222 4.25699 18.7804C4.11627 18.6211 4.09874 18.342 4.29398 18.1804C4.45319 18.0397 4.75312 18.0583 4.89384 18.2176C5.27412 18.6234 5.6544 19.0291 6.0858 19.357C6.26255 19.4954 6.31612 19.7535 6.17785 19.9302ZM2.84234 12.6122C2.80685 14.1273 3.20031 15.6341 3.95408 16.9317C4.07971 17.1479 4.01934 17.3758 3.80316 17.5014C3.58698 17.627 3.35911 17.5665 3.23348 17.3503C2.39597 15.9085 1.97572 14.2726 1.98442 12.6285C1.98782 12.3855 2.18306 12.2239 2.42603 12.2274C2.64805 12.1948 2.80971 12.3902 2.84234 12.6122ZM6.89492 16.1874C6.28241 16.5432 5.54183 16.3468 5.18589 15.734C4.82994 15.1213 5.02614 14.3806 5.63864 14.0248C6.25115 13.669 6.99173 13.8655 7.34767 14.4782C7.70362 15.091 7.50742 15.8316 6.89492 16.1874ZM12.0465 20.9079C11.6501 21.1381 11.1374 21.0021 10.9071 20.6056C10.6768 20.2091 10.8126 19.6964 11.2089 19.4661C11.6053 19.2359 12.118 19.3719 12.3483 19.7684C12.5786 20.1649 12.4428 20.6776 12.0465 20.9079Z" fill="#9333EA"/>
</svg>
