<svg width="8" height="15" viewBox="0 0 8 15" fill="none" xmlns="http://www.w3.org/2000/svg">
<path d="M1.74469 14.9778C1.563 14.9774 1.38577 14.9491 1.21302 14.8928C1.04027 14.8365 0.880414 14.7549 0.733443 14.6481C0.503322 14.4818 0.323604 14.2723 0.194288 14.0196C0.064973 13.7668 0.000211997 13.4985 5.37194e-06 13.2146C-0.000834816 12.8773 0.0968809 12.5714 0.293152 12.297C0.489424 12.0226 0.747334 11.8313 1.06688 11.7231L2.65626 11.1881C2.75965 11.1528 2.84298 11.0906 2.90624 11.0015C2.9695 10.9124 3.00075 10.8133 3.00001 10.704V2.85276C2.99954 2.62358 3.06941 2.41834 3.20961 2.23705C3.34982 2.05575 3.53088 1.93651 3.75282 1.87932L7.14001 0.999948C7.35763 0.943539 7.55536 0.984117 7.73318 1.12168C7.911 1.25925 7.99994 1.44044 8.00001 1.66526V3.46995C8.00062 3.69988 7.93045 3.90568 7.78949 4.08734C7.64854 4.26901 7.46663 4.3881 7.24376 4.44464L4.37969 5.16745C4.26719 5.19672 4.17556 5.25748 4.10481 5.34972C4.03406 5.44196 3.99912 5.5462 4.00001 5.66245V13.2278C4.00087 13.5516 3.90706 13.8453 3.71859 14.1087C3.53011 14.3721 3.28246 14.5556 2.97563 14.6593L2.30469 14.8853C2.2145 14.9158 2.12242 14.9388 2.02847 14.9544C1.93451 14.9699 1.83992 14.9777 1.74469 14.9778Z" fill="#9333EA"/>
</svg>
