<svg width="18" height="18" viewBox="0 0 18 18" fill="none" xmlns="http://www.w3.org/2000/svg">
<path d="M16.184 3.375H15.2535L15.251 3.37603L15.25 3.37852V15.25C15.25 15.5952 15.372 15.8898 15.6161 16.1339C15.8602 16.378 16.1548 16.5 16.5 16.5C16.8452 16.5 17.1398 16.378 17.3839 16.1339C17.628 15.8898 17.75 15.5952 17.75 15.25V4.94102C17.75 4.50857 17.5971 4.13946 17.2913 3.83367C16.9855 3.52789 16.6164 3.375 16.184 3.375Z" fill="#862633"/>
<path d="M14 15.25V1.8125C14 1.38103 13.8474 1.01274 13.5423 0.707646C13.2373 0.402548 12.869 0.25 12.4375 0.25H1.8125C1.38103 0.25 1.01274 0.402548 0.707646 0.707646C0.402548 1.01274 0.25 1.38103 0.25 1.8125V15.5625C0.25 16.1666 0.463568 16.6822 0.890704 17.1093C1.31784 17.5364 1.83344 17.75 2.4375 17.75H15.8301C15.8425 17.7501 15.8532 17.7458 15.862 17.737C15.8708 17.7282 15.8751 17.7175 15.875 17.7051C15.875 17.695 15.8719 17.6859 15.8657 17.6779C15.8595 17.6699 15.8516 17.6647 15.8418 17.6621C15.2984 17.5131 14.8558 17.2147 14.5139 16.7668C14.172 16.319 14.0007 15.8134 14 15.25ZM2.75 4C2.75 3.82741 2.81102 3.6801 2.93306 3.55806C3.0551 3.43602 3.20241 3.375 3.375 3.375H5.875C6.04759 3.375 6.1949 3.43602 6.31694 3.55806C6.43898 3.6801 6.5 3.82741 6.5 4V6.5C6.5 6.67259 6.43898 6.8199 6.31694 6.94194C6.1949 7.06398 6.04759 7.125 5.875 7.125H3.375C3.20241 7.125 3.0551 7.06398 2.93306 6.94194C2.81102 6.8199 2.75 6.67259 2.75 6.5V4ZM10.875 14.625H3.39258C3.05625 14.625 2.76758 14.3664 2.75078 14.0301C2.74219 13.8518 2.79946 13.6981 2.92258 13.5688C3.04572 13.4397 3.19652 13.375 3.375 13.375H10.8574C11.1938 13.375 11.4824 13.6336 11.4993 13.9699C11.5078 14.1482 11.4505 14.3019 11.3274 14.4312C11.2043 14.5603 11.0535 14.625 10.875 14.625ZM10.875 12.125H3.39258C3.05625 12.125 2.76758 11.8664 2.75078 11.5301C2.74219 11.3518 2.79946 11.1981 2.92258 11.0688C3.04572 10.9397 3.19652 10.875 3.375 10.875H10.8574C11.1938 10.875 11.4824 11.1336 11.4993 11.4699C11.5078 11.6482 11.4505 11.8019 11.3274 11.9312C11.2043 12.0603 11.0535 12.125 10.875 12.125ZM10.875 9.625H3.39258C3.05625 9.625 2.76758 9.36642 2.75078 9.03008C2.74219 8.85183 2.79946 8.69808 2.92258 8.56884C3.04572 8.43963 3.19652 8.37502 3.375 8.375H10.8574C11.1938 8.375 11.4824 8.63358 11.4993 8.96992C11.5078 9.14817 11.4505 9.30192 11.3274 9.43117C11.2043 9.56033 11.0535 9.625 10.875 9.625ZM10.875 7.125H8.39258C8.05625 7.125 7.76758 6.86641 7.75078 6.53008C7.74219 6.3518 7.79946 6.19806 7.92258 6.06884C8.04572 5.93963 8.19652 5.87502 8.375 5.875H10.8574C11.1938 5.875 11.4824 6.13359 11.4993 6.46993C11.5078 6.6482 11.4505 6.80194 11.3274 6.93116C11.2043 7.06037 11.0535 7.12498 10.875 7.125ZM10.875 4.625H8.39258C8.05625 4.625 7.76758 4.36641 7.75078 4.03008C7.74219 3.8518 7.79946 3.69806 7.92258 3.56884C8.04571 3.43963 8.19652 3.37502 8.375 3.375H10.8574C11.1938 3.375 11.4824 3.63359 11.4993 3.96993C11.5078 4.1482 11.4505 4.30194 11.3274 4.43116C11.2043 4.56037 11.0535 4.62498 10.875 4.625Z" fill="#862633"/>
</svg>
