<svg width="18" height="18" viewBox="0 0 18 18" fill="none" xmlns="http://www.w3.org/2000/svg">
<path d="M8.99984 17.3334C13.6023 17.3334 17.3332 13.6025 17.3332 9.00002C17.3332 8.61419 16.7548 8.55002 16.5557 8.88085C16.1309 9.58447 15.5515 10.1822 14.8615 10.6287C14.1715 11.0753 13.3889 11.359 12.573 11.4583C11.7571 11.5576 10.9294 11.4699 10.1524 11.2019C9.37539 10.9339 8.66958 10.4926 8.08841 9.91145C7.50723 9.33027 7.06593 8.62446 6.79794 7.84748C6.52994 7.07049 6.44228 6.24271 6.54158 5.42683C6.64089 4.61094 6.92456 3.82836 7.37111 3.13834C7.81766 2.44833 8.41539 1.86898 9.119 1.44419C9.44984 1.24419 9.38567 0.666687 8.99984 0.666687C4.39734 0.666687 0.666504 4.39752 0.666504 9.00002C0.666504 13.6025 4.39734 17.3334 8.99984 17.3334Z" fill="#862633"/>
</svg>
