<svg width="17" height="17" viewBox="0 0 17 17" fill="none" xmlns="http://www.w3.org/2000/svg">
<g clip-path="url(#clip0_965_18299)">
<path fill-rule="evenodd" clip-rule="evenodd" d="M9.05103 4.71792C7.60254 4.26789 6.38924 4.58113 5.53149 5.3362C5.63562 5.38464 5.72773 5.45506 5.80135 5.5425C5.87497 5.62994 5.92831 5.73228 5.9576 5.84231C6.51099 7.92558 6.92603 7.02825 7.12663 7.79289C7.28604 8.33528 7.37894 8.89465 7.40332 9.45896C7.42819 9.44932 7.45359 9.4411 7.47941 9.43434C7.57989 9.40752 7.68473 9.40063 7.78792 9.41407C7.8911 9.4275 7.99057 9.461 8.08059 9.51262C8.17062 9.56425 8.24941 9.63298 8.31244 9.71486C8.37547 9.79674 8.42149 9.89015 8.44784 9.9897C8.84074 11.4506 8.84766 12.4081 8.50456 13.1358C8.20296 13.7377 7.72152 14.1125 7.05469 14.4052C7.18335 14.5297 7.31755 14.6528 7.45866 14.7731C8.56543 15.5556 9.53385 15.4489 10.4317 14.9646C11.147 15.2998 11.9023 15.4325 12.7144 15.1315C13.9084 14.6883 15.1244 12.9429 15.6972 11.8486C16.9423 9.48222 17.3739 6.44554 14.5821 4.9655C13.8198 4.56198 12.868 4.44297 11.6616 4.71108C11.3683 4.8078 11.0639 4.868 10.7555 4.89027C10.743 4.34253 10.823 3.79657 10.992 3.27481C11.1995 2.64536 11.5684 2.07982 12.0628 1.63337C12.1071 1.60368 12.1443 1.56492 12.1721 1.51972C12.1998 1.47452 12.2173 1.42394 12.2235 1.37143C12.2297 1.31892 12.2244 1.26571 12.2079 1.21542C12.1914 1.16513 12.1641 1.11894 12.128 1.08001C12.0918 1.04107 12.0476 1.0103 11.9983 0.989778C11.949 0.969262 11.8958 0.959484 11.8424 0.961112C11.789 0.96274 11.7365 0.975734 11.6886 0.999211C11.6407 1.02269 11.5985 1.0561 11.5648 1.09716C10.9736 1.62769 10.5326 2.3014 10.2851 3.05185L10.2533 3.14897C9.48958 1.82076 8.18359 1.12862 6.05306 1.45144L5.21191 1.53761C5.82756 2.8029 6.58431 4.0928 8.15592 4.28293C8.75358 4.35543 9.40104 4.22275 10.0928 3.86573L10.0568 4.00936H10.0651C10.0256 4.30269 10.0076 4.59847 10.0111 4.89437C9.68562 4.86905 9.36375 4.80944 9.05103 4.71655V4.71792ZM2.09497 5.36355C2.84896 4.17898 2.57227 3.10246 0.721191 2.1983C0.167806 3.57574 0.396077 5.04621 2.09497 5.36355ZM5.7819 14.8238L6.44596 14.542L7.30509 16.5049C7.49325 16.9358 6.83057 17.2189 6.64242 16.788L5.78467 14.8251L5.7819 14.8238ZM4.0083 8.97747C5.27279 8.54933 5.73071 8.04458 5.20085 6.04065C4.20752 6.81623 3.05233 7.37159 4.01383 8.97747H4.0083ZM3.1049 6.91746C4.28361 6.51667 4.7111 6.04749 4.21167 4.18171C3.28752 4.90258 2.21395 5.41964 3.1049 6.91746ZM5.48722 14.2027C3.98755 14.9838 3.12565 14.9646 1.71729 12.735C3.30412 12.5011 4.82454 11.9321 5.48722 14.2027ZM4.35002 11.5901C3.01636 12.285 2.243 12.274 0.996501 10.2852C2.40763 10.0772 3.76343 9.56839 4.35002 11.5901ZM3.33732 9.26472C2.15723 9.88163 1.46549 9.86522 0.358724 8.11298C1.61076 7.92968 2.81022 7.47828 3.33455 9.27156L3.33732 9.26472ZM2.43392 7.20197C1.32715 7.77648 0.693522 7.7628 -0.333008 6.12272C0.831869 5.95037 1.95109 5.5318 2.43392 7.20197ZM6.16927 13.9045C7.77271 13.3574 8.35376 12.7227 7.67171 10.1839C6.41691 11.1715 4.95459 11.876 6.16927 13.9087V13.9045ZM5.02791 11.3001C6.45288 10.8173 6.96476 10.2482 6.36434 7.99123C5.24373 8.86394 3.94328 9.4959 5.02791 11.3001ZM5.96729 1.896C7.57764 2.33235 8.60693 2.52522 9.88802 3.66192C8.2583 3.26524 7.27604 2.91506 5.96729 1.896Z" fill="#9CA3AF"/>
</g>
<defs>
<clipPath id="clip0_965_18299">
<rect width="17" height="16" fill="white" transform="translate(0 0.5)"/>
</clipPath>
</defs>
</svg>
