<svg width="31" height="31" viewBox="0 0 31 31" fill="none" xmlns="http://www.w3.org/2000/svg">
<g clip-path="url(#clip0_711_14672)">
<path d="M26.8667 11.5389C27.2173 12.5393 27.4345 13.5816 27.5125 14.6389H15.0608L7.14721 24.1714C5.18655 22.2606 3.93467 19.7393 3.5975 17.0224C3.26034 14.3055 3.85798 11.5547 5.2921 9.22264C6.72623 6.89056 8.91142 5.11607 11.4882 4.19109C14.065 3.26611 16.8798 3.24573 19.4697 4.13332C19.5604 3.56209 19.7284 3.00587 19.9692 2.47998C17.0124 1.45759 13.7962 1.46799 10.8461 2.50947C7.89597 3.55095 5.38614 5.56197 3.72653 8.21408C2.06693 10.8662 1.35562 14.0027 1.70878 17.1112C2.06194 20.2198 3.4587 23.1168 5.67093 25.329C7.88317 27.5413 10.7802 28.938 13.8887 29.2912C16.9973 29.6444 20.1338 28.933 22.7859 27.2734C25.438 25.6138 27.449 23.104 28.4905 20.1539C29.532 17.2037 29.5424 13.9876 28.52 11.0308C27.9945 11.2745 27.4383 11.4454 26.8667 11.5389ZM15.5 27.5555C12.9757 27.5548 10.5163 26.7561 8.47332 25.2736L15.8703 16.3611H27.5125C27.2949 19.3995 25.9352 22.2428 23.7067 24.3196C21.4782 26.3963 18.5461 27.5524 15.5 27.5555Z" fill="#862633"/>
<path d="M25.8334 9.47219C28.2113 9.47219 30.1389 7.54453 30.1389 5.16664C30.1389 2.78875 28.2113 0.861084 25.8334 0.861084C23.4555 0.861084 21.5278 2.78875 21.5278 5.16664C21.5278 7.54453 23.4555 9.47219 25.8334 9.47219Z" fill="#862633"/>
</g>
<defs>
<clipPath id="clip0_711_14672">
<rect width="31" height="31" fill="white"/>
</clipPath>
</defs>
</svg>
