<svg width="24" height="34" viewBox="0 0 24 34" fill="none" xmlns="http://www.w3.org/2000/svg">
<path d="M11.9619 6.83057C12.8899 7.06025 13.8719 6.85301 14.627 6.26693C15.382 5.68085 15.8282 4.78196 15.8374 3.82627C15.8321 3.44744 15.7569 3.07387 15.617 2.72278C15.0599 1.33152 13.5881 0.53823 12.1202 0.836541C11.4457 0.973819 10.8385 1.33419 10.3937 1.85819C9.93563 2.42974 9.6875 3.14122 9.69145 3.87379C9.68749 5.26109 10.6208 6.47681 11.9619 6.83057Z" fill="#16A34A"/>
<path d="M2.86118 16.3172C3.24661 16.5997 3.74557 16.6762 4.19699 16.5178C4.62598 16.3726 4.97183 16.0479 5.14343 15.6282C5.2213 15.4473 5.26222 15.2533 5.32294 15.0658C5.65558 13.9861 5.95785 12.8958 6.29445 11.816C6.33801 11.6563 6.43305 11.4768 6.6152 11.4517C7.49168 11.3224 8.36813 11.193 9.24458 11.0624L9.2459 11.0637C9.30926 11.0637 9.3713 11.0756 9.4307 11.0967C9.47294 11.1534 9.49406 11.2221 9.4901 11.292C9.48614 13.3393 9.49142 15.3865 9.4901 17.434C9.48746 18.3078 9.85836 19.1407 10.5091 19.7215C10.7586 19.9274 11.0358 20.0977 11.3301 20.2284C11.6694 20.3458 12.0139 20.4435 12.3637 20.5214C13.2969 20.7498 14.2288 20.99 15.162 21.217C15.8788 21.3939 16.5955 21.5721 17.3096 21.7582C17.2621 21.9575 17.208 22.1569 17.1499 22.3535C16.8569 23.329 16.6021 24.315 16.2986 25.2865C16.119 25.9637 15.896 26.629 15.7283 27.3101C15.6227 28.0981 16.1415 28.8333 16.9176 29.001C17.7267 29.1448 18.5095 28.6367 18.7088 27.8394C19.0441 26.559 19.4111 25.2865 19.7807 24.0155C20.0077 23.2077 20.2308 22.3972 20.4578 21.5894C20.5542 21.2673 20.5687 20.9268 20.5 20.5981C20.3681 20.0292 19.9984 19.5434 19.485 19.2649C19.1352 19.0867 18.7616 18.9613 18.3762 18.8914C17.0365 18.5336 15.6821 18.2327 14.3476 17.8512C14.341 15.5769 14.3436 13.3012 14.3436 11.027C14.3727 10.5888 14.3476 10.1479 14.2697 9.71499C14.0981 9.09329 13.7034 8.55604 13.161 8.20627C12.5788 7.83007 11.8766 7.69017 11.1942 7.81422C10.8682 7.8591 10.5421 7.90133 10.2174 7.96073C9.3779 8.11385 8.52916 8.20493 7.68965 8.36069C6.96367 8.47949 6.23107 8.55341 5.50773 8.6854L5.50905 8.68408C5.07345 8.7514 4.66954 8.9494 4.34879 9.25036C4.0188 9.58696 3.79573 10.012 3.70466 10.4753C3.3245 11.728 2.91796 12.9714 2.52064 14.2187C2.38336 14.5606 2.30812 14.9236 2.29492 15.2919C2.33584 15.6958 2.54042 16.0664 2.86118 16.3172Z" fill="#16A34A"/>
<path d="M23.1212 10.1306C22.9681 9.6185 22.5576 9.2225 22.0401 9.08655C21.631 8.98624 21.2006 9.05619 20.8442 9.27927C20.6634 9.41919 20.4984 9.57891 20.3519 9.75445C19.7513 10.3959 19.1428 11.0295 18.5343 11.6644C18.3178 11.9179 18.0894 12.1594 17.8492 12.3891C17.5945 12.0881 17.308 11.8149 17.0335 11.5324C16.4804 10.978 15.9366 10.417 15.3809 9.8666C15.3729 11.1179 15.3756 12.3693 15.3822 13.6205C15.6092 13.9426 15.9102 14.2092 16.1636 14.5128C16.4118 14.7477 16.6098 15.0329 16.8777 15.2467C17.1694 15.4685 17.5219 15.5992 17.8888 15.6229C18.3495 15.644 18.7996 15.4817 19.1402 15.1715C19.7183 14.6092 20.2687 14.0178 20.8482 13.4582C21.4924 12.7863 22.1735 12.1487 22.8097 11.469C23.1384 11.1073 23.2558 10.6005 23.1212 10.1306Z" fill="#16A34A"/>
<path d="M7.02725 25.8079C7.57373 25.429 8.08982 25.0093 8.65347 24.6568C8.77095 24.5539 8.87522 24.4364 8.96366 24.307C9.31212 23.853 9.66984 23.4055 10.0276 22.9607C10.4592 22.4115 10.875 21.8492 11.3304 21.3199L11.2881 21.3278L11.2855 21.2856C10.9845 21.2196 10.6968 21.1034 10.4341 20.9424C9.7464 20.5411 9.20128 19.9352 8.87523 19.208C8.80527 19.0601 8.76171 18.9017 8.67987 18.7592C7.91034 20.0118 7.19359 21.2975 6.41611 22.5448C6.36463 22.6451 6.24716 22.6715 6.16136 22.7323C5.7218 23.02 5.30734 23.3434 4.87174 23.6351C4.25268 24.0707 3.61645 24.4799 3.00925 24.9327C2.3585 25.3616 1.71832 25.8065 1.08209 26.2553C0.552784 26.5892 0.284817 27.2149 0.4089 27.8287C0.503938 28.3422 0.851095 28.7738 1.33421 28.9757C1.70778 29.1249 2.12622 29.1183 2.49579 28.9586C2.74527 28.8332 2.97891 28.6814 3.19406 28.5058C4.46256 27.5924 5.75075 26.7081 7.02725 25.8079Z" fill="#16A34A"/>
<path d="M20.3786 32.5425C19.7489 32.4052 19.1088 32.326 18.4646 32.3049C15.822 32.1056 13.1701 32.0911 10.5209 32.1043C9.16001 32.1188 7.80041 32.1505 6.44226 32.2204C5.48793 32.2798 4.53227 32.326 3.5832 32.4422H3.58188C3.25453 32.4659 2.93376 32.5544 2.64072 32.7048C2.5998 32.8949 2.82024 32.9754 2.96544 33.0137C3.5845 33.1259 4.21018 33.2012 4.83718 33.2381C6.08588 33.312 7.33457 33.3978 8.58736 33.4071C10.1806 33.4493 11.7738 33.4374 13.3672 33.4348C15.0963 33.4348 16.8217 33.3371 18.5467 33.2328L18.548 33.2342C19.1526 33.2078 19.7558 33.1338 20.3485 33.0124C20.4052 32.9979 20.4633 32.9834 20.5201 32.9662C20.6098 32.9253 20.7643 32.8936 20.7352 32.7616C20.6811 32.623 20.5027 32.594 20.3786 32.5425Z" fill="#16A34A"/>
</svg>
