<svg width="17" height="18" viewBox="0 0 17 18" fill="none" xmlns="http://www.w3.org/2000/svg">
<path d="M8.50022 11.7643C9.34431 11.7643 10.066 11.4647 10.6652 10.8655C11.2644 10.2662 11.5641 9.54458 11.5641 8.70049C11.5641 7.85639 11.2644 7.13473 10.6652 6.5355C10.066 5.93626 9.34431 5.63665 8.50022 5.63665C7.65612 5.63665 6.93446 5.93626 6.33523 6.5355C5.73599 7.13473 5.43638 7.85639 5.43638 8.70049C5.43638 9.54458 5.73599 10.2662 6.33523 10.8655C6.93446 11.4647 7.65612 11.7643 8.50022 11.7643ZM14.9948 9.55882L16.833 10.9883C17.0235 11.1246 17.0508 11.3153 16.9149 11.5604L15.1586 14.5833C15.0497 14.7739 14.8726 14.8283 14.6275 14.7467L12.4625 13.8888C11.8905 14.2972 11.4004 14.5832 10.992 14.7467L10.6652 17.0341C10.6106 17.2793 10.4744 17.4018 10.2565 17.4018H6.74348C6.52563 17.4018 6.3894 17.2793 6.33479 17.0341L6.00801 14.7467C5.49069 14.5288 5.00053 14.2429 4.53753 13.8888L2.37254 14.7467C2.12738 14.8283 1.95034 14.7739 1.84142 14.5833L0.0851127 11.5604C-0.051116 11.3153 -0.0238122 11.1246 0.167024 10.9883L2.00524 9.55882C1.97794 9.36827 1.96429 9.08231 1.96429 8.70092C1.96429 8.31954 1.97794 8.03358 2.00524 7.84303L0.167024 6.4135C-0.0235217 6.27727 -0.0508256 6.08658 0.0851127 5.84143L1.84142 2.81854C1.95034 2.628 2.12738 2.57353 2.37254 2.65515L4.53753 3.51305C5.10946 3.10465 5.59962 2.81869 6.00801 2.65515L6.33479 0.367731C6.3894 0.122577 6.52563 0 6.74348 0H10.2565C10.4744 0 10.6106 0.122577 10.6652 0.367731L10.992 2.65515C11.5093 2.873 11.9995 3.15897 12.4625 3.51305L14.6275 2.65515C14.8726 2.57353 15.0497 2.628 15.1586 2.81854L16.9149 5.84143C17.0511 6.08658 17.0238 6.27727 16.833 6.4135L14.9948 7.84303C15.0221 8.03358 15.0357 8.31954 15.0357 8.70092C15.0357 9.08231 15.0221 9.36827 14.9948 9.55882Z" fill="#862633"/>
</svg>
