<svg width="17" height="16" viewBox="0 0 17 16" fill="none" xmlns="http://www.w3.org/2000/svg">
<path d="M5.89286 1.57143C6.18872 1.57143 6.42857 1.81128 6.42857 2.10714C6.42857 2.37013 6.23906 2.58887 5.98915 2.63423L5.89286 2.64286H2.67857C1.84318 2.64286 1.15666 3.28024 1.07879 4.09522L1.07143 4.25V12.8214C1.07143 13.6568 1.70881 14.3433 2.52379 14.4212L2.67857 14.4286H11.25C12.0854 14.4286 12.7719 13.7912 12.8498 12.9762L12.8571 12.8214V11.75C12.8571 11.4542 13.097 11.2143 13.3929 11.2143C13.6558 11.2143 13.8746 11.4038 13.9199 11.6537L13.9286 11.75V12.8214C13.9286 14.2416 12.8233 15.4036 11.4261 15.4943L11.25 15.5H2.67857C1.25841 15.5 0.0963873 14.3948 0.00569752 12.9975L0 12.8214V4.25C0 2.82984 1.10522 1.66782 2.50245 1.57713L2.67857 1.57143H5.89286ZM10.0474 1.11909C10.0474 0.639324 10.5423 0.366157 10.922 0.566195L11.0014 0.616401L11.0675 0.673197L15.8859 5.41018C16.0858 5.60668 16.1241 5.90908 16.001 6.14625L15.9472 6.2318L15.886 6.30192L11.0676 11.0404C10.7298 11.3726 10.1948 11.1957 10.0727 10.7762L10.0531 10.6828L10.0474 10.5946V8.34939L9.77132 8.37425C9.50464 8.40275 9.23957 8.44432 8.976 8.49897C7.33266 8.84 5.74766 9.69061 4.21351 11.0604C3.79626 11.4331 3.15072 11.0808 3.21934 10.518C3.74033 6.24516 5.87897 3.84215 9.52347 3.44384L9.80678 3.41716L10.0474 3.40097V1.11909ZM11.1189 2.22612V4.40274L9.88532 4.48571C8.19921 4.62077 6.95609 5.20814 6.06771 6.16627C5.3509 6.93937 4.80528 8.01864 4.48579 9.45232C6.00242 8.31572 7.60427 7.60343 9.294 7.35498L9.66643 7.30789L11.1189 7.17739V9.48736L14.8112 5.85613L11.1189 2.22612Z" fill="#9CA3AF"/>
</svg>
