<svg width="34" height="27" viewBox="0 0 34 27" fill="none" xmlns="http://www.w3.org/2000/svg">
<path d="M11.051 18.5625C17.1552 18.5625 22.1013 14.407 22.1013 9.28125C22.1013 4.15547 17.1552 0 11.051 0C4.94669 0 0.000581443 4.15547 0.000581443 9.28125C0.000581443 11.3168 0.781545 13.1994 2.1044 14.734C1.91846 15.2297 1.6422 15.6674 1.35 16.0365C1.09499 16.3635 0.834672 16.6166 0.643416 16.7906C0.547787 16.875 0.468097 16.9436 0.41497 16.9857C0.388407 17.0068 0.367156 17.0227 0.356531 17.0279L0.345906 17.0385C0.0537082 17.2547 -0.0737961 17.6344 0.0430829 17.9771C0.159962 18.3199 0.484035 18.5625 0.85061 18.5625C2.00877 18.5625 3.17756 18.2672 4.14978 17.9033C4.63855 17.7188 5.09544 17.5131 5.48858 17.3021C7.12489 18.1037 9.02151 18.5625 11.051 18.5625ZM23.8014 9.28125C23.8014 15.2033 18.5365 19.6646 12.2994 20.1973C13.5904 24.1207 17.8724 27 22.9514 27C24.9808 27 26.8774 26.5412 28.5137 25.7396C28.9122 25.9506 29.3638 26.1562 29.8525 26.3408C30.8247 26.7047 31.9935 27 33.1517 27C33.5183 27 33.8477 26.7627 33.9592 26.4146C34.0708 26.0666 33.9486 25.6869 33.6511 25.4707L33.6405 25.4602C33.6298 25.4496 33.6086 25.4391 33.582 25.418C33.5289 25.3758 33.4492 25.3125 33.3536 25.2229C33.1623 25.0488 32.902 24.7957 32.647 24.4688C32.3548 24.0996 32.0785 23.6566 31.8926 23.1662C33.2155 21.6369 33.9964 19.7543 33.9964 17.7135C33.9964 12.8197 29.486 8.80664 23.7642 8.45859C23.7854 8.72754 23.7961 9.00176 23.7961 9.27598L23.8014 9.28125Z" fill="#862633"/>
</svg>
