<svg width="18" height="26" viewBox="0 0 18 26" fill="none" xmlns="http://www.w3.org/2000/svg">
<path d="M15.5101 21.2066L10.9276 20.6913C10.8463 20.9891 10.7924 21.3153 10.6837 21.667C10.1684 23.7271 11.4155 25.219 12.4186 25.3268C13.8008 25.4894 15.13 25.0555 15.4279 21.8836C15.4553 21.6397 15.4827 21.4231 15.5101 21.2066Z" fill="#2563EB"/>
<path d="M11.0616 20.0948L15.6158 20.6101C15.9136 19.2279 16.4563 17.8987 16.8089 16.5164C17.2968 14.5915 17.4329 12.5039 16.2398 10.7956C15.8058 10.1716 15.2092 9.62992 14.45 9.41342C12.1186 8.76295 11.0881 11.7174 11.0615 13.5071C11.0615 14.9442 11.1703 16.354 11.3329 17.7909C11.4142 18.1426 11.333 18.8752 11.0616 20.0948Z" fill="#2563EB"/>
<path d="M2.57726 12.1512L7.15974 11.6633C7.24104 11.9611 7.29492 12.2873 7.40366 12.639C7.91893 14.6991 6.67189 16.191 5.66877 16.2989C4.28656 16.4615 2.95736 16.0275 2.65943 12.8557C2.632 12.6118 2.60469 12.3951 2.57726 12.1512Z" fill="#2563EB"/>
<path d="M7.02445 11.0667L2.47031 11.5545C2.17251 10.1723 1.6298 8.84312 1.27716 7.46083C0.761885 5.56334 0.626691 3.44837 1.81889 1.76741C2.25286 1.11694 2.84944 0.574252 3.60862 0.357755C5.94008 -0.292714 6.97056 2.66178 6.99714 4.45146C6.99714 5.88855 6.8884 7.2983 6.7258 8.73526C6.67192 9.0879 6.7531 9.81965 7.02445 11.0667Z" fill="#2563EB"/>
</svg>
