<svg width="26" height="27" viewBox="0 0 26 27" fill="none" xmlns="http://www.w3.org/2000/svg">
<path d="M18.8067 7.57218C18.8067 8.05107 18.3914 8.43943 17.8791 8.43943H6.73806C6.22576 8.43943 5.81049 8.05107 5.81049 7.57218V7.28124C5.81049 6.80236 6.22576 6.414 6.73806 6.414H17.8794C18.3917 6.414 18.807 6.80236 18.807 7.28124V7.57218H18.8067ZM18.8067 12.9734C18.8067 13.4523 18.3914 13.8407 17.8791 13.8407H6.73806C6.22576 13.8407 5.81049 13.4523 5.81049 12.9734V12.6825C5.81049 12.2036 6.22576 11.8152 6.73806 11.8152H17.8794C18.3917 11.8152 18.807 12.2036 18.807 12.6825V12.9734H18.8067ZM13.0307 18.3747C13.0307 18.8536 12.6155 19.2419 12.1032 19.2419H6.73806C6.22576 19.2419 5.81049 18.8536 5.81049 18.3747V18.0837C5.81049 17.6048 6.22576 17.2165 6.73806 17.2165H12.1032C12.6155 17.2165 13.0307 17.6048 13.0307 18.0837V18.3747ZM17.5217 18.3465C17.2414 18.3465 16.9617 18.2408 16.7572 18.0329C16.3688 17.638 16.3959 17.0236 16.8182 16.6605L23.3103 11.0753C23.7328 10.7122 24.3899 10.7378 24.778 11.1323C25.1664 11.5273 25.1392 12.1416 24.717 12.5047L18.2249 18.09C18.0251 18.2615 17.7729 18.3465 17.5217 18.3465Z" fill="#862633" stroke="#862633" stroke-width="0.3"/>
<path d="M18.8655 26.6558H5.58336C3.05585 26.6558 1 24.7986 1 22.5154V5.14044C1 2.85757 3.05585 1 5.58336 1H18.8655C21.393 1 23.4489 2.85726 23.4489 5.14044V9.35042C23.4489 9.87772 22.9757 10.3049 22.3924 10.3049C21.8092 10.3049 21.336 9.87772 21.336 9.35042V5.14044C21.336 3.90999 20.228 2.90888 18.8655 2.90888H5.58336C4.22081 2.90888 3.11288 3.90999 3.11288 5.14044V22.5157C3.11288 23.7462 4.22081 24.7473 5.58336 24.7473H18.8655C20.228 24.7473 21.336 23.7462 21.336 22.5157V17.1439C21.336 16.6166 21.8092 16.1894 22.3924 16.1894C22.9757 16.1894 23.4489 16.6166 23.4489 17.1439V22.5157C23.4485 24.7986 21.393 26.6558 18.8655 26.6558Z" fill="#862633" stroke="#862633" stroke-width="0.3"/>
</svg>
