<svg width="12" height="24" viewBox="0 0 12 24" fill="none" xmlns="http://www.w3.org/2000/svg">
<path d="M6.35256 16.2016V2.42902C6.35256 1.09306 5.2595 0 3.92354 0C2.58758 0 1.49452 1.09306 1.49452 2.42902V16.2016C0.595784 16.9303 0.0371094 18.0476 0.0371094 19.2135C0.0371094 21.3511 1.786 23.1 3.92354 23.1C6.06108 23.1 7.78569 21.3511 7.78569 19.2135C7.78569 18.0476 7.2513 16.9303 6.35256 16.2016ZM3.92354 22.2741C2.24752 22.2741 0.887266 20.9139 0.887266 19.2378C0.887266 18.1691 1.44594 17.1975 2.34468 16.6388V2.4533C2.34468 1.57886 3.0491 0.850157 3.94784 0.850157C4.82229 0.850157 5.55099 1.55457 5.55099 2.4533V16.6388C6.42544 17.1975 7.0084 18.1691 7.0084 19.2378C6.95982 20.9139 5.59957 22.2741 3.92354 22.2741Z" fill="#9333EA"/>
<path d="M4.6763 17.1489V11.5864C4.6763 11.1735 4.33623 10.8334 3.92329 10.8334C3.51036 10.8334 3.1703 11.1735 3.1703 11.5864V17.1489C2.32015 17.4647 1.71289 18.2662 1.71289 19.2136C1.71289 20.4281 2.70878 21.424 3.92329 21.424C5.1378 21.424 6.13371 20.4281 6.13371 19.2136C6.13371 18.2662 5.52646 17.4647 4.6763 17.1489Z" fill="#9333EA"/>
<path d="M11.1615 2.4776H7.20215V3.30347H11.1615V2.4776Z" fill="#9333EA"/>
<path d="M9.0725 5.22235H7.20215V6.04821H9.0725V5.22235Z" fill="#9333EA"/>
<path d="M11.1615 7.99146H7.20215V8.81733H11.1615V7.99146Z" fill="#9333EA"/>
<path d="M9.0725 10.7362H7.20215V11.5621H9.0725V10.7362Z" fill="#9333EA"/>
<path d="M11.1615 13.4811H7.20215V14.3069H11.1615V13.4811Z" fill="#9333EA"/>
</svg>
