<svg width="20" height="14" viewBox="0 0 20 14" fill="none" xmlns="http://www.w3.org/2000/svg">
<path d="M1.71835 7.28981C1.6489 7.10272 1.6489 6.89691 1.71835 6.70981C2.39476 5.06969 3.54294 3.66735 5.01732 2.68056C6.4917 1.69378 8.22588 1.16699 10 1.16699C11.7741 1.16699 13.5083 1.69378 14.9827 2.68056C16.4571 3.66735 17.6053 5.06969 18.2817 6.70981C18.3511 6.89691 18.3511 7.10272 18.2817 7.28981C17.6053 8.92993 16.4571 10.3323 14.9827 11.3191C13.5083 12.3058 11.7741 12.8326 10 12.8326C8.22588 12.8326 6.4917 12.3058 5.01732 11.3191C3.54294 10.3323 2.39476 8.92993 1.71835 7.28981Z" stroke="#9CA3AF" stroke-width="1.66667" stroke-linecap="round" stroke-linejoin="round"/>
</svg>
