<svg width="34" height="23" viewBox="0 0 34 23" fill="none" xmlns="http://www.w3.org/2000/svg">
<path d="M0 3.83333C0 1.71901 1.6941 0 3.77778 0H18.8889C20.9726 0 22.6667 1.71901 22.6667 3.83333V19.1667C22.6667 21.281 20.9726 23 18.8889 23H3.77778C1.6941 23 0 21.281 0 19.1667V3.83333ZM33.0024 2.14427C33.6163 2.47969 34 3.12656 34 3.83333V19.1667C34 19.8734 33.6163 20.5203 33.0024 20.8557C32.3885 21.1911 31.6448 21.1552 31.0604 20.7599L25.3937 16.9266L24.5556 16.3576V15.3333V7.66667V6.64245L25.3937 6.07344L31.0604 2.2401C31.6389 1.85078 32.3826 1.80885 33.0024 2.14427Z" fill="#862633"/>
</svg>
