<svg width="25" height="17" viewBox="0 0 25 17" fill="none" xmlns="http://www.w3.org/2000/svg">
<path fill-rule="evenodd" clip-rule="evenodd" d="M7.59544 5.65058C7.59544 6.10588 7.96454 6.47498 8.41984 6.47498H11.9373C12.3926 6.47498 12.7617 6.10588 12.7617 5.65058C12.7617 5.19528 12.3926 4.82618 11.9373 4.82618H8.41984C7.96454 4.82618 7.59544 5.19528 7.59544 5.65058ZM0 15.2593C0 16.1993 0.762003 16.9613 1.70198 16.9613H15.3136C16.2535 16.9613 17.0155 16.1993 17.0155 15.2593V2.45015C17.0155 1.51017 16.2535 0.748169 15.3136 0.748169H1.70198C0.762003 0.748169 0 1.51017 0 2.45015V15.2593Z" fill="#9CA3AF"/>
<path fill-rule="evenodd" clip-rule="evenodd" d="M19.1573 5.17816C18.6902 5.49487 18.4104 6.02252 18.4104 6.58688V10.8891C18.4104 11.4346 18.6719 11.9471 19.1136 12.2672L22.2983 14.5752C23.4235 15.3907 24.999 14.5868 24.999 13.1971V4.42767C24.999 3.06228 23.472 2.25272 22.3419 3.01896L19.1573 5.17816Z" fill="#9CA3AF"/>
</svg>
