<svg width="25" height="24" viewBox="0 0 25 24" fill="none" xmlns="http://www.w3.org/2000/svg">
<path d="M23.785 5.69995L23.7273 5.64214C23.1843 5.0992 22.2995 5.098 21.7533 5.64375L19.6283 7.79108C19.5164 7.90339 19.3373 7.90791 19.2205 7.80044L16.2413 5.04991C15.9519 4.7825 15.5754 4.63556 15.181 4.63556H10.7492C10.6446 4.63556 10.5445 4.67544 10.4688 4.74709L6.71253 8.31364C6.16226 8.86432 6.12441 9.75199 6.62871 10.2925C6.89815 10.5815 7.26202 10.7406 7.65313 10.7406H7.66005C8.04793 10.7386 8.42074 10.5737 8.67838 10.2921L11.3312 7.48457H12.2808L6.08983 14.4037H2.27136C1.36617 14.4037 0.621789 15.0805 0.576606 15.9446C0.552585 16.396 0.710497 16.8249 1.02106 17.1521C1.32711 17.4749 1.75733 17.6597 2.2022 17.6597H7.90021C8.01252 17.6597 8.12 17.6133 8.19732 17.5307L11.1167 14.4142L13.5718 16.9816L12.8306 21.7183C12.6438 22.503 13.0203 23.3023 13.7256 23.6177C13.943 23.7154 14.1737 23.7642 14.4033 23.7642C14.6503 23.7642 14.8961 23.7077 15.1224 23.5957C15.5596 23.3792 15.8738 22.9832 15.9881 22.4907L17.2543 15.6991C17.2787 15.5672 17.2368 15.4312 17.1416 15.3364L13.7623 11.9616L16.4469 9.28112L18.3182 11.1521C18.8409 11.6747 19.7517 11.6747 20.2739 11.1521L23.7851 7.64128C24.0444 7.38203 24.1873 7.03688 24.1873 6.67057C24.1872 6.30394 24.0443 5.95921 23.785 5.69995Z" fill="#16A34A"/>
<path d="M19.2965 5.85641C20.6433 5.85641 21.7386 4.76117 21.7386 3.41438C21.7386 2.06759 20.6433 0.972351 19.2965 0.972351C17.9498 0.972351 16.8545 2.06759 16.8545 3.41438C16.8545 4.76117 17.9498 5.85641 19.2965 5.85641Z" fill="#16A34A"/>
</svg>
